<?xml version="1.0" encoding="utf-8"?>
<!-- Generator: Adobe Illustrator 16.0.4, SVG Export Plug-In . SVG Version: 6.00 Build 0)  -->
<!DOCTYPE svg PUBLIC "-//W3C//DTD SVG 1.1//EN" "http://www.w3.org/Graphics/SVG/1.1/DTD/svg11.dtd">
<svg version="1.1" id="Layer_1" xmlns="http://www.w3.org/2000/svg" xmlns:xlink="http://www.w3.org/1999/xlink" x="0px" y="0px"
	 width="370.75px" height="178.145px" viewBox="9.75 13.145 370.75 178.145" enable-background="new 9.75 13.145 370.75 178.145"
	 xml:space="preserve">
<g>
	<g>
		<path fill="#231F20" d="M46.307,133.735c-7.221,0-10.823-5.02-12.203-10.066c-0.771,0.158-1.819,0.219-2.492,0.219
			c-0.697,0-0.831,0-1.345-0.061v3.861c0,4.727,0.037,4.947,3.004,5.166c0.062,0.037,0.159,0.414-0.037,0.393
			c-0.95-0.135-2.516-0.232-3.859-0.232c-1.819,0-3.262,0.061-4.567,0.232c-0.159,0.021-0.1-0.355-0.037-0.393
			c2.87-0.279,3.006-0.256,3.006-5.166v-9.615c0-3.701-0.101-4.812-1.921-4.812c-0.353,0-0.731,0.061-1.184,0.121
			c-0.1,0-0.195-0.318-0.038-0.377c1.285-0.418,4.351-0.516,7.759-0.516c4.473,0,8.113,1.381,8.113,4.852
			c0,1.785-1.088,4.373-4.339,5.719c1.663,4.666,6.609,10.283,10.152,10.283C46.406,133.356,46.501,133.735,46.307,133.735z
			 M32.001,113.176c-0.513,0-0.892,0.035-1.44,0.061c-0.195,0.635-0.294,2.139-0.294,4.57v5.4c0.514,0.035,0.734,0.035,1.308,0.035
			c4.728,0,6.389-1.797,6.389-4.51C37.976,114.299,35.129,113.176,32.001,113.176z"/>
		<path fill="#231F20" d="M66.586,133.674c-6.511,0-10.981-4.984-10.981-10.434c0-5.24,4.788-11.078,11.558-11.078
			c6.548,0,11.019,4.969,11.019,10.406C78.179,127.834,73.39,133.674,66.586,133.674z M66.464,112.881
			c-4.752,0-8.271,3.459-8.271,9.297c0,7.086,4.632,10.764,9.139,10.764c4.766,0,8.271-3.445,8.271-9.297
			C75.591,116.559,70.935,112.881,66.464,112.881z"/>
		<path fill="#231F20" d="M97.726,133.674c-2.176,0-3.923-0.697-5.559-2.102c-0.158-0.158,0.121-1.918,0.195-4.117
			c0-0.098,0.376-0.098,0.376-0.023c0.222,3.324,1.98,5.521,5.267,5.521c2.174,0,4.216-1.246,4.216-3.861
			c0-5.301-9.32-5.336-9.32-11.141c0-2.869,2.492-5.777,5.997-5.777c1.782,0,2.97,0.379,4.019,0.99
			c0.221,0.121,0.38,1.307,0.38,3.383c0,0.098-0.354,0.098-0.38,0.037c-0.39-2.395-1.955-3.678-4.251-3.678
			c-2.04,0-3.86,1.309-3.86,3.361c0,5.068,9.163,4.982,9.163,11.078C103.981,130.768,101.391,133.674,97.726,133.674z"/>
		<path fill="#231F20" d="M122.698,133.04c-1.821,0-3.262,0.059-4.568,0.23c-0.195,0.025-0.1-0.354-0.037-0.389
			c2.847-0.283,3.007-0.258,3.007-5.168v-9.578c0-4.908-0.159-4.887-3.007-5.205c-0.063,0-0.158-0.389,0.037-0.354
			c1.307,0.158,2.748,0.232,4.568,0.232c1.307,0,2.906-0.098,3.86-0.232c0.158-0.035,0.099,0.354,0,0.354
			c-2.934,0.258-2.971,0.479-2.971,5.205v9.578c0,4.729,0.037,4.947,2.971,5.168c0.099,0.035,0.158,0.416,0,0.389
			C125.603,133.135,124.003,133.04,122.698,133.04z"/>
		<path fill="#231F20" d="M155.399,132.624c-0.158,0.512-0.279,0.572-0.756,0.572c-1.147,0-3.126-0.156-5.436-0.156
			c-3.127,0-6.315,0.061-8.589,0.23c-0.196,0.025-0.1-0.354-0.037-0.389c3.226-0.355,3.287-0.221,3.287-5.168v-9.578
			c0-4.982-0.062-4.826-3.287-5.205c-0.062,0-0.158-0.389,0.037-0.354c2.259,0.158,5.302,0.232,8.465,0.232
			c2.296,0,4.399-0.098,6.096-0.232c-0.135,0.453-0.195,1.051-0.195,1.723c0,0.318,0.024,0.953,0.062,1.207
			c0,0.098-0.378,0.062-0.378,0c-0.257-1.441-0.892-1.918-5.045-1.918h-3.066c-0.123,0.793-0.195,2.297-0.195,4.373v4.217h3.322
			c3.507,0,3.263-0.318,3.446-1.186c0.038-0.023,0.414-0.062,0.378,0c-0.122,0.477-0.22,1.283-0.22,2.014
			c0,0.355,0.037,1.025,0.062,1.271c0.037,0.098-0.355,0.061-0.355,0c-0.195-1.014-0.355-1.467-3.323-1.467h-3.323v4.754
			c0,4.275,0.573,4.666,2.04,4.666h1.625c4.851,0,5.144-0.475,5.582-2.627c0.024-0.035,0.379-0.035,0.379,0.062
			C155.876,130.485,155.595,131.952,155.399,132.624z"/>
		<path fill="#231F20" d="M194.576,133.161c-1.05,0-3.162-0.121-3.896-0.121c-1.82,0-3.263,0.061-4.569,0.23
			c-0.194,0.025-0.098-0.352-0.036-0.389c2.846-0.281,3.005-0.258,3.005-5.166v-9.58c0-4.91-0.159-4.887-3.005-5.203
			c-0.061,0-0.158-0.393,0.036-0.355c1.307,0.158,2.199,0.232,4.02,0.232c0.731,0,2.773-0.135,3.8-0.135
			c3.443,0,6.325,1.6,6.325,4.691c0,1.98-2.017,4.08-4.666,4.568c3.762-0.121,6.549,2.016,6.549,4.984
			C202.151,130.411,199.244,133.161,194.576,133.161z M192.439,122.315c-0.099,0-0.099-0.381,0-0.381
			c3.837,0,5.399-1.123,5.399-4.178c0-3.287-1.918-4.434-4.664-4.434c-0.478,0-0.771,0.037-1.307,0.135
			c-0.22,0.99-0.282,2.236-0.282,4.654v9.773c0,4.275,0.282,4.654,2.688,4.654c3.505,0,5.325-1.246,5.325-5.107
			C199.597,124.219,196.91,121.799,192.439,122.315z"/>
		<path fill="#231F20" d="M226.608,133.674c-6.512,0-10.981-4.984-10.981-10.434c0-5.24,4.789-11.078,11.556-11.078
			c6.549,0,11.02,4.969,11.02,10.406C238.201,127.834,233.412,133.674,226.608,133.674z M226.487,112.881
			c-4.766,0-8.271,3.459-8.271,9.297c0,7.086,4.631,10.764,9.127,10.764c4.765,0,8.27-3.445,8.27-9.297
			C235.612,116.559,230.958,112.881,226.487,112.881z"/>
		<path fill="#231F20" d="M272.407,113.235c-0.515-0.098-0.928-0.121-1.478-0.121c-5.107,0-9.162,6.547-9.162,13.793v0.793
			c0,4.729,0.035,4.947,2.967,5.168c0.099,0.035,0.159,0.416,0,0.391c-0.991-0.135-2.554-0.23-3.873-0.23
			c-1.817,0-3.248,0.061-4.568,0.23c-0.196,0.025-0.098-0.355-0.037-0.391c2.847-0.281,3.006-0.256,3.006-5.168v-0.793
			c0-7.879-4.508-13.73-9.358-13.73c-0.44,0-0.769,0.035-1.149,0.061c-0.061,0.035-0.194-0.291-0.035-0.355
			c1.05-0.377,2.102-0.535,3.104-0.535c4.631,0,8.051,4.215,9.186,9.137c1.564-5.01,5.206-8.941,9.298-8.941
			c0.709,0,1.405,0.1,2.101,0.354C272.591,112.956,272.469,113.272,272.407,113.235z"/>
		<path fill="#231F20" d="M298.343,132.624c-0.157,0.512-0.317,0.572-0.771,0.572c-1.159,0-2.846-0.156-5.143-0.156
			c-3.164,0-6.607,0.061-8.92,0.23c-0.157,0.025-0.097-0.354,0-0.389c3.227-0.355,3.263-0.221,3.263-5.168v-9.578
			c0-4.908-0.134-4.887-2.969-5.205c-0.097,0-0.156-0.389,0-0.354c1.343,0.158,2.775,0.232,4.569,0.232
			c1.344,0,2.908-0.098,3.861-0.232c0.195-0.035,0.1,0.354,0.035,0.354c-2.969,0.258-3.004,0.479-3.004,5.205v9.578
			c0,4.018,0.318,4.434,1.941,4.434h1.759c4.913,0,5.047-0.318,5.462-2.174c0-0.023,0.379-0.062,0.354,0.035
			C298.685,130.866,298.528,131.952,298.343,132.624z"/>
		<path fill="#231F20" d="M330.973,133.258c-0.965-0.135-2.271-0.23-3.582-0.23c-1.818,0-3.443,0.061-4.762,0.23
			c-0.158,0.025-0.1-0.355-0.025-0.391c1.527-0.158,2.271-0.221,2.271-1.125c0-0.953-0.61-2.455-1.183-4.055l-0.954-2.615h-7.184
			l-1.124,2.627c-0.81,1.92-1.369,3.164-1.369,4.057c0,0.77,0.634,0.988,2.099,1.125c0.1,0.037,0.159,0.416,0,0.389
			c-0.952-0.133-1.696-0.23-3.002-0.23c-1.822,0-1.857,0.061-3.166,0.23c-0.158,0.025-0.096-0.352-0.023-0.389
			c2.139-0.16,2.971-1.504,4.532-5.166l6.743-15.43c0.062-0.121,0.316-0.121,0.379,0l5.754,15.43
			c1.428,3.92,2.004,4.984,4.631,5.166C331.071,132.905,331.167,133.295,330.973,133.258z M319.477,115.887l-3.641,8.564h6.671
			L319.477,115.887z"/>
		<path fill="#231F20" d="M362.588,118.124v9.576c0,1.6,0.1,4.496,0.258,5.84c0,0.098-0.258,0.121-0.379-0.037l-15.516-16.699
			v10.887c0,4.334,0.037,4.945,3.006,5.166c0.062,0.035,0.16,0.414-0.035,0.391c-0.953-0.133-1.82-0.232-3.128-0.232
			c-1.818,0-2.554,0.062-3.86,0.232c-0.193,0.021-0.098-0.355-0.023-0.391c2.834-0.281,3.006-0.637,3.006-5.166v-11.203
			c0-1.467-2.053-3.387-3.58-3.582c-0.062,0-0.135-0.391,0.035-0.354c1.308,0.158,2.493,0.23,4.312,0.23l14.881,16.127v-10.787
			c0-4.531-0.122-4.887-3.006-5.203c-0.061,0-0.12-0.393,0.037-0.355c1.306,0.158,2.039,0.232,3.859,0.232
			c1.308,0,2.177-0.098,3.126-0.232c0.186-0.037,0.125,0.355,0.025,0.355C362.624,113.176,362.588,113.786,362.588,118.124z"/>
	</g>
	<g>
		<g>
			<path fill="#E3AE4C" d="M131.029,79.079c0,0,7.806-6.66,8.331-11.202c0.355-3.006,4.789-8.319,7.759-11.594
				c1.525-1.674,2.674-2.811,2.674-2.821l12.229-4.68l10.287-4.765l1.355,4.301l8.1-7.245l6.852-0.963l5.582-1.064l14.868,0.244
				L193.49,58.054l28.953-18.545l8.379-1.233l12.206,3.653l8,4.239l9.162,3.153l-12.534,10.396l-17.358-3.397l-6.242,3.604
				l-15.967,8.369l-28.391,1.991l2.492,4.166l-29.048,0.283l18.301,8.966l-6.829,2.1l-9.54-4.888l1.612,3.41
				c0,0-8.196-2.26-6.939-1.172c1.637,1.429,4.717,4.275,4.717,4.275l-8.688-3.591c0,0-10.675-3.994-13.376-2.381
				C129.697,83.074,131.029,79.079,131.029,79.079z"/>
		</g>
		<polygon points="131.773,80.79 120.291,87.509 122.463,89.951 134.546,80.375 		"/>
		<g>
			<path fill="#EF4136" d="M149.757,63.382c-0.024-0.136-0.024-0.28-0.05-0.416c0.05,0,0.109,0.013,0.159,0.024
				C149.829,63.125,149.78,63.246,149.757,63.382L149.757,63.382z"/>
		</g>
		<g>
			<path fill="#EF4136" d="M149.95,63.564c-0.084,0.073-0.171,0.146-0.243,0.22c0.013-0.135,0.036-0.271,0.05-0.404h-0.015
				C149.817,63.443,149.879,63.503,149.95,63.564z"/>
		</g>
		<path fill="#FFFFFF" d="M148.167,68.438c1.771-1.783,8.894-4.652,8.894-4.652l90.217-12.755l-83.596,19.253l-14.807,0.893
			l-14.855,11.08"/>
		
			<polyline fill="none" stroke="#000000" stroke-width="0.8037" stroke-linecap="round" stroke-linejoin="round" stroke-miterlimit="10" stroke-dasharray="1.4587,1.4587" points="
			125.518,91.357 132.862,84.419 153.152,67.668 171.49,65.189 247.291,51.03 		"/>
	</g>
	<g>
		
			<line fill="none" stroke="#E3AE4C" stroke-width="0.803" stroke-miterlimit="10" x1="75.247" y1="162.323" x2="26.773" y2="162.323"/>
		
			<line fill="none" stroke="#E3AE4C" stroke-width="0.803" stroke-miterlimit="10" x1="363.479" y1="162.323" x2="315.007" y2="162.323"/>
		<g>
			<path d="M91.227,158.167h0.83v4.449h4.228v-4.449h0.83v7.895h-0.83v-2.676h-4.228v2.676h-0.83V158.167z"/>
			<path d="M105.986,158.083h0.133l3.348,7.977h-0.879l-0.538-1.32h-3.993l-0.528,1.32h-0.818L105.986,158.083z M107.743,164.032
				l-1.392-3.518c-0.038-0.098-0.075-0.195-0.11-0.307c-0.037-0.109-0.073-0.207-0.098-0.303c-0.037-0.109-0.062-0.221-0.1-0.342
				c-0.037,0.121-0.073,0.232-0.108,0.342c-0.037,0.098-0.062,0.193-0.098,0.303c-0.038,0.111-0.075,0.209-0.111,0.307l-1.392,3.518
				H107.743z"/>
			<path d="M115.952,158.911h-2.431v-0.744h5.681v0.744h-2.431v7.148h-0.832v-7.148H115.952z"/>
			<path d="M126.788,166.159c-0.377,0-0.721-0.051-1.013-0.137c-0.293-0.086-0.549-0.209-0.783-0.354
				c-0.22-0.148-0.414-0.316-0.572-0.512c-0.159-0.197-0.295-0.391-0.393-0.6l0.697-0.367c0.098,0.16,0.195,0.318,0.317,0.465
				c0.12,0.145,0.258,0.281,0.415,0.391c0.159,0.109,0.342,0.209,0.562,0.268c0.22,0.062,0.465,0.098,0.732,0.098
				c0.232,0,0.453-0.035,0.646-0.098c0.196-0.059,0.368-0.145,0.514-0.268c0.147-0.123,0.271-0.258,0.356-0.428
				c0.085-0.172,0.121-0.355,0.121-0.561c0-0.209-0.036-0.381-0.099-0.539c-0.06-0.156-0.158-0.293-0.28-0.428
				c-0.121-0.123-0.279-0.242-0.463-0.354c-0.185-0.109-0.404-0.221-0.65-0.33l-0.621-0.293c-0.28-0.123-0.526-0.258-0.744-0.391
				c-0.221-0.137-0.403-0.295-0.55-0.467c-0.147-0.168-0.257-0.354-0.344-0.561c-0.073-0.207-0.121-0.453-0.121-0.732
				c0-0.281,0.048-0.551,0.158-0.783c0.098-0.234,0.244-0.426,0.427-0.598c0.184-0.172,0.403-0.295,0.66-0.379
				c0.257-0.086,0.524-0.135,0.818-0.135c0.538,0,0.966,0.107,1.307,0.33c0.344,0.219,0.612,0.5,0.818,0.855l-0.672,0.414
				c-0.158-0.244-0.343-0.451-0.573-0.611c-0.221-0.158-0.527-0.244-0.893-0.244c-0.394,0-0.698,0.098-0.916,0.305
				c-0.22,0.209-0.331,0.477-0.331,0.818c0,0.355,0.098,0.625,0.294,0.818c0.195,0.195,0.513,0.402,0.965,0.6l0.622,0.295
				c0.33,0.146,0.611,0.303,0.869,0.463c0.244,0.158,0.452,0.33,0.622,0.527c0.171,0.197,0.295,0.402,0.379,0.635
				c0.086,0.232,0.121,0.498,0.121,0.793c0,0.33-0.062,0.611-0.182,0.881c-0.124,0.256-0.296,0.475-0.514,0.658
				c-0.22,0.182-0.476,0.316-0.77,0.414C127.436,166.122,127.142,166.159,126.788,166.159z"/>
			<path d="M141.827,158.167h2.675c0.367,0,0.697,0.051,0.965,0.148c0.27,0.098,0.501,0.246,0.672,0.416
				c0.185,0.182,0.306,0.391,0.402,0.623c0.1,0.23,0.137,0.486,0.137,0.744c0,0.393-0.085,0.732-0.257,1.002
				c-0.171,0.268-0.428,0.463-0.77,0.572c0.513,0.123,0.905,0.367,1.197,0.734c0.28,0.363,0.428,0.807,0.428,1.33
				c0,0.33-0.048,0.625-0.147,0.904c-0.099,0.281-0.256,0.527-0.465,0.734c-0.208,0.209-0.464,0.365-0.782,0.49
				c-0.318,0.121-0.685,0.18-1.098,0.18h-2.957V158.167L141.827,158.167z M144.564,161.407c0.45,0,0.782-0.123,0.979-0.355
				c0.193-0.232,0.294-0.537,0.294-0.904c0-0.182-0.025-0.342-0.075-0.5c-0.049-0.146-0.135-0.281-0.245-0.391
				c-0.107-0.109-0.256-0.195-0.426-0.258c-0.172-0.061-0.392-0.098-0.649-0.098h-1.783v2.492h1.906V161.407L144.564,161.407z
				 M144.724,165.313c0.306,0,0.562-0.035,0.782-0.121s0.392-0.195,0.523-0.342c0.138-0.146,0.234-0.305,0.309-0.498
				c0.072-0.195,0.098-0.404,0.098-0.637c0-0.463-0.148-0.842-0.427-1.148c-0.281-0.307-0.721-0.451-1.333-0.451h-2.015v3.199h2.063
				L144.724,165.313L144.724,165.313z"/>
			<path d="M154.972,163.592l-2.981-5.426h0.941l2.15,3.926c0.037,0.07,0.072,0.156,0.122,0.242
				c0.048,0.086,0.072,0.172,0.108,0.256c0.036,0.1,0.062,0.195,0.109,0.293c0.038-0.098,0.062-0.182,0.108-0.277
				c0.037-0.088,0.073-0.172,0.109-0.258c0.037-0.088,0.087-0.174,0.124-0.256l2.138-3.926h0.869l-2.921,5.391v2.504h-0.854v-2.469
				H154.972z"/>
			<path d="M176.241,166.061h-0.99l-1.516-2.15c-0.269,0.051-0.548,0.072-0.83,0.072h-0.939v2.078h-0.831v-7.895h1.771
				c0.538,0,1.014,0.074,1.418,0.221c0.403,0.148,0.745,0.342,1.026,0.6c0.271,0.256,0.477,0.562,0.623,0.916
				c0.133,0.355,0.206,0.744,0.206,1.172c0,0.598-0.134,1.113-0.414,1.553c-0.271,0.439-0.685,0.77-1.236,1L176.241,166.061z
				 M172.857,163.239c0.452,0,0.83-0.051,1.136-0.16c0.307-0.109,0.562-0.256,0.757-0.451c0.194-0.193,0.33-0.428,0.428-0.686
				c0.085-0.27,0.135-0.549,0.135-0.854s-0.05-0.598-0.135-0.869c-0.086-0.27-0.233-0.5-0.428-0.695
				c-0.194-0.197-0.45-0.342-0.757-0.451c-0.318-0.109-0.685-0.162-1.136-0.162h-0.891v4.328H172.857z"/>
			<path d="M185.747,166.159c-0.564,0-1.089-0.098-1.578-0.293c-0.5-0.195-0.928-0.479-1.283-0.832
				c-0.366-0.355-0.647-0.781-0.867-1.27c-0.209-0.502-0.318-1.039-0.318-1.635c0-0.602,0.108-1.139,0.318-1.639
				c0.208-0.5,0.5-0.916,0.867-1.271c0.367-0.354,0.794-0.635,1.283-0.83c0.5-0.197,1.027-0.295,1.578-0.295
				c0.562,0,1.085,0.098,1.587,0.295c0.488,0.195,0.916,0.479,1.282,0.83c0.366,0.355,0.66,0.783,0.869,1.271
				s0.315,1.039,0.315,1.639c0,0.596-0.106,1.133-0.315,1.635c-0.209,0.5-0.502,0.914-0.869,1.27
				c-0.365,0.355-0.793,0.637-1.282,0.832C186.846,166.059,186.309,166.159,185.747,166.159z M185.747,165.413
				c0.463,0,0.891-0.086,1.27-0.256c0.39-0.172,0.721-0.404,1.011-0.697c0.283-0.293,0.516-0.65,0.673-1.039
				c0.158-0.393,0.233-0.832,0.233-1.307c0-0.479-0.071-0.918-0.233-1.309c-0.157-0.391-0.378-0.744-0.673-1.037
				c-0.279-0.295-0.621-0.525-1.011-0.697c-0.392-0.172-0.82-0.258-1.27-0.258c-0.454,0-0.882,0.086-1.271,0.258
				c-0.393,0.172-0.734,0.402-1.014,0.697c-0.282,0.293-0.501,0.646-0.659,1.037c-0.16,0.404-0.232,0.83-0.232,1.309
				c0,0.475,0.071,0.914,0.232,1.307c0.158,0.402,0.377,0.744,0.659,1.039c0.279,0.293,0.621,0.525,1.014,0.697
				C184.865,165.327,185.293,165.413,185.747,165.413z"/>
			<path d="M197.608,166.159c-0.379,0-0.722-0.051-1.014-0.137c-0.294-0.086-0.551-0.209-0.783-0.354
				c-0.218-0.148-0.415-0.316-0.573-0.512c-0.157-0.197-0.294-0.391-0.392-0.6l0.697-0.367c0.099,0.16,0.194,0.318,0.316,0.465
				c0.123,0.145,0.258,0.281,0.417,0.391s0.341,0.209,0.561,0.268c0.221,0.062,0.466,0.098,0.734,0.098
				c0.231,0,0.453-0.035,0.649-0.098c0.193-0.059,0.363-0.145,0.512-0.268c0.146-0.123,0.27-0.258,0.355-0.428
				c0.085-0.17,0.122-0.355,0.122-0.561c0-0.209-0.037-0.381-0.099-0.539c-0.061-0.156-0.158-0.293-0.281-0.428
				c-0.122-0.123-0.281-0.242-0.465-0.354c-0.182-0.109-0.403-0.221-0.646-0.33l-0.622-0.293c-0.281-0.123-0.528-0.258-0.744-0.391
				c-0.221-0.137-0.405-0.295-0.552-0.467c-0.146-0.168-0.256-0.354-0.341-0.561c-0.072-0.207-0.122-0.453-0.122-0.732
				c0-0.281,0.05-0.551,0.159-0.783c0.1-0.234,0.243-0.426,0.429-0.598c0.182-0.172,0.4-0.295,0.656-0.379
				c0.258-0.086,0.527-0.135,0.82-0.135c0.535,0,0.963,0.107,1.306,0.33c0.341,0.219,0.611,0.5,0.818,0.855l-0.672,0.414
				c-0.157-0.244-0.341-0.451-0.574-0.611c-0.22-0.158-0.524-0.244-0.892-0.244c-0.39,0-0.695,0.098-0.914,0.305
				c-0.221,0.209-0.332,0.477-0.332,0.818c0,0.355,0.1,0.625,0.297,0.818c0.192,0.195,0.512,0.402,0.963,0.6l0.623,0.295
				c0.328,0.146,0.612,0.303,0.868,0.463c0.243,0.158,0.45,0.33,0.622,0.527c0.17,0.197,0.293,0.402,0.375,0.635
				c0.088,0.232,0.125,0.498,0.125,0.793c0,0.33-0.061,0.611-0.184,0.881c-0.122,0.256-0.294,0.475-0.514,0.658
				c-0.221,0.182-0.477,0.316-0.771,0.414C198.254,166.122,197.973,166.159,197.608,166.159z"/>
			<path d="M205.926,158.167h0.844v7.895h-0.844V158.167z"/>
			<path d="M213.158,158.167h4.801v0.744h-3.971v3.691h3.543v0.746h-3.543v1.965h4.131v0.746h-4.971v-7.893H213.158L213.158,158.167
				z"/>
			<path d="M230.762,158.167h2.676c0.367,0,0.694,0.051,0.965,0.148c0.27,0.098,0.498,0.246,0.673,0.416
				c0.182,0.182,0.304,0.391,0.403,0.623c0.084,0.23,0.134,0.486,0.134,0.744c0,0.393-0.087,0.732-0.257,1.002
				c-0.171,0.268-0.429,0.463-0.77,0.572c0.514,0.123,0.902,0.367,1.198,0.734c0.28,0.363,0.427,0.807,0.427,1.33
				c0,0.33-0.051,0.625-0.146,0.904c-0.1,0.281-0.258,0.527-0.465,0.734c-0.207,0.209-0.465,0.365-0.782,0.49
				c-0.319,0.121-0.685,0.18-1.1,0.18h-2.956V158.167L230.762,158.167z M233.498,161.407c0.453,0,0.783-0.123,0.979-0.355
				c0.194-0.232,0.293-0.537,0.293-0.904c0-0.182-0.023-0.342-0.072-0.5c-0.051-0.158-0.137-0.281-0.246-0.391
				c-0.107-0.109-0.256-0.195-0.426-0.258c-0.171-0.061-0.391-0.098-0.65-0.098h-1.783v2.492h1.906V161.407z M233.669,165.313
				c0.306,0,0.563-0.035,0.782-0.121c0.221-0.086,0.393-0.195,0.526-0.342c0.136-0.146,0.233-0.305,0.306-0.498
				c0.072-0.195,0.1-0.404,0.1-0.637c0-0.463-0.148-0.842-0.43-1.148c-0.279-0.307-0.719-0.451-1.332-0.451h-2.013v3.199h2.062
				L233.669,165.313L233.669,165.313z"/>
			<path d="M245.606,166.159c-0.562,0-1.088-0.098-1.576-0.293c-0.5-0.195-0.93-0.479-1.285-0.832
				c-0.367-0.355-0.646-0.781-0.867-1.27c-0.207-0.502-0.318-1.039-0.318-1.635c0-0.602,0.111-1.139,0.318-1.639
				c0.208-0.5,0.5-0.916,0.867-1.271c0.367-0.354,0.796-0.635,1.285-0.83c0.5-0.197,1.026-0.295,1.576-0.295
				c0.562,0,1.085,0.098,1.588,0.295c0.488,0.195,0.916,0.479,1.283,0.83c0.367,0.355,0.659,0.783,0.867,1.271
				c0.209,0.498,0.318,1.039,0.318,1.639c0,0.596-0.107,1.133-0.318,1.635c-0.208,0.5-0.5,0.914-0.867,1.27
				s-0.795,0.637-1.283,0.832C246.703,166.061,246.167,166.159,245.606,166.159z M245.606,165.413c0.463,0,0.893-0.086,1.271-0.256
				c0.39-0.172,0.72-0.404,1.013-0.697c0.281-0.293,0.514-0.65,0.672-1.039c0.158-0.393,0.243-0.832,0.243-1.307
				c0-0.479-0.085-0.918-0.243-1.309s-0.379-0.744-0.672-1.037c-0.279-0.295-0.623-0.525-1.013-0.697
				c-0.392-0.172-0.808-0.258-1.271-0.258c-0.453,0-0.88,0.086-1.271,0.258c-0.39,0.172-0.732,0.402-1.014,0.697
				c-0.281,0.293-0.5,0.646-0.659,1.037c-0.157,0.391-0.231,0.83-0.231,1.309c0,0.475,0.074,0.914,0.231,1.307
				c0.159,0.389,0.378,0.744,0.659,1.039c0.281,0.293,0.624,0.525,1.014,0.697C244.726,165.327,245.153,165.413,245.606,165.413z"/>
			<path d="M257.321,163.592l-2.981-5.426h0.939l2.151,3.926c0.037,0.07,0.072,0.156,0.121,0.242
				c0.037,0.086,0.074,0.172,0.109,0.256c0.039,0.1,0.062,0.195,0.11,0.293c0.035-0.098,0.062-0.182,0.099-0.277
				c0.035-0.088,0.072-0.172,0.109-0.258c0.035-0.088,0.084-0.174,0.121-0.256l2.14-3.926h0.866l-2.918,5.391v2.504h-0.855v-2.469
				H257.321z"/>
			<path d="M266.68,158.167h0.827v7.146h3.729v0.746h-4.558v-7.893H266.68L266.68,158.167z"/>
			<path d="M279.787,158.083h0.135l3.348,7.977h-0.883l-0.535-1.32h-3.994l-0.525,1.32h-0.82L279.787,158.083z M281.545,164.032
				l-1.393-3.518c-0.035-0.098-0.07-0.195-0.109-0.307c-0.035-0.109-0.072-0.207-0.099-0.303c-0.036-0.109-0.06-0.221-0.098-0.342
				c-0.035,0.121-0.074,0.232-0.111,0.342c-0.035,0.098-0.059,0.193-0.097,0.303c-0.035,0.111-0.072,0.209-0.109,0.307l-1.392,3.518
				H281.545z"/>
			<path d="M290.111,160.577c-0.061-0.062-0.124-0.139-0.185-0.221c-0.062-0.086-0.121-0.172-0.17-0.246
				c-0.062-0.086-0.123-0.172-0.185-0.27c0.015,0.109,0.024,0.221,0.037,0.33c0.011,0.1,0.011,0.197,0.022,0.295
				c0.015,0.098,0.015,0.195,0.015,0.279v5.326h-0.794v-7.979h0.135l4.715,5.572c0.049,0.072,0.109,0.146,0.184,0.232
				c0.072,0.086,0.121,0.162,0.184,0.232c0.061,0.086,0.12,0.172,0.184,0.27c-0.014-0.109-0.024-0.221-0.037-0.33
				c-0.014-0.098-0.014-0.193-0.014-0.295c0-0.098,0-0.193,0-0.279v-5.326h0.782v7.977h-0.134L290.111,160.577z"/>
		</g>
	</g>
</g>
</svg>
