<?xml version="1.0" standalone="no"?>
<!DOCTYPE svg PUBLIC "-//W3C//DTD SVG 1.1//EN" "http://www.w3.org/Graphics/SVG/1.1/DTD/svg11.dtd" >
<svg xmlns="http://www.w3.org/2000/svg">
<metadata>
Created by FontPrep 20130207 at Fri Dec 12 23:15:16 2014
 By ianH
HTF Requiem Copr. 1991-4 The Hoefler Type Foundry, Inc. Info: www.typography.com
</metadata>
<defs>
<font id="6859384f970d4cea1a51e5e2bd1b0aa2" horiz-adv-x='1024' >
  <font-face 
    font-family="RequiemFine-HTF-Roman"
    font-weight="500"
    font-stretch="normal"
    units-per-em="2048"
    panose-1="0 0 0 0 0 0 0 0 0 0"
    ascent="1638"
    descent="-410"
    x-height="811"
    cap-height="1298"
    bbox="-160 -679 2679 1853"
    underline-thickness="34"
    underline-position="-256"
    unicode-range="U+0020-FB02"
  />
<missing-glyph horiz-adv-x="1024" 
 />
    <glyph glyph-name=".notdef" horiz-adv-x="1024" 
 />
    <glyph glyph-name=".null" horiz-adv-x="0" 
 />
    <glyph glyph-name="nonmarkingreturn" horiz-adv-x="681" 
 />
    <glyph glyph-name="space" unicode=" " horiz-adv-x="430" 
 />
    <glyph glyph-name="exclam" unicode="!" horiz-adv-x="479" 
d="M313 40q0 -28 -21 -50t-51 -23q-30 0 -50 22q-19 21 -19 49t20 50t51 23q30 0 50 -22q20 -21 20 -49zM246 293q-2 -4 -10 -2q-6 455 -58 889q-2 18 36 31t77 13t39 -14q-12 -442 -84 -917z" />
    <glyph glyph-name="quotedbl" unicode="&#x22;" horiz-adv-x="616" 
d="M266 948q-2 -2 -6 2l279 404q4 6 18 0q13 -6 23 -18t6 -19zM53 948q-2 -2 -6 0l260 416q5 6 19 1t25 -17t5 -19z" />
    <glyph glyph-name="numbersign" unicode="#" horiz-adv-x="1402" 
d="M463 317h448l33 459l-225 2h-225l-17 -231zM983 1245q10 0 10 -6l-30 -444h333q7 -1 4 -11q-4 -10 -6 -10l-331 2l-19 -229l-14 -230h336q4 0 4 -9t-4 -11h-53l-233 2h-52l-29 -446q0 -8 -11 -5q-11 4 -11 7l32 444l-223 4l-225 -2l-31 -448q0 -3 -10 -3t-10 5l32 446
l-340 -4q-2 0 -2 11t6 11l338 -2l17 232l14 229l-340 -4q-2 0 -2 12t6 11l338 -2l29 448q0 2 10 2t10 -6l-30 -444l223 -2l225 2l29 448q0 2 10 2z" />
    <glyph glyph-name="dollar" unicode="$" horiz-adv-x="890" 
d="M436 -6q100 0 167 56t67 148t-52 153q-52 60 -157 132l-33 -489h8zM266 917q0 -82 47 -138t142 -113l28 436q-97 -4 -157 -54t-60 -131zM504 1245q12 0 12 -8l-8 -100q121 -8 201 -60q20 -14 20 -196q-3 -3 -12 2q-15 90 -73 149t-140 68l-31 -447q156 -94 205 -145
q88 -88 88 -218t-95 -230t-245 -105l-8 -102q-2 -3 -14 -3t-11 5l10 102q-156 8 -284 121q-4 16 3 93t7 142q0 4 12 2q10 -133 79 -219t186 -100l34 493l-84 52q-20 12 -69 50t-69 65q-56 83 -56 165q0 121 91 215t232 101l7 106q0 2 12 2z" />
    <glyph glyph-name="percent" unicode="%" horiz-adv-x="1083" 
d="M881 308q0 120 -31 178t-80 59q-49 0 -89 -76t-40 -197t30 -178t79 -57t90 76q41 75 41 195zM331 1081q-50 -1 -90 -77t-40 -196q-1 -120 29 -177t80 -57t91 75q41 76 41 196t-30 178q-31 58 -81 58zM983 376q0 -102 -46 -192t-128 -152t-132 -63q-50 0 -94 67t-44 170
t46 192t124 149q80 65 132 65t97 -66t45 -170zM165 -68q-9 0 -9 7l376 618l373 625q4 6 19 -2q4 -2 2 -4l-379 -619l-371 -623q-2 -2 -11 -2zM404 1147q50 0 94 -66t45 -169q0 -104 -46 -194t-127 -150t-132 -60t-95 64q-43 66 -43 170t45 193t127 151t132 61z" />
    <glyph glyph-name="ampersand" unicode="&#x26;" horiz-adv-x="1409" 
d="M213 356q0 -125 85 -208t216 -82q94 0 158 30t127 103q-12 16 -91 131t-147 182q-68 68 -143 115q-94 -33 -150 -107t-55 -164zM500 1112q-143 0 -144 -160q0 -106 176 -252q74 44 100 96t26 131t-44 132q-42 53 -114 53zM1136 -29q-110 1 -180 53t-145 158
q-88 -102 -179 -158t-204 -56q-112 0 -224 82q-112 83 -112 231q0 238 309 360q-147 121 -147 237t69 186t180 69q111 1 185 -59t74 -146q0 -141 -223 -240q73 -45 141 -114q68 -70 106 -120t99 -139q147 209 147 310q0 63 -155 73q-2 0 -3 5q0 5 3 6q102 -15 243 -15
t234 15q4 -4 2 -11q-115 -4 -186 -50t-175 -202l-98 -145q88 -135 154 -200q125 -123 315 -15l2 -8q-122 -107 -232 -107z" />
    <glyph glyph-name="quotesingle" unicode="'" horiz-adv-x="432" 
d="M51 956q-2 2 -4 2l289 392q4 6 17 -1t23 -19t5 -19z" />
    <glyph glyph-name="parenleft" unicode="(" horiz-adv-x="778" 
d="M866 -608q-276 135 -459 418q-183 284 -183 648t182 646q184 282 458 418q2 2 4 -3t0 -8q-496 -356 -496 -1054t496 -1055q2 -2 1 -6t-3 -4z" />
    <glyph glyph-name="parenright" unicode=")" horiz-adv-x="778" 
d="M408 456q0 696 -498 1055q-2 3 -1 7t3 4q276 -135 460 -418q184 -284 185 -648t-183 -646t-460 -418q-2 -2 -4 3t0 7q498 358 498 1054z" />
    <glyph glyph-name="asterisk" unicode="*" horiz-adv-x="581" 
d="M332 1323v-223h227q6 -2 2 -10l-211 -70l68 -217q0 -2 -3 -4t-5 0l-134 184l-184 -135q-4 0 -6 6l133 182l-186 133q-2 1 0 5t4 4l217 -66l68 213q2 2 6 1t4 -3z" />
    <glyph glyph-name="plus" unicode="+" horiz-adv-x="1177" 
d="M589 -29q-13 0 -14 2l9 482l-482 -6q-4 0 -4 12t4 12l482 -6l-9 481q-1 2 13 2t14 -2l-6 -481l479 6q2 0 2 -12t-2 -12l-479 6l6 -482q0 -2 -13 -2z" />
    <glyph glyph-name="comma" unicode="," 
d="M252 -101q0 50 -76 91q-33 18 -41 31t-8 31t17 33t52 15t71 -38t36 -112q-1 -74 -63 -130t-158 -56l-2 11q92 2 132 38t40 86z" />
    <glyph glyph-name="hyphen" unicode="-" horiz-adv-x="778" 
d="M127 460q0 14 6 13l256 55l252 64q16 0 14 -26t-8 -29l-504 -115q-6 0 -11 12t-5 26z" />
    <glyph glyph-name="period" unicode="." 
d="M272 40q0 -28 -21 -50t-51 -23q-30 0 -49 22q-19 21 -19 49t20 50t50 23q30 0 50 -22q20 -21 20 -49z" />
    <glyph glyph-name="slash" unicode="/" horiz-adv-x="667" 
d="M20 -678q-4 -2 -12 4l656 2128q4 2 14 -4z" />
    <glyph glyph-name="zero" unicode="0" horiz-adv-x="1200" 
d="M582 924q-144 0 -232 -111t-88 -303q0 -244 108 -377t251 -133t232 111t89 301q0 244 -108 378q-109 134 -252 134zM1081 470q0 -202 -144 -352q-145 -150 -347 -151q-202 1 -334 141t-133 342q0 202 143 353q144 151 348 151t336 -141t131 -343z" />
    <glyph glyph-name="one" unicode="1" horiz-adv-x="747" 
d="M374 0q-169 0 -259 -12q-6 0 2 12q63 6 89 12t56 26t38 58q9 39 9 107v516q0 127 -39 160t-153 45l-4 8l2 2q74 -10 258 -10t256 10q6 -2 2 -10q-113 -10 -152 -46t-39 -159v-516q0 -123 38 -158t153 -45v-12h-2q-86 12 -255 12z" />
    <glyph glyph-name="two" unicode="2" horiz-adv-x="974" 
d="M616 606q0 121 -61 190t-158 68q-127 0 -241 -121q-6 6 -2 13q141 199 309 198q129 0 207 -82t78 -212t-136 -283q-136 -154 -311 -254l2 -4h322q149 -1 191 27t50 126q10 2 11 0q3 -37 -5 -136t-14 -123t-27 -23l-323 10q-258 0 -445 -12q-4 0 -5 6t3 8q283 152 419 295
t136 309z" />
    <glyph glyph-name="three" unicode="3" horiz-adv-x="825" 
d="M348 860q-127 0 -264 -141q-6 6 -2 12q70 94 160 159q90 64 186 64t174 -76t78 -178q0 -104 -86 -200t-250 -154v-4q176 -2 274 -87t98 -217t-152 -257q-74 -61 -202 -100t-288 -39l-6 12q387 49 475 256q23 53 22 113q0 113 -118 187t-306 44q-4 0 -6 6t2 8
q207 70 304 178t98 224q-1 78 -53 134t-138 56z" />
    <glyph glyph-name="four" unicode="4" horiz-adv-x="1001" 
d="M590 156v628l-496 -628h496zM723 -119q0 -121 39 -157t151 -46q2 -12 -2 -12q-85 12 -253 12t-259 -12l-2 12q63 8 90 14q79 19 94 84q9 38 9 105v193h-53q-377 0 -527 -13q-4 1 -6 7t0 8l713 911q6 6 6 0v-831h240v-90q-138 0 -240 4v-189z" />
    <glyph glyph-name="five" unicode="5" horiz-adv-x="829" 
d="M314 840q-46 0 -80 -49t-34 -107t48 -103q47 -44 223 -130q246 -119 246 -338q-1 -166 -147 -291t-420 -180q-2 0 -3 12q182 47 311 151q128 104 128 254q0 92 -50 158t-174 123t-172 106q-49 48 -49 118q1 70 51 190t87 166q37 47 76 47t123 -28t134 -28q48 0 70 28
t35 95q10 0 10 -2q-5 -254 -131 -254q-60 0 -147 31q-89 31 -135 31z" />
    <glyph glyph-name="six" unicode="6" horiz-adv-x="1046" 
d="M272 418q0 -188 85 -306t203 -118t180 85t62 220t-62 218q-64 83 -175 83q-49 0 -114 -35l-5 6q36 41 94 68t111 27q137 0 216 -98t79 -220q0 -154 -122 -268t-301 -113q-179 0 -290 132t-110 317q0 263 211 514q104 124 276 232t389 175q4 -2 2 -10q-373 -141 -551 -387
t-178 -522z" />
    <glyph glyph-name="seven" unicode="7" horiz-adv-x="944" 
d="M375 795q-147 0 -191 -34t-51 -138q-10 4 -12 6q0 45 7 150t13 128t27 23l319 -6q262 0 418 10q8 0 4 -10q-274 -510 -659 -1282q-13 -13 -55 8q-16 8 -13 14q276 475 623 1131h-430z" />
    <glyph glyph-name="eight" unicode="8" horiz-adv-x="1017" 
d="M244 286q0 -130 82 -210t198 -80t192 76q75 76 75 174t-64 195q-42 64 -254 198q-119 -59 -174 -141t-55 -212zM523 1309q-99 0 -159 -66t-60 -169t70 -177q71 -74 210 -158q174 115 174 301q0 115 -68 192t-167 77zM504 -33q-166 0 -276 92t-109 232q0 223 325 362
q-124 80 -190 154t-66 178q0 154 106 252t250 98t235 -83t91 -193q0 -109 -63 -187t-199 -149q133 -85 189 -143q103 -106 102 -232q-1 -162 -115 -272t-280 -109z" />
    <glyph glyph-name="nine" unicode="9" horiz-adv-x="1064" 
d="M795 530q0 190 -83 292t-205 104q-122 0 -184 -88q-63 -88 -63 -226t68 -219q68 -80 180 -80q51 0 110 27q2 0 4 -2t1 -4q-37 -41 -95 -67t-110 -25q-139 0 -220 96t-81 219q0 160 119 279q118 118 300 118t295 -126t113 -308q0 -260 -180 -491q-92 -119 -255 -219
t-380 -168q-4 -2 -5 3t1 7q670 254 670 878z" />
    <glyph glyph-name="colon" unicode=":" 
d="M272 36q0 -28 -21 -50t-51 -23q-30 0 -49 22q-19 21 -19 49t20 50t50 22t50 -22q20 -20 20 -48zM200 582q-30 0 -49 20t-19 48t20 50t50 23q30 0 50 -22q20 -21 20 -49t-21 -49t-51 -21z" />
    <glyph glyph-name="semicolon" unicode=";" 
d="M252 -101q0 50 -76 91q-33 18 -41 31t-8 31t17 33t52 15t71 -38t36 -112q-1 -74 -63 -130t-158 -56l-2 11q92 2 132 38t40 86zM200 582q-30 0 -49 20t-19 48t20 50t50 23q30 0 50 -22q20 -21 20 -49t-21 -49t-51 -21z" />
    <glyph glyph-name="less" unicode="&#x3c;" horiz-adv-x="1638" 
d="M668 -45q0 -33 49 -80l-8 -8q-182 86 -183 252q0 82 59 178q58 96 156 172l-4 6q-53 0 -119 -47t-128 -95t-107 -48t-77 37q-32 38 -58 74t-59 36q-35 0 -59 -26t-24 -76q0 -8 9 -49q-1 -2 -7 -2t-6 2q-31 61 -30 125q0 135 110 240q111 105 242 106q86 0 176 -54
t141 -155l9 2q-10 84 -98 218q-87 134 -87 218t44 139q44 56 135 56t155 -78q4 -6 -6 -11q-33 21 -62 7t-29 -46t36 -54q36 -24 78 -43t77 -65t35 -120t-51 -152t-119 -94v-8q139 -29 234 -82q41 131 112 208q72 77 156 77q84 1 139 -63t55 -149t-36 -134t-82 -49
q-44 0 -68 20t-22 51q0 31 18 49t45 18t51 -26q25 31 25 78t-35 83q-36 36 -100 36t-132 -51t-116 -152q213 -129 213 -387q0 -102 -52 -171t-134 -69t-121 76q0 2 8 6q36 -36 82 -9q81 46 83 199q1 154 -95 265t-224 156l-4 -9q100 -121 100 -282q0 -93 -50 -149t-117 -56
l-74 12q-49 0 -49 -53z" />
    <glyph glyph-name="equal" unicode="=" horiz-adv-x="1275" 
d="M100 304q0 13 2 13l537 -6l535 6q2 0 2 -13t-7 -13l-530 6l-533 -6q-6 0 -6 13zM100 618q0 14 2 13l537 -6l535 6q2 1 2 -13t-5 -14l-532 6l-535 -6q-4 0 -4 14z" />
    <glyph glyph-name="greater" unicode="&#x3e;" horiz-adv-x="1638" 
d="M682 201q0 162 100 282l-4 9q-129 -45 -224 -156t-95 -264t84 -200q47 -26 82 9q2 0 8 -6q-39 -76 -121 -76t-134 69t-52 171q0 258 213 387q-47 100 -116 152t-133 51q-64 0 -100 -36t-34 -83q0 -47 24 -78q26 27 52 27q26 -1 44 -19t18 -49t-23 -51t-67 -20t-81 48
q-37 50 -37 135t55 148t139 63t156 -76q72 -77 113 -208q94 53 233 82v8q-68 16 -118 94t-52 152q0 74 35 120t78 65q113 50 113 89q0 40 -28 54t-62 -7q-2 -2 -7 5q-2 4 0 6q63 78 155 78t135 -56q44 -56 44 -139q0 -84 -87 -218t-97 -218l8 -2q51 102 141 155t177 54
q131 0 241 -106t111 -240q0 -64 -31 -125q0 -2 -6 -2t-6 2q8 41 8 49q0 49 -25 76q-25 26 -59 26t-58 -37q-26 -37 -58 -73t-77 -37q-45 0 -107 48t-128 95t-119 47l-4 -6q99 -76 157 -172t58 -178q0 -166 -182 -252l-8 8q49 47 49 80q0 53 -49 53l-74 -12q-68 0 -118 55
t-50 150z" />
    <glyph glyph-name="question" unicode="?" horiz-adv-x="698" 
d="M168 38q0 28 20 50t50 23q30 0 52 -22q22 -21 22 -49t-22 -50q-21 -22 -51 -23q-30 0 -51 22q-20 21 -20 49zM213 371q0 -35 14 -72q-2 0 -10 -6q-45 102 -45 164q0 129 162 200l194 88q68 31 68 82t-88 78l-184 53q-98 29 -144 70q-45 42 -45 100t29 127q6 0 12 -6
q-6 -18 -6 -37q0 -40 48 -76t176 -72t182 -94q52 -58 52 -154t-48 -152q-50 -56 -193 -113q-174 -70 -174 -180z" />
    <glyph glyph-name="at" unicode="@" horiz-adv-x="1296" 
d="M690 778q-68 0 -131 -108t-63 -214q0 -107 53 -108q31 0 80 42t86 95l51 265q-39 28 -76 28zM866 266q-158 0 -153 180l-6 3q-45 -70 -107 -122q-62 -53 -101 -53q-38 0 -67 39t-29 124t73 183t155 155q82 59 117 59t57 -17q62 79 67 74q2 -2 2 -4q-57 -256 -75 -387
q-31 -201 94 -201q104 0 163 86q58 86 58 217q0 209 -128 360t-345 150q-186 0 -316 -161t-130 -396t143 -391t367 -156q166 0 313 115q6 4 10 -4t2 -8q-166 -141 -398 -141t-377 154q-144 155 -144 368q0 252 167 454t398 201q232 0 372 -135q140 -136 140 -318t-102 -305
t-220 -123z" />
    <glyph glyph-name="A" unicode="A" horiz-adv-x="1406" 
d="M668 1110l-246 -573h446zM1141 0q-139 0 -275 -16q-2 0 -1 5t3 7q88 8 120 21t32 57t-78 262l-63 174h-469l-74 -174q-88 -211 -88 -255q0 -43 32 -61t107 -24q2 -2 3 -7t-1 -5q-123 16 -193 16t-204 -16q-2 0 -1 5t3 7q98 8 154 76t141 260l432 989q2 2 6 2t6 -2
l369 -989q42 -109 64 -161q54 -124 131 -156q40 -15 106 -19q2 -2 2 -7t-2 -5q-123 16 -262 16z" />
    <glyph glyph-name="B" unicode="B" horiz-adv-x="1251" 
d="M541 693q0 5 2 5q190 0 272 62t82 213q0 293 -307 293q-53 0 -88 -6q-20 -90 -21 -310v-626q1 -160 13 -214q12 -53 36 -67q42 -25 129 -27q178 0 265 76q86 76 86 249t-118 264t-349 83q-2 0 -2 5zM1159 370q0 -156 -131 -268t-348 -112l-250 10q-160 0 -295 -16
q-2 0 -1 5t3 7q57 6 80 8t53 15t36 29t18 64q12 47 12 222v722q0 40 -5 80t-8 66t-40 58q-27 20 -88 25q-62 5 -62 9t2 4q117 -14 260 -14l244 8q172 0 286 -78t113 -217q0 -96 -90 -183t-225 -109v-5q197 2 317 -86t119 -244z" />
    <glyph glyph-name="C" unicode="C" horiz-adv-x="1443" 
d="M844 -43q-310 0 -512 194q-202 195 -201 465q0 270 214 490t525 219q123 0 251 -39t167 -69q25 -14 33 -275q0 -2 -4 -2t-4 2q-31 142 -155 246t-348 104t-374 -162t-149 -440q0 -326 178 -513t416 -187q168 0 298 98t142 256h8l2 -2q-12 -260 -35 -276
q-142 -109 -452 -109z" />
    <glyph glyph-name="D" unicode="D" horiz-adv-x="1615" 
d="M723 1260q-162 0 -221 -9q-20 -117 -21 -301v-690q0 -86 7 -127q8 -41 46 -69t97 -33q59 -6 182 -6q227 0 376 153q148 154 148 418q0 324 -162 494q-163 170 -452 170zM1487 660q0 -280 -205 -474q-205 -196 -524 -196l-299 10q-188 0 -324 -16q-2 0 -1 5t3 7q59 6 82 8
t53 16t36 28q28 58 28 127v881q0 40 -5 80t-8 66t-40 58q-27 20 -88 25q-62 5 -62 9t2 4q117 -14 342 -14l307 8q338 0 520 -176t183 -456z" />
    <glyph glyph-name="E" unicode="E" horiz-adv-x="1241" 
d="M336 334v614q0 246 -26 282q-9 13 -36 28q-27 16 -81 24t-66 8t-12 4t2 4q203 -14 473 -14t454 14q-10 -47 -10 -98t4 -84l-12 2q-12 76 -74 103t-256 26h-202q-12 -88 -13 -289v-276h219q179 0 209 43q12 16 21 53q4 2 8 2t4 -2q-16 -60 -16 -126t4 -99q-2 -4 -10 2
q-8 41 -18 58q-26 42 -202 42h-219v-338q0 -180 29 -230t108 -50h105q121 0 187 6t103 29q38 24 50 50t24 85h13q-33 -198 -53 -213q-8 -6 -29 -6l-348 12q-319 0 -553 -16q-6 0 2 12q137 12 166 33q43 29 49 151q2 47 2 154z" />
    <glyph glyph-name="F" unicode="F" horiz-adv-x="1187" 
d="M1076 1071q-5 0 -5 2q-23 98 -43 123q-43 47 -231 51h-299q-16 -76 -17 -289v-284h152q225 0 257 42q15 19 19 29t11 43q10 2 12 0q-18 -66 -18 -144t6 -107q-4 -2 -13 2q-8 45 -26 65q-37 41 -248 41h-152v-420q0 -33 4 -79t5 -59q2 -13 18 -37t22 -26t38 -12t49 -11
t69 -5l4 -12h-2q-127 16 -263 16t-271 -16q-2 0 -1 5t3 7q41 4 57 5t42 9t34 14t21 27q14 21 16 39q10 78 10 137v721q0 246 -26 282q-9 14 -36 30q-26 16 -54 19t-62 7t-39 4q-4 2 -2 8q207 -14 555 -14l348 10q31 0 41 -32q6 -27 11 -99t7 -82t-3 -10z" />
    <glyph glyph-name="G" unicode="G" horiz-adv-x="1525" 
d="M1309 280q0 -154 20 -184q-250 -139 -485 -139q-326 0 -520 191t-193 471q0 280 212 493t527 213q123 0 254 -44t172 -77q23 -18 11 -266q-2 -4 -11 -2q-10 137 -141 247t-332 109q-237 0 -387 -163t-149 -441q0 -328 170 -513t405 -185q102 0 171 24t88 46t28 44
q14 47 14 146q0 98 -6 152t-38 87q-31 33 -67 42t-126 20q-2 0 -2 5t2 5q162 -14 292 -14t287 14q2 0 2 -5t-2 -5q-137 -17 -167 -67t-29 -204z" />
    <glyph glyph-name="H" unicode="H" horiz-adv-x="1742" 
d="M1357 0q-140 0 -278 -16q-2 0 -1 5t3 7q51 6 71 8t47 15q28 13 35 31q26 64 28 131t2 153v303h-783v-303q1 -173 11 -232t32 -72q48 -28 135 -34q3 -2 3 -7t-3 -5q-123 16 -264 16t-278 -16q-6 0 2 12q137 12 166 33q43 29 49 151q2 47 2 154v614q0 246 -26 282
q-9 14 -36 30q-26 16 -54 19t-62 7t-39 4q-4 2 -2 8q121 -14 279 -14t263 14q4 -2 3 -8q-47 -4 -73 -8q-25 -4 -49 -19t-33 -31q-26 -48 -26 -284v-282h783v282q0 224 -22 264q-11 20 -19 36q-16 31 -142 42q-4 2 -2 8q121 -14 278 -14t267 14q2 0 2 -4t-32 -7t-61 -5
t-59 -19t-39 -29t-17 -58q-8 -47 -9 -83v-908q0 -36 8 -81q7 -45 17 -56t40 -26q30 -14 58 -18t90 -8l4 -12h-2q-127 16 -267 16z" />
    <glyph glyph-name="I" unicode="I" horiz-adv-x="876" 
d="M444 0q-142 0 -278 -16q-2 0 -1 5t3 7q131 11 146 29q36 31 39 56t8 66t6 80v829q1 40 -5 80t-8 58t-17 38t-23 28q-26 20 -148 30q-2 0 -2 4t2 4q116 -14 276 -14t267 14q2 0 2 -4q-1 -4 -29 -6t-56 -5t-55 -20t-35 -31t-16 -62t-8 -88v-882q0 -38 8 -87t16 -61t34 -29
q26 -15 54 -19t83 -8q2 -2 3 -7t-1 -5q-123 16 -265 16z" />
    <glyph glyph-name="J" unicode="J" horiz-adv-x="804" 
d="M512 1058v-724q0 -301 -108 -471t-381 -283q-2 -2 -5 2q-2 8 0 8q209 90 279 244t70 500v722q1 40 -5 80t-8 58t-17 38t-23 28q-26 20 -148 30q-2 0 -2 4t2 4q116 -14 274 -14t269 14q2 0 2 -4q-1 -4 -29 -6t-56 -5t-55 -20t-35 -31t-16 -62t-8 -112z" />
    <glyph glyph-name="K" unicode="K" horiz-adv-x="1411" 
d="M336 948q0 246 -26 282q-9 13 -36 28q-27 16 -81 24t-66 8t-12 4t2 4q117 -14 277 -14t265 14q4 -2 3 -8q-47 -4 -73 -8q-25 -4 -49 -19t-33 -31q-26 -48 -26 -284v-614q1 -173 11 -232t32 -72q48 -28 135 -34q2 -2 2 -7t-2 -5q-123 16 -265 16t-277 -16q-6 0 2 12
q45 4 57 5t45 7t38 8t25 14t23 21q2 8 12 31t11 40l6 124v702zM1210 0q-152 0 -290 -16q-2 0 -1 5t3 7q84 8 108 22q40 24 -65 136q-105 113 -181 184l-268 276l295 330q185 201 212 253q28 51 3 67q-26 16 -68 21t-43 9q0 4 3 4q80 -10 204 -10t199 10q4 -2 2 -8
q-117 -10 -191 -65t-168 -158t-106 -115l-233 -252l370 -370q158 -158 209 -205q129 -119 279 -129q2 -2 3 -7t-1 -5q-123 16 -275 16z" />
    <glyph glyph-name="L" unicode="L" horiz-adv-x="1144" 
d="M336 334v751q0 94 -28 149q-8 16 -38 30t-52 17t-81 9q-4 2 -2 8q121 -14 277 -14t266 14q4 -2 2 -8q-41 -4 -79 -7q-67 -6 -93 -55q-27 -50 -27 -175v-719q0 -236 47 -273q25 -18 84 -18h113q280 0 321 51q19 25 35 94q10 2 11 0q-20 -177 -43 -194q-8 -6 -29 -6
l-330 12q-338 0 -573 -16q-6 0 2 12q137 14 166 33q43 29 49 145q2 45 2 160z" />
    <glyph glyph-name="M" unicode="M" horiz-adv-x="1882" 
d="M1490 0q-152 0 -265 -16q-6 0 2 12q31 4 60 6t44 10t29 18t17 21t11 31t10 40q1 20 3 55q2 34 1 70t-1 87l-12 772l-7 2l-481 -1128h-8l-2 2l-492 1069l-6 -2l-12 -715q-4 -221 23 -274q28 -52 169 -64v-12h-2q-123 16 -220 16t-212 -16q-6 0 2 12q139 14 169 63t34 275
l14 719q2 113 -54 169t-179 68q-2 0 -2 5t2 5q115 -16 328 -16l501 -1102l312 740q119 293 137 370q166 -18 344 8q4 -4 0 -10q-47 -4 -80 -7t-85 -26q-11 -5 -24 -29q-12 -24 -18 -44t-6 -89t2 -145l12 -616q4 -217 22 -265t99 -63q31 -4 100 -10q3 0 3 -6t-3 -6
q-127 16 -279 16z" />
    <glyph glyph-name="N" unicode="N" horiz-adv-x="1685" 
d="M1397 948v-614q0 -238 16 -375q0 -6 -12 6l-1006 1088v-719q0 -220 29 -274t172 -64q2 -2 2 -7t-2 -5q-123 16 -214 16t-226 -16q-2 0 -1 5t3 7q103 10 139 32q37 23 45 65q16 84 16 241l2 702q0 72 -87 158t-164 96q-2 0 -3 4q0 4 3 4q115 -14 274 -14l977 -1048v712
q0 171 -14 227t-41 73q-51 32 -156 42q-2 0 -2 4t2 4q117 -14 229 -14t221 14q4 -2 3 -8q-143 -12 -175 -67q-30 -56 -30 -275z" />
    <glyph glyph-name="O" unicode="O" horiz-adv-x="1693" 
d="M819 1292q-237 0 -387 -163t-149 -441q0 -326 177 -512q176 -186 414 -186t389 163t150 441q0 166 -51 302q-93 249 -327 350q-105 46 -216 46zM833 -43q-307 0 -505 198t-197 469q0 271 211 486t518 215t506 -198q199 -199 199 -469t-212 -486q-213 -215 -520 -215z" />
    <glyph glyph-name="P" unicode="P" horiz-adv-x="1208" 
d="M575 592h-32q-2 0 -2 5t2 7q205 2 298 78t93 246t-86 254t-250 84q-23 0 -96 -13q-20 -90 -21 -303v-750q0 -40 8 -87q9 -47 17 -61t35 -30t55 -20t82 -8q2 0 2 -5t-2 -5q-124 16 -266 16t-277 -16q-2 0 -2 5t2 5q61 6 81 9t53 17q32 14 38 28q29 70 29 132v904
q0 82 -28 147q-5 13 -37 29t-52 18t-82 8q-2 2 -3 7t1 5q100 -14 260 -14l256 8q195 0 314 -88t119 -248t-139 -262t-370 -102z" />
    <glyph glyph-name="Q" unicode="Q" horiz-adv-x="1693" 
d="M819 1292q-237 0 -387 -163t-149 -441q0 -326 177 -512q176 -186 414 -186t389 163t150 441q0 166 -51 302q-93 249 -327 350q-105 46 -216 46zM2275 -541q199 0 404 58v-11l-2 -2q-317 -92 -600 -92t-584 132t-680 413q-295 4 -489 202t-193 467q0 269 211 484t518 215
t506 -198q199 -197 199 -449t-162 -452t-416 -253q377 -254 683 -384t605 -130z" />
    <glyph glyph-name="R" unicode="R" horiz-adv-x="1374" 
d="M598 1274q-49 0 -98 -6q-18 -61 -19 -299v-353q39 -2 90 -2q418 0 418 295q0 365 -391 365zM588 586q-88 0 -107 2v-388q0 -38 8 -87q9 -49 17 -61t35 -29q27 -15 55 -19t82 -8q2 -2 2 -7t-2 -5q-124 16 -266 16t-277 -16q-2 0 -1 5t3 7q129 11 148 30q6 5 22 25
q15 19 17 37t7 59t5 79v724q0 195 -23 258t-108 64q-29 0 -76 -10q-2 2 0 8q100 33 496 33q229 0 371 -75t143 -231q0 -98 -68 -199t-211 -163q84 -240 288 -456t370 -216v-8l-2 -2q-458 0 -681 406q-60 110 -96 241q-63 -14 -151 -14z" />
    <glyph glyph-name="S" unicode="S" horiz-adv-x="1042" 
d="M911 358q-1 -166 -113 -284t-296 -117q-184 0 -338 135q-2 18 0 41l8 92q6 70 6 127q0 2 5 2t5 -2q10 -168 100 -265t247 -97q117 0 197 66t81 190q0 80 -44 146t-111 108q-66 43 -144 91t-144 94t-111 117q-44 71 -44 159q0 141 109 253t262 111q153 0 260 -63
q20 -12 20 -209q0 -2 -4 -2t-6 2q-18 117 -91 178t-182 61t-185 -62t-74 -150q1 -154 152 -253q66 -41 142 -89t141 -94t109 -120t43 -166z" />
    <glyph glyph-name="T" unicode="T" horiz-adv-x="1411" 
d="M1350 1201q0 -77 6 -120l-13 2q-10 53 -30 82q-46 66 -291 68h-223v-1033q0 -38 8 -87t16 -61t35 -29q26 -15 54 -19t83 -8q2 -2 2 -7t-2 -5q-123 16 -264 16t-278 -16q-2 0 -1 5t3 7q128 11 155 36t30 49q3 25 8 66t5 80v1006h-233q-184 0 -248 -34t-82 -116l-10 -4
q12 69 12 143t-12 140q0 2 12 -2q8 -41 26 -55q36 -29 302 -29h602q267 0 306 28q22 16 30 56q4 0 10 2q-18 -84 -18 -161z" />
    <glyph glyph-name="U" unicode="U" horiz-adv-x="1646" 
d="M1356 967v-512q0 -215 -133 -357t-371 -141q-238 0 -393 138q-154 138 -154 374v616q0 91 -27 149q-7 16 -38 30t-53 17t-81 9q-4 2 -2 8q120 -14 278 -14t265 14q4 -2 2 -8q-41 -4 -79 -7t-59 -18q-40 -27 -50 -80t-10 -109v-566q0 -236 132 -358q131 -122 325 -123
t302 113t109 333v492q0 111 -5 163t-30 92q-26 38 -62 49t-112 19q-2 0 -2 4t2 4q116 -14 230 -14t221 14q4 -2 2 -8q-143 -12 -175 -66t-32 -257z" />
    <glyph glyph-name="V" unicode="V" horiz-adv-x="1452" 
d="M768 -41q-4 0 -6 4l-406 987q-84 205 -116 250q-55 76 -179 88q-6 2 -11 2t-5 4t2 4q109 -14 265 -14t274 14q2 0 2 -4t-2 -4q-86 -10 -118 -24t-32 -66t82 -254l311 -770l330 770q88 203 88 252q0 50 -34 68t-111 24q-2 0 -2 4t2 4q110 -14 194 -14t201 14q4 -2 2 -8
q-107 -12 -153 -70t-140 -270l-432 -987q-2 -4 -6 -4z" />
    <glyph glyph-name="W" unicode="W" horiz-adv-x="2050" 
d="M35 1294q0 4 2 4q100 -14 264 -14t272 14q2 0 2 -4t-2 -4q-83 -6 -119 -25t-36 -73t74 -246l294 -758l310 727l-13 35q-70 203 -118 267q-49 63 -164 73q-2 0 -2 4t2 4q100 -14 272 -14t281 14q4 -2 2 -8q-100 -8 -138 -30t-38 -75q0 -54 61 -239l252 -762l297 772
q74 193 74 239q0 47 -32 67t-112 28q-2 0 -2 4t2 4q100 -14 188 -14t199 14q2 0 2 -4t-2 -4q-92 -8 -142 -76t-128 -264l-401 -989h-9l-2 2l-309 901l-387 -903h-8l-2 2l-385 987q-80 206 -130 268t-167 72q-2 0 -2 4z" />
    <glyph glyph-name="X" unicode="X" horiz-adv-x="1454" 
d="M1169 0q-160 0 -274 -16q-2 0 -1 5t3 7q109 12 120 55t-97 221l-199 316l-174 -250q-152 -217 -162 -268t57 -66q27 -4 68 -8q2 -2 3 -7t-1 -5q-124 16 -228 16t-218 -16q-2 0 -3 5q0 5 3 7q147 14 209 63t219 271l204 291l-186 286q-160 246 -227 307q-68 61 -213 76
q-2 0 -2 4t2 4q118 -14 284 -14t277 14q2 0 2 -4t-2 -4q-117 -10 -123 -61q-8 -53 119 -252l151 -236l144 205q86 121 120 179q35 57 38 97t-25 50q-29 10 -101 18q-2 0 -2 4t2 4q118 -14 228 -14t219 14q2 0 2 -4t-2 -4q-147 -12 -211 -64t-217 -272l-172 -245l213 -334
q154 -242 224 -305t214 -74q2 -2 3 -7t-1 -5q-127 16 -287 16z" />
    <glyph glyph-name="Y" unicode="Y" horiz-adv-x="1497" 
d="M829 230q1 -123 19 -161q18 -39 30 -43t38 -14q27 -11 110 -16q2 -2 2 -7t-2 -5q-124 16 -266 16t-277 -16q-2 0 -1 5t3 7q49 6 65 7t47 9q32 8 37 14q36 40 38 61t8 61t5 79t-1 107l-2 289l-178 284q-150 237 -222 303t-202 80q-4 2 -2 8q118 -14 276 -14t264 14
q4 -2 3 -8q-72 -6 -102 -22q-29 -16 -19 -66t46 -111q36 -62 120 -192l145 -221l184 268q154 224 160 276t-125 68q-4 2 -2 8q116 -14 218 -14t212 14q2 0 2 -4t-2 -4q-130 -14 -196 -70t-213 -266l-220 -315v-409z" />
    <glyph glyph-name="Z" unicode="Z" horiz-adv-x="1372" 
d="M127 -11q0 5 4 9l918 1249h-512q-152 0 -239 -23q-51 -14 -78 -84q-7 -22 -15 -69l-12 -2q8 33 8 103t-8 126q190 -14 497 -14t553 14q2 0 2 -4t-2 -8l-911 -1239h547q144 0 187 8q42 8 72 15t55 36q25 30 32 72q8 43 14 86q10 0 10 -2q-1 -47 -13 -129q-12 -81 -21 -107
t-16 -32t-25 -6l-418 12q-342 0 -625 -16q-4 0 -4 5z" />
    <glyph glyph-name="bracketleft" unicode="[" horiz-adv-x="696" 
d="M250 1432q356 0 514 59q2 2 4 -2q0 -4 -2 -8q-82 -78 -379 -109v-1831q303 -31 377 -108q4 -7 0 -11q-158 59 -514 60v1950z" />
    <glyph glyph-name="backslash" unicode="\" horiz-adv-x="638" 
d="M664 -678l-658 2128q-2 2 5 5t9 -1l656 -2128q2 -2 -4 -4t-8 0z" />
    <glyph glyph-name="bracketright" unicode="]" horiz-adv-x="696" 
d="M467 1432v-1950q-358 -1 -516 -60q-2 -2 -4 3q0 6 2 8q74 78 381 108v1831q-299 31 -381 109q-2 8 2 10q158 -59 516 -59z" />
    <glyph glyph-name="asciicircum" unicode="^" horiz-adv-x="1372" 
d="M983 -37q-158 0 -297 47q-141 -47 -299 -47q-6 0 2 12q104 9 138 67t53 218l24 209l-205 -23q-160 -18 -218 -52t-66 -138l-9 -4l-2 2q0 158 46 293q-45 133 -46 293q2 2 11 -2q8 -104 65 -138t219 -53l205 -22l-24 209q-18 160 -52 219t-139 67l-4 8l2 2q147 0 299 -47
q147 47 297 47q4 -2 -2 -10q-104 -8 -139 -68t-51 -218l-23 -209l205 22q160 16 217 50t65 139q8 6 15 4q0 -145 -47 -293q47 -152 47 -293q-3 -4 -15 4q-8 104 -65 137t-217 51l-203 23l23 -209q16 -160 50 -218t140 -67q4 -12 0 -12z" />
    <glyph glyph-name="underscore" unicode="_" horiz-adv-x="1290" 
d="M1159 8q0 -16 -4 -16l-510 6l-510 -6q-8 0 -6 16t4 17l512 -7l512 7q2 -1 2 -17z" />
    <glyph glyph-name="grave" unicode="`" horiz-adv-x="432" 
d="M379 948l-330 355q-4 6 5 18q10 12 24 19t18 1l289 -391v-2q-4 -2 -6 0z" />
    <glyph glyph-name="a" unicode="a" horiz-adv-x="827" 
d="M215 150q0 -117 137 -117q82 0 191 86q0 12 4 94l6 123q-199 -14 -269 -62t-69 -124zM504 825q76 0 125 -54t51 -148q0 -43 -6 -244t-4 -258q4 -145 188 -68q10 0 2 -6q-106 -84 -192 -84q-53 0 -85 36t-34 105q-141 -135 -295 -135q-78 0 -124 45t-46 117q0 193 469 221
q4 82 4 216t-59 165q-42 25 -108 25t-106 -24t-40 -48l10 -63q0 -27 -38 -49t-77 -22t-39 30q4 61 140 152t264 91z" />
    <glyph glyph-name="b" unicode="b" horiz-adv-x="1005" 
d="M508 735q-120 0 -227 -63v-549q76 -92 256 -92q125 0 191 86t67 259q0 173 -83 266q-84 93 -204 93zM449 -31q-53 1 -147 21t-152 10q-10 2 -7 16q14 39 15 246v912q0 106 -30 133t-114 -2q2 6 4 6q205 113 269 172l8 -6q-14 -57 -14 -295v-486q172 111 313 111
q140 0 238 -110q98 -109 98 -277t-142 -310t-339 -141z" />
    <glyph glyph-name="c" unicode="c" horiz-adv-x="802" 
d="M447 -31q-167 0 -269 111q-102 110 -102 284t151 318q152 143 367 143q61 0 104 -18t43 -39q0 -28 -19 -64t-40 -36q-20 0 -98 40t-140 40q-123 0 -181 -76t-58 -254t87 -278q87 -101 217 -101t247 90q2 -8 0 -10q-142 -150 -309 -150z" />
    <glyph glyph-name="d" unicode="d" horiz-adv-x="1034" 
d="M453 756q-117 0 -185 -85t-68 -258t96 -271q95 -98 218 -99q84 0 209 88v502q-119 123 -270 123zM772 -35q-20 0 -34 43q-13 43 -15 96q-164 -135 -303 -135t-242 111q-102 112 -102 282t136 308t331 137q84 0 182 -25v392q0 106 -30 133t-113 -2q0 2 4 6
q205 113 268 172q2 0 8 -6q-14 -57 -14 -295v-1026q0 -80 36 -98t136 12q2 -2 2 -5t-2 -4q-176 -96 -248 -96z" />
    <glyph glyph-name="e" unicode="e" horiz-adv-x="854" 
d="M448 791q-90 0 -151 -70t-82 -193l447 13q-4 94 -64 172t-150 78zM451 -31q-166 0 -271 112q-104 112 -104 289t131 316t279 139t226 -82q79 -82 79 -180q-1 -23 -7 -43l-571 -12q-6 -43 -6 -78q0 -197 92 -295t227 -98t256 90v-10q-53 -63 -146 -105t-185 -43z" />
    <glyph glyph-name="f" unicode="f" horiz-adv-x="622" 
d="M49 758v6q106 10 178 31l2 88q7 254 135 422t310 168q53 0 103 -26q50 -27 50 -51q-1 -24 -25 -63t-44 -39t-94 43t-125 43q-109 0 -149 -96t-40 -362v-134h117q137 0 170 9q10 -1 6 -31t-8 -31q-68 6 -141 6h-144v-555q0 -114 37 -148t176 -40q2 0 2 -5t-2 -5
q-87 12 -249 12t-248 -12q-4 2 2 10q114 12 138 40t23 148v555l-176 2q-4 0 -4 15z" />
    <glyph glyph-name="g" unicode="g" horiz-adv-x="880" 
d="M172 -287q0 -86 77 -148q77 -63 225 -63t234 65q85 65 85 154q-1 89 -65 138t-175 47l-234 -6q-147 -72 -147 -187zM464 244q179 0 179 254q0 130 -65 217q-66 86 -160 86q-188 0 -189 -242q0 -147 74 -231t161 -84zM891 -186q0 -154 -158 -262t-331 -109q-173 0 -267 69
q-94 70 -94 152t68 144t196 96q-70 29 -121 85q-51 55 -51 81t36 42t94 35q58 18 85 33q-242 115 -242 324q0 129 98 226t249 97q43 0 115 -12t161 -12q90 0 123 8q16 4 11 -38t-15 -44q-68 6 -121 6h-43q82 -93 82 -197t-65 -188t-166 -121q-261 -92 -261 -129
q0 -38 38 -64t116 -24l152 4q164 4 238 -52t73 -150z" />
    <glyph glyph-name="h" unicode="h" horiz-adv-x="1026" 
d="M811 0q-125 0 -211 -12q-6 0 2 12q88 8 113 39t24 147v308q0 139 -37 201t-120 63q-50 0 -106 -23t-169 -92v-457q0 -114 24 -146t111 -40l4 -12h-2q-86 12 -210 12t-211 -12v12q113 10 139 38t24 148v988q0 106 -29 133q-30 27 -114 -2q0 4 4 6q205 113 268 172
q3 3 7 -4q-12 -47 -13 -297l-2 -523q213 166 365 166q188 0 188 -241v-398q0 -118 25 -148t135 -38q4 0 2 -12q-86 12 -211 12z" />
    <glyph glyph-name="i" unicode="i" horiz-adv-x="522" 
d="M275 0q-137 0 -224 -12q-4 2 2 10q113 12 137 40t25 148v346q0 109 -29 135t-112 -3q0 2 2 4q203 117 268 180l8 -6q-14 -59 -14 -301v-355q0 -124 24 -150t136 -38q2 0 2 -5t-2 -5q-86 12 -223 12zM383 1205q1 -33 -23 -57t-57 -24t-55 24t-21 56q0 32 23 57
q22 25 54 25t56 -24t23 -57z" />
    <glyph glyph-name="j" unicode="j" horiz-adv-x="507" 
d="M338 541v-543q0 -123 -13 -201q-13 -77 -57 -145t-95 -112q-50 -44 -155 -124q-2 -2 -5 3t-1 8q127 135 165 239t38 332v534q0 106 -30 134t-113 -2v4q205 115 272 180l8 -6q-14 -57 -14 -301zM381 1206q1 -34 -23 -58t-56 -24t-54 24t-23 56q0 32 23 58q24 26 56 26
t54 -24t23 -58z" />
    <glyph glyph-name="k" unicode="k" horiz-adv-x="940" 
d="M778 0q-118 0 -205 -12q-6 0 7 12q49 6 66 18q40 28 -71 144l-229 246l211 202q180 172 -22 193q0 2 -3 8q76 -8 195 -8t176 8q2 0 2 -4t-2 -4q-109 -8 -293 -182l-170 -160l308 -320q129 -133 233 -141q2 0 2 -6t-2 -6q-85 12 -203 12zM234 0q-124 0 -211 -12v10
q113 12 139 40t24 148v988q0 106 -29 133q-30 27 -114 -2q0 6 2 6q199 106 270 172q3 3 7 -4q-14 -55 -15 -297v-996q0 -114 24 -146t111 -40l4 -12h-2q-86 12 -210 12z" />
    <glyph glyph-name="l" unicode="l" horiz-adv-x="495" 
d="M246 0q-137 0 -223 -12q-4 2 2 10q113 12 137 40t24 148v988q0 106 -29 133q-30 27 -114 -2q2 6 4 6q205 113 268 172l9 -6q-14 -57 -15 -295v-996q0 -124 25 -150t135 -38q2 0 2 -5t-2 -5q-86 12 -223 12z" />
    <glyph glyph-name="m" unicode="m" horiz-adv-x="1572" 
d="M1344 0q-112 0 -199 -12q-6 0 2 12q88 8 113 39t24 147v295q0 145 -36 205t-113 59q-109 0 -267 -108q2 -16 2 -53v-398q0 -116 25 -148t115 -38q2 0 2 -6t-2 -6q-86 12 -200 12t-200 -12q-2 0 2 12q88 8 113 38t25 148v308q0 150 -35 206t-114 58q-79 0 -265 -115v-457
q0 -114 24 -146t111 -40l4 -12h-2q-87 12 -211 12t-211 -12v12q113 10 139 38t25 148v344q0 109 -29 136t-112 -2q-2 0 -2 3t2 3q121 66 245 178q6 6 7 -9q2 -15 4 -45t4 -72t4 -63q217 166 336 166q156 0 194 -174q203 164 344 164q193 0 193 -244v-385q-1 -116 23 -148
t114 -38q2 0 2 -6t-2 -6q-86 12 -198 12z" />
    <glyph glyph-name="n" unicode="n" horiz-adv-x="1054" 
d="M839 0q-125 0 -210 -12q-6 0 2 12q89 8 113 39t24 147v308q0 143 -34 203t-124 61q-51 0 -106 -23t-168 -92v-457q0 -114 24 -146t111 -40l4 -12h-2q-87 12 -211 12t-211 -12v12q113 10 139 38t25 148v344q0 109 -29 136t-112 -2q-2 0 -2 3t2 3q121 66 245 178q6 6 7 -9
q2 -15 4 -45t4 -72t4 -63q233 166 362 166q188 0 189 -241v-398q1 -118 25 -148t135 -38q4 0 2 -12q-87 12 -212 12z" />
    <glyph glyph-name="o" unicode="o" horiz-adv-x="997" 
d="M477 795q-133 1 -201 -95t-67 -235q0 -215 88 -339t222 -124t202 94t67 234q0 215 -89 340t-222 125zM924 406q0 -172 -121 -304t-309 -133q-188 0 -304 123q-114 123 -114 297t120 305t308 131t304 -123q116 -124 116 -296z" />
    <glyph glyph-name="p" unicode="p" horiz-adv-x="1021" 
d="M536 725q-106 0 -225 -70v-546q135 -76 253 -76t185 95t67 257t-88 251q-86 89 -192 89zM455 -31q-74 0 -144 21v-324q0 -120 34 -148t181 -32q2 0 2 -6t-2 -6q-150 10 -268 2q-135 -4 -211 -17q-4 2 2 11q100 14 120 41q19 27 19 151l-2 381q-8 4 -30 17t-33 20l63 100
l2 350q0 109 -28 136q-29 27 -113 -2q0 2 2 4q133 76 248 184q4 4 7 -12t4 -82t3 -88q158 137 299 137q140 0 240 -111q100 -110 100 -272t-146 -308t-349 -147z" />
    <glyph glyph-name="q" unicode="q" horiz-adv-x="1005" 
d="M451 748q-115 0 -181 -77t-66 -253t99 -277q98 -102 217 -102t207 67v490q-102 152 -276 152zM729 -336v420q-123 -115 -293 -115q-133 -1 -247 101q-113 102 -113 279t134 317t325 141q117 0 221 -68q53 49 100 111q2 2 8 -4q-12 -66 -12 -195v-985q0 -118 29 -148
t159 -34l2 -10l-2 -2q-104 13 -240 6q-136 -6 -212 -19q-8 0 4 13q96 12 117 41q20 29 20 151z" />
    <glyph glyph-name="r" unicode="r" horiz-adv-x="702" 
d="M641 659q-12 0 -59 31t-80 31q-72 0 -164 -115v-420q0 -114 37 -148t176 -40q2 -10 0 -10q-85 12 -249 12t-251 -12q-4 2 2 10q113 12 137 40t25 148v346q0 109 -29 135t-112 -3q0 2 2 4q133 76 246 182l8 -8q8 -70 8 -215q182 221 268 221q33 0 64 -35q30 -35 30 -57
t-24 -60q-24 -37 -35 -37z" />
    <glyph glyph-name="s" unicode="s" horiz-adv-x="694" 
d="M327 -31q-128 0 -229 60q-6 4 -6 221q2 2 8 -2q35 -130 106 -192t159 -62q154 0 153 156q0 95 -140 177q-58 35 -116 69t-98 86q-41 52 -41 130t73 146t186 68t181 -35q18 -10 19 -199h-11q-27 94 -90 153t-127 59t-95 -38q-32 -39 -32 -97q0 -102 138 -173
q57 -31 114 -64t97 -86t40 -121q0 -104 -80 -180t-209 -76z" />
    <glyph glyph-name="t" unicode="t" horiz-adv-x="649" 
d="M383 -31q-92 0 -133 45t-39 144l8 571q-117 0 -128 -1t-12 3t1 6q145 119 274 254q4 -4 4 -6q-14 -139 -16 -197h117q147 0 180 11q14 2 4 -37t-22 -41q-90 8 -136 8h-143l-8 -524q-4 -170 148 -170q70 0 153 20q4 -2 0 -6q-57 -37 -130 -59t-122 -21z" />
    <glyph glyph-name="u" unicode="u" horiz-adv-x="999" 
d="M754 -35q-47 0 -47 195q-186 -190 -334 -191q-97 -1 -155 61t-56 181l6 389q2 88 -20 111t-117 24l-4 4q137 27 247 90q10 -6 11 -10q6 -55 6 -196l-4 -322q-2 -152 34 -206t134 -54t247 131l9 438q1 88 -19 111t-117 29q-2 2 -6 4q139 25 250 84q8 0 11 -34t4 -181
l-5 -467q0 -80 36 -98t136 12q7 -7 0 -9q-59 -33 -137 -65t-110 -31z" />
    <glyph glyph-name="v" unicode="v" horiz-adv-x="851" 
d="M440 -37q-6 0 -8 4l-258 649q-43 106 -84 144t-123 43q-2 0 -2 4t2 4q57 -8 197 -8t217 8q2 0 2 -4t-2 -4q-89 -10 -105 -43t27 -148l189 -473l184 473q40 111 22 146t-106 45q-2 2 -2 8q76 -8 171 -8t152 8q2 0 2 -4t-2 -4q-84 -6 -125 -45q-40 -40 -81 -142l-258 -649
q-3 -4 -9 -4z" />
    <glyph glyph-name="w" unicode="w" horiz-adv-x="1337" 
d="M928 -37q-6 0 -8 4l-222 627l-247 -627q-3 -4 -9 -4t-8 4l-258 649q-43 106 -84 144t-123 43q-2 0 -2 4t2 4q55 -8 197 -8t217 8v-8q-90 -10 -105 -43t27 -148l189 -471l190 486q-35 94 -77 132t-118 44q-2 0 -2 4t2 4q57 -8 197 -8t217 8q2 0 2 -4t-2 -4
q-88 -10 -105 -44t19 -147l164 -467l180 463q41 113 24 149t-108 46q0 2 -2 8q76 -8 172 -8t154 8v-8q-84 -5 -125 -45t-82 -142l-258 -649q-2 -4 -8 -4z" />
    <glyph glyph-name="x" unicode="x" horiz-adv-x="890" 
d="M710 0q-108 0 -190 -12q-8 0 4 12q47 6 66 17q44 27 -35 145q-139 186 -141 186l-125 -158q-72 -88 -65 -135t102 -55q4 0 2 -12q-86 12 -162 12t-158 -12q-2 0 -2 6t2 6q106 6 246 182l145 187l-194 290q-96 135 -199 144q-2 8 0 8q54 -8 180 -8t197 8q2 -2 -2 -8
q-47 -7 -67 -19q-47 -30 36 -145l125 -178l119 149q150 172 -37 193q-2 2 -2 8q72 -8 168 -8t151 8v-8q-109 -10 -245 -185l-140 -174l211 -303q94 -133 199 -141q2 -12 0 -12q-81 12 -189 12z" />
    <glyph glyph-name="y" unicode="y" horiz-adv-x="833" 
d="M240 -524h-66q-78 -2 -129 -13q-2 -1 -1 5t3 8q68 10 129 59q88 68 168 285l53 147l-223 649q-35 106 -79 144t-128 43q-2 0 -2 4t2 4q57 -8 195 -8t213 8v-8q-89 -10 -103 -43t23 -148l164 -495l196 495q41 111 26 146t-106 45q-2 2 -2 8q76 -8 172 -8t154 8v-8
q-86 -5 -128 -45t-81 -142q0 -2 -70 -169t-124 -302q-52 -135 -112 -331t-77 -336q-18 -2 -67 -2z" />
    <glyph glyph-name="z" unicode="z" horiz-adv-x="839" 
d="M447 803q181 0 321 8q2 0 2 -3t-2 -5l-537 -774h291q104 1 173 73t83 183q10 0 10 -2q0 -29 -20 -139t-25 -134q-6 -16 -22 -16l-275 6q-215 0 -303 -5t-88 -3t2 4l543 782h-240q-114 0 -166 -54t-83 -165l-9 2q16 83 33 250q131 -8 312 -8z" />
    <glyph glyph-name="braceleft" unicode="{" horiz-adv-x="634" 
d="M244 -328q0 64 60 204t61 220q0 139 -66 222t-225 96q-6 0 -7 8t7 8q160 14 226 97t65 223q0 80 -61 220q-60 140 -60 204q0 94 87 187t255 152l4 -12l-4 -4q-92 -37 -148 -98t-55 -117q0 -56 41 -200q41 -146 41 -244q0 -145 -86 -258t-252 -156v-4q158 -29 248 -148
t90 -264q0 -98 -41 -244t-41 -200q0 -56 55 -116t148 -97q4 1 4 -9t-4 -10q-168 58 -255 152t-87 188z" />
    <glyph glyph-name="bar" unicode="|" horiz-adv-x="1558" 
d="M260 1313q211 0 369 -167t215 -415h12q78 246 239 408t351 161q72 0 133 -22l-2 -6q-57 10 -92 10q-160 0 -298 -126t-217 -333t-79 -438v-185q0 -38 8 -87t16 -61t34 -29q25 -15 53 -19t83 -8q1 -2 3 -7t-1 -5q-127 16 -267 16t-275 -16q-2 0 -1 5t3 7q128 11 155 36
t30 49q3 25 8 66t5 80v158q0 375 -183 633t-425 258l-71 -6l-3 6q100 37 197 37z" />
    <glyph glyph-name="braceright" unicode="}" horiz-adv-x="634" 
d="M47 -658q0 10 4 9q91 37 147 97t56 116t-41 200q-41 145 -41 244q0 145 90 264t248 148v4q-166 43 -252 156t-86 258q0 98 41 243t41 201t-55 116q-55 62 -148 99q-4 0 -4 8t4 8q168 -59 255 -152t87 -187q0 -64 -60 -204t-61 -220q0 -138 66 -222t225 -98q8 0 7 -8
t-7 -8q-159 -12 -225 -96t-66 -222q0 -80 60 -220t61 -204q0 -94 -87 -188t-255 -152q-4 0 -4 10z" />
    <glyph glyph-name="asciitilde" unicode="~" horiz-adv-x="735" 
d="M244 698q43 0 145 -36q101 -36 153 -37q52 1 85 27t47 100q10 0 10 -4q-8 -84 -51 -134t-103 -51q-60 0 -164 40q-103 40 -167 40q-109 0 -138 -145l-10 6q9 92 61 143t132 51z" />
    <glyph glyph-name="exclamdown" unicode="&#xa1;" horiz-adv-x="479" 
d="M240 485q6 0 6 -2q4 -442 55 -889q2 -18 -36 -31q-39 -13 -77 -13t-38 14q12 444 83 919q1 2 7 2zM237 666q-30 0 -50 20q-19 20 -19 48t20 50t50 23q30 0 51 -22q20 -21 20 -49t-21 -49t-51 -21z" />
    <glyph glyph-name="cent" unicode="&#xa2;" horiz-adv-x="802" 
d="M444 748q-123 0 -181 -76t-58 -238t63 -259t166 -128l43 694q-25 7 -33 7zM76 352q0 160 117 294t290 171l11 121q0 7 11 4q11 -4 11 -8l-8 -115q49 6 98 6t92 -18t43 -39q0 -28 -19 -64t-41 -36t-82 30t-97 41l-45 -698l47 -2q135 0 252 90q2 -8 0 -10
q-129 -138 -303 -152l-9 -102q0 -6 -11 -4t-11 4l8 102q-156 6 -255 116q-99 109 -99 269z" />
    <glyph glyph-name="sterling" unicode="&#xa3;" horiz-adv-x="1333" 
d="M393 -41q121 0 269 -55q148 -56 274 -110t194 -54t101 37t33 91t-39 97t-109 62q-2 2 6 8q80 -13 133 -69t53 -125t-60 -134q-62 -65 -166 -65q-174 0 -384 146t-325 146q-18 0 -35 -8q-49 -139 -116 -212q-67 -72 -129 -72t-96 32t-34 68q0 70 88 140t271 83
q33 86 71 311l-299 -4q-6 0 -6 12t6 11q289 -2 289 -4h12q39 236 58 309q49 199 168 346q69 84 157 137t162 53t112 -36q40 -37 40 -79t-20 -70t-40 -38t-24 -6q-106 123 -205 123q-63 0 -101 -40t-68 -154t-54 -269q-24 -154 -56 -280l353 4q6 0 5 -11t-5 -12l-303 4h-56
q-63 -197 -174 -313l4 -6q20 6 45 6z" />
    <glyph glyph-name="currency" unicode="&#xa4;" horiz-adv-x="1355" 
d="M735 448q0 -10 -4 -10l-358 4q-29 0 -45 -2q41 -210 183 -328q141 -118 297 -118t263 88q106 88 133 221l13 -2q-14 -233 -33 -250q-121 -94 -374 -94t-426 140t-208 343l-162 -2q-8 0 -6 10t4 9l164 -2q-4 25 -4 73t12 113l-172 -2q-4 2 -4 10t4 8l178 -2
q54 199 226 339t401 141q104 0 214 -33t145 -60q25 -20 32 -251q0 -3 -6 -3t-6 3q-25 117 -140 214q-116 97 -292 97t-298 -118t-142 -331h49l360 4q2 0 2 -9t-4 -9l-358 2h-49q-13 -80 2 -186h47l360 2q2 1 2 -9z" />
    <glyph glyph-name="yen" unicode="&#xa5;" horiz-adv-x="1288" 
d="M1217 1100q-166 0 -298 -155t-184 -390l377 4q4 0 4 -11t-4 -11l-381 4q-18 -100 -20 -181l401 5q4 1 4 -11t-4 -12l-401 4v-59q0 -188 26 -235q27 -46 152 -54q2 0 2 -6t-2 -6q-125 14 -261 14t-239 -14q-6 0 2 12q97 11 128 29q30 18 37 52q15 73 15 208v59l-405 -4
q-4 0 -4 11t4 12l405 -5q-4 72 -24 181l-379 -4q-4 0 -4 11t4 11q365 -2 364 -4h13q-51 237 -189 389t-303 152q-2 0 -63 -6l-2 10l2 2q84 29 170 28q186 0 326 -142t194 -367q76 231 210 365t292 134q55 0 114 -18l2 -12q-72 10 -81 10z" />
    <glyph glyph-name="section" unicode="&#xa7;" horiz-adv-x="1024" 
d="M209 735q0 -158 165 -309q72 -66 144 -130q185 -165 223 -290q177 165 22 375q-73 98 -163 172t-181 172t-120 186q-90 -86 -90 -176zM373 -414q-92 0 -167 50t-75 116q1 37 21 63q20 27 39 35t24 7q57 -72 134 -122t145 -50q168 0 168 178q0 118 -193 280
q-80 68 -159 139q-79 72 -135 158t-56 176t48 176t124 140v47q-1 86 71 176q143 180 324 180q59 0 97 -37t38 -79q0 -43 -20 -69q-19 -26 -39 -36t-25 -6q-104 121 -196 121t-128 -43t-36 -119q0 -75 56 -149t137 -143t162 -141t137 -160q56 -89 57 -177q-1 -178 -181 -311
q4 -29 5 -43q0 -90 -80 -191q-133 -166 -297 -166z" />
    <glyph glyph-name="dieresis" unicode="&#xa8;" horiz-adv-x="858" 
d="M245 1190q33 0 57 -25t24 -57t-24 -56t-58 -24q-35 0 -59 24q-23 24 -23 56t24 56q24 26 59 26zM615 1028q-33 0 -57 24t-24 56t26 56q24 26 58 26t57 -25t23 -57t-24 -56t-59 -24z" />
    <glyph glyph-name="copyright" unicode="&#xa9;" horiz-adv-x="1382" 
d="M712 272q-128 0 -217 79t-89 192t92 201t225 90q51 0 103 -16t66 -28q14 -10 19 -128q-2 -2 -8 2q-37 154 -198 153q-98 0 -154 -65q-55 -66 -55 -193t66 -200t165 -72q70 0 120 43t60 112l6 2q-4 -123 -14 -129q-59 -43 -187 -43zM690 1122q-236 0 -402 -167t-165 -403
q0 -236 166 -404q165 -166 401 -166t404 166t168 403q0 235 -168 403t-404 168zM691 -31q-241 0 -411 171t-169 412q0 241 170 412q171 171 411 171t411 -171t171 -412t-171 -412t-412 -171z" />
    <glyph glyph-name="ordfeminine" unicode="&#xaa;" horiz-adv-x="733" 
d="M213 819q0 -86 96 -86q38 -1 54 9t27 17t14 10q4 3 18 13t18 15q0 62 11 176q-160 -8 -204 -60q-34 -39 -34 -94zM424 1325q57 0 96 -41t40 -92q1 -52 -4 -200t-3 -195t28 -61t103 9l2 -2q2 0 0 -2q-76 -59 -128 -59q-108 0 -112 106q-102 -100 -210 -100q-59 0 -98 33
q-38 33 -38 93t84 110q84 49 267 61q4 150 4 162q-4 88 -40 107q-36 20 -82 20t-75 -18t-29 -37l9 -48q0 -20 -29 -36q-29 -17 -60 -17t-30 21q2 45 106 115t199 71z" />
    <glyph glyph-name="guillemotleft" unicode="&#xab;" horiz-adv-x="923" 
d="M504 174l-414 236l4 10l412 233q0 -2 -2 -6l-316 -237l316 -228l2 -8h-2zM811 174l-414 236l4 10l412 233q0 -2 -2 -6l-315 -237l315 -228l2 -8h-2z" />
    <glyph glyph-name="registered" unicode="&#xae;" horiz-adv-x="1382" 
d="M809 682q0 70 -38 102t-118 31h-28q-10 -31 -11 -123l2 -135l35 -6q86 0 122 31q36 30 36 100zM657 537q-35 0 -43 2v-105q0 -88 14 -112t77 -29q2 -4 0 -4q-39 6 -124 6t-137 -6v4q61 6 78 30q16 24 17 111v248q1 78 -15 104t-51 27q-6 0 -35 -4q2 6 4 6q49 14 224 14
q225 0 225 -129q0 -92 -109 -137q35 -104 107 -190t145 -92q2 -4 0 -5q-123 0 -205 77q-81 77 -112 190q-25 -6 -60 -6zM690 1122q-236 0 -402 -167t-165 -403q0 -236 166 -404q165 -166 401 -166t404 166t168 403q0 235 -168 403t-404 168zM691 -31q-241 0 -411 171
t-169 412q0 241 170 412q171 171 411 171t411 -171t171 -412t-171 -412t-412 -171z" />
    <glyph glyph-name="macron" unicode="&#xaf;" horiz-adv-x="686" 
d="M57 1054q0 12 4 13l281 -4l283 4q4 0 4 -12t-4 -13l-283 2l-281 -2q-4 0 -4 12z" />
    <glyph glyph-name="degree" unicode="&#xb0;" horiz-adv-x="448" 
d="M225 1323q-63 0 -108 -45q-45 -44 -45 -108t44 -109t108 -45t110 45q45 45 45 108t-45 109q-46 45 -109 45zM391 1168q0 -68 -49 -116t-118 -48q-68 0 -116 48t-48 116t48 118q48 49 116 49t118 -49q49 -49 49 -118z" />
    <glyph glyph-name="plusminus" unicode="&#xb1;" horiz-adv-x="1454" 
d="M1139 205q1 -162 137 -162q74 0 171 32q-2 -2 -5 -7q-61 -47 -135 -73t-123 -26q-92 0 -132 45t-40 144l4 571q-131 0 -152 -2q-6 2 -2 10q162 59 217 129t56 150q-1 118 -103 200t-246 82t-246 -104q-103 -104 -104 -236q0 -86 31 -145q66 12 126 12t103 -18t43 -40
q0 -21 -17 -57t-37 -36q-21 0 -103 40t-131 40q-246 0 -246 -320q0 -193 86 -294t217 -101t248 90q2 -8 0 -10q-142 -150 -310 -150t-269 111q-101 112 -101 268t103 282t270 177q-45 74 -46 190q0 156 114 284t275 128t264 -123t103 -301l-16 -211h117q145 0 180 8
q4 -2 4 -15t-4 -29t-8 -17q-98 8 -146 8h-143zM1447 75q2 0 3 1q-1 1 -3 -1z" />
    <glyph glyph-name="twosuperior" unicode="&#xb2;" horiz-adv-x="800" 
d="M319 1243q-87 0 -182 -90l-2 4l2 2q115 147 227 147t167 -60q57 -60 57 -158t-100 -212t-232 -188l4 -12h244q122 0 154 17t38 91h6q0 -114 -16 -180q-4 -14 -18 -14l-256 6q-194 0 -260 -4q-88 -5 -72 10q211 111 311 216q101 105 101 214t-43 160t-130 51z" />
    <glyph glyph-name="threesuperior" unicode="&#xb3;" horiz-adv-x="663" 
d="M86 377v4q379 27 379 270q1 86 -63 134t-197 71l-4 4l-4 12l-2 5q125 35 187 97t62 128t-44 101q-44 36 -109 36q-102 0 -187 -88q-2 0 -2 3t2 5q115 147 238 148q84 -1 137 -51t53 -124t-49 -124t-172 -103q248 -63 248 -235q0 -125 -130 -209t-343 -84z" />
    <glyph glyph-name="acute" unicode="&#xb4;" horiz-adv-x="432" 
d="M51 956q-2 2 -4 2l289 392q4 6 17 -1t23 -19t5 -19z" />
    <glyph glyph-name="mu" unicode="&#xb5;" horiz-adv-x="1558" 
d="M661 1503q-35 0 -59 24q-24 23 -22 55q0 32 24 58t59 25q33 0 57 -25q24 -24 24 -56t-24 -56t-59 -25zM1033 1503q-33 0 -57 24q-24 23 -24 55t25 58t59 25q34 0 57 -25q23 -24 23 -56t-24 -56t-59 -25zM260 1313q211 0 369 -167t215 -415h12q78 246 239 408t351 161
q72 0 133 -22l-2 -6q-57 10 -92 10q-160 0 -298 -126t-217 -333t-79 -438v-185q0 -38 8 -87t16 -61t34 -29q25 -15 53 -19t83 -8q1 -2 3 -7t-1 -5q-127 16 -267 16t-275 -16q-2 0 -1 5t3 7q128 11 155 36t30 49q3 25 8 66t5 80v158q0 375 -183 633t-425 258l-71 -6l-3 6
q100 37 197 37z" />
    <glyph glyph-name="paragraph" unicode="&#xb6;" horiz-adv-x="1325" 
d="M895 1122v-1151q66 2 168 6v1135q-129 10 -168 10zM862 -43q-338 0 -528 171q-190 172 -190 418t182 418q184 172 536 171q217 0 348 -41l-2 -15q-33 12 -127 29l-4 -563l4 -565q90 10 125 22q4 -2 6 -7t-2 -7q-90 -31 -348 -31z" />
    <glyph glyph-name="periodcentered" unicode="&#xb7;" 
d="M272 494q0 -28 -21 -48q-21 -22 -51 -22t-49 20t-19 48t20 52q20 22 50 22t50 -22t20 -50z" />
    <glyph glyph-name="cedilla" unicode="&#xb8;" horiz-adv-x="583" 
d="M254 -127q209 -65 209 -212q0 -71 -69 -136t-206 -88l-6 10q78 10 125 46t59 68q11 32 11 66q0 125 -189 180l127 187l13 -8z" />
    <glyph glyph-name="onesuperior" unicode="&#xb9;" horiz-adv-x="552" 
d="M272 596q-118 0 -196 -10v6q92 8 123 33t30 120v388q-1 97 -31 121t-122 34q0 4 2 4q62 -8 196 -8t203 8v-4q-90 -6 -121 -34t-30 -121v-388q0 -95 30 -121t121 -32q2 0 2 -3t-2 -3q-87 10 -205 10z" />
    <glyph glyph-name="ordmasculine" unicode="&#xba;" horiz-adv-x="788" 
d="M418 707q184 0 184 276q0 135 -62 229t-162 93q-100 0 -146 -71t-46 -206t62 -228t170 -93zM72 999q0 129 91 227t233 99q142 0 232 -92t89 -221q0 -128 -92 -226q-93 -98 -235 -98t-230 91t-88 220z" />
    <glyph glyph-name="guillemotright" unicode="&#xbb;" horiz-adv-x="923" 
d="M111 174l-2 2q2 4 4 6l317 228l-317 237q-2 4 -2 6l411 -233q4 -4 2 -10zM418 174l-2 2q2 4 4 6l317 228l-317 237q-2 4 -2 6l411 -233q4 -4 2 -10z" />
    <glyph glyph-name="onequarter" unicode="&#xbc;" horiz-adv-x="1540" 
d="M1198 109v489l-401 -489h401zM1294 -90q0 -94 31 -121t121 -33q2 0 2 -3t-36 1t-170 4t-198 -8v6q92 8 123 33t31 121v145h-49q-274 0 -406 -8q-2 0 -4 7t0 9l555 676v-630h191v-60q-109 0 -191 2v-141zM279 -76q-4 -2 -11 6l959 1428q4 2 10 -6zM274 596
q-118 0 -200 -10q0 2 2 6q92 8 123 33t30 120v388q-1 97 -31 121t-122 34q-2 4 0 4q66 -8 199 -8t202 8v-4q-90 -6 -121 -34t-30 -121v-388q0 -95 30 -121t121 -32q2 0 2 -3t-2 -3q-85 10 -203 10z" />
    <glyph glyph-name="onehalf" unicode="&#xbd;" horiz-adv-x="1628" 
d="M1319 453q0 92 -44 143t-131 51t-179 -88q-2 2 -2 4q117 150 239 150q100 -1 156 -61t55 -160q0 -100 -100 -212q-100 -114 -232 -186l4 -12h244q123 0 155 16t38 88q6 6 6 2q-1 -102 -15 -180q-6 -14 -20 -14l-256 6q-160 0 -324 -10q-4 0 -6 9t0 11q211 109 312 213
q100 104 100 230zM279 -76q-4 -2 -11 6l959 1428q4 2 10 -6zM272 596q-118 0 -196 -10v6q92 8 123 33t30 120v388q-1 97 -31 121t-122 34q0 4 2 4q62 -8 196 -8t203 8v-4q-90 -6 -121 -34t-30 -121v-388q0 -95 30 -121t121 -32q2 0 2 -3t-2 -3q-87 10 -205 10z" />
    <glyph glyph-name="threequarters" unicode="&#xbe;" horiz-adv-x="1654" 
d="M1313 109v489l-402 -489h402zM1409 -90q0 -94 31 -121t121 -33q2 0 2 -3t-36 1q-37 4 -171 4t-197 -8v6q92 8 123 33t31 121v145h-49q-274 0 -406 -8q-2 0 -4 7t0 9l555 676v-630h190v-60q-108 0 -190 2v-141zM393 -76q-4 -2 -10 6l958 1428q4 2 11 -6zM86 377v4
q379 27 379 270q1 86 -63 134t-197 71l-4 4l-4 12l-2 5q125 35 187 97t62 128t-44 101q-44 36 -109 36q-102 0 -187 -88q-2 0 -2 3t2 5q115 147 238 148q84 -1 137 -51t53 -124t-49 -124t-172 -103q248 -63 248 -235q0 -125 -130 -209t-343 -84z" />
    <glyph glyph-name="questiondown" unicode="&#xbf;" horiz-adv-x="698" 
d="M530 -438q0 41 -49 77q-49 35 -176 71t-180 94t-53 154t48 152t191 113q176 72 176 180q0 31 -16 74q2 0 10 4q47 -106 47 -164q0 -127 -163 -200l-195 -88q-66 -29 -66 -81t86 -79l185 -53q191 -56 191 -167q0 -56 -31 -130q-12 0 -13 6q8 29 8 37zM460 666
q-30 0 -50 20t-20 48t20 50t50 23q30 0 52 -22q22 -21 20 -49q0 -28 -21 -49t-51 -21z" />
    <glyph glyph-name="Agrave" unicode="&#xc0;" horiz-adv-x="1406" 
d="M700 1423l-329 355q-4 6 5 18t23 20t19 1l289 -392v-2q-5 -2 -7 0zM668 1110l-246 -573h446zM1141 0q-139 0 -275 -16q-2 0 -1 5t3 7q88 8 120 21t32 57t-78 262l-63 174h-469l-74 -174q-88 -211 -88 -255q0 -43 32 -61t107 -24q2 -2 3 -7t-1 -5q-123 16 -193 16
t-204 -16q-2 0 -1 5t3 7q98 8 154 76t141 260l432 989q2 2 6 2t6 -2l369 -989q42 -109 64 -161q54 -124 131 -156q40 -15 106 -19q2 -2 2 -7t-2 -5q-123 16 -262 16z" />
    <glyph glyph-name="Aacute" unicode="&#xc1;" horiz-adv-x="1406" 
d="M715 1432q-2 2 -4 2l288 391q3 6 17 -1q14 -8 23 -20t5 -18zM668 1110l-246 -573h446zM1141 0q-139 0 -275 -16q-2 0 -1 5t3 7q88 8 120 21t32 57t-78 262l-63 174h-469l-74 -174q-88 -211 -88 -255q0 -43 32 -61t107 -24q2 -2 3 -7t-1 -5q-123 16 -193 16t-204 -16
q-2 0 -1 5t3 7q98 8 154 76t141 260l432 989q2 2 6 2t6 -2l369 -989q42 -109 64 -161q54 -124 131 -156q40 -15 106 -19q2 -2 2 -7t-2 -5q-123 16 -262 16z" />
    <glyph glyph-name="Acircumflex" unicode="&#xc2;" horiz-adv-x="1406" 
d="M956 1423l-237 320l-227 -320l-7 -2l234 416h8l2 -2l234 -414zM668 1110l-246 -573h446zM1141 0q-139 0 -275 -16q-2 0 -1 5t3 7q88 8 120 21t32 57t-78 262l-63 174h-469l-74 -174q-88 -211 -88 -255q0 -43 32 -61t107 -24q2 -2 3 -7t-1 -5q-123 16 -193 16t-204 -16
q-2 0 -1 5t3 7q98 8 154 76t141 260l432 989q2 2 6 2t6 -2l369 -989q42 -109 64 -161q54 -124 131 -156q40 -15 106 -19q2 -2 2 -7t-2 -5q-123 16 -262 16z" />
    <glyph glyph-name="Atilde" unicode="&#xc3;" horiz-adv-x="1406" 
d="M592 1634q43 0 145 -37q101 -37 153 -37t85 28q33 26 47 100q10 0 10 -5q-8 -84 -51 -134t-103 -50t-164 40q-103 40 -167 40q-109 0 -137 -145l-11 6q9 92 61 143t132 51zM668 1110l-246 -573h446zM1141 0q-139 0 -275 -16q-2 0 -1 5t3 7q88 8 120 21t32 57t-78 262
l-63 174h-469l-74 -174q-88 -211 -88 -255q0 -43 32 -61t107 -24q2 -2 3 -7t-1 -5q-123 16 -193 16t-204 -16q-2 0 -1 5t3 7q98 8 154 76t141 260l432 989q2 2 6 2t6 -2l369 -989q42 -109 64 -161q54 -124 131 -156q40 -15 106 -19q2 -2 2 -7t-2 -5q-123 16 -262 16z" />
    <glyph glyph-name="Adieresis" unicode="&#xc4;" horiz-adv-x="1406" 
d="M532 1503q-34 0 -58 24q-24 23 -24 55t26 58q24 26 58 25q34 0 58 -25q24 -24 22 -56q0 -32 -24 -56t-58 -25zM904 1503q-34 0 -58 24q-24 23 -23 55q0 32 25 58q24 26 58 25q34 0 58 -25q24 -24 24 -56t-26 -56q-24 -24 -58 -25zM668 1110l-246 -573h446zM1141 0
q-139 0 -275 -16q-2 0 -1 5t3 7q88 8 120 21t32 57t-78 262l-63 174h-469l-74 -174q-88 -211 -88 -255q0 -43 32 -61t107 -24q2 -2 3 -7t-1 -5q-123 16 -193 16t-204 -16q-2 0 -1 5t3 7q98 8 154 76t141 260l432 989q2 2 6 2t6 -2l369 -989q42 -109 64 -161
q54 -124 131 -156q40 -15 106 -19q2 -2 2 -7t-2 -5q-123 16 -262 16z" />
    <glyph glyph-name="Aring" unicode="&#xc5;" horiz-adv-x="1406" 
d="M668 1110l-246 -573h446zM727 1638q-63 0 -109 -45t-45 -108q0 -63 45 -109q44 -46 108 -45q64 0 110 45q45 44 45 108t-45 109q-46 45 -109 45zM561 1485q0 68 48 117t117 49t118 -49t49 -117t-47 -115t-113 -51l369 -987q42 -109 64 -161q54 -124 131 -156
q40 -15 106 -19q2 -2 2 -7t-2 -5q-123 16 -262 16t-275 -16q-2 0 -1 5t3 7q88 8 120 21t32 57t-78 262l-63 174h-469l-74 -174q-88 -211 -88 -255q0 -43 32 -61t107 -24q2 -2 3 -7t-1 -5q-123 16 -193 16t-204 -16q-2 0 -1 5t3 7q98 8 154 76t141 260l432 987q-68 4 -114 51
t-46 115z" />
    <glyph glyph-name="AE" unicode="&#xc6;" horiz-adv-x="1757" 
d="M872 537v704l-466 -704h466zM1436 700q8 0 14 12t8 14q2 1 5 18t3 20l11 4q-13 -47 -13 -123t4 -92q-2 -2 -7 -1q-5 0 -9 22t-14 39q-25 42 -199 42h-221v-313q0 -253 58 -289q26 -16 81 -16h105q120 0 186 6t104 30q38 25 48 51q12 26 26 87q10 0 10 -2
q-33 -197 -54 -215q-7 -6 -26 -6l-348 12q-319 0 -555 -16q-6 0 2 12q137 14 166 33q43 29 49 145q2 45 2 160v176l-487 -2l-113 -170q-12 -18 -32 -50t-30 -47t-47 -73q-72 -117 -25 -149q28 -17 106 -23q2 -2 -1 -7t-5 -5q-119 16 -189 16t-207 -16q-6 0 6 12
q102 8 177 77q74 69 200 257l502 741q68 98 68 135q0 59 -215 84q-2 0 -2 4t2 4q203 -14 511 -14t490 14q-10 -47 -10 -98t4 -84q-2 -4 -10 2q-13 76 -75 103t-257 26h-199q-16 -76 -16 -289v-276h221l132 4q24 0 40 7q17 7 25 7z" />
    <glyph glyph-name="Ccedilla" unicode="&#xc7;" horiz-adv-x="1443" 
d="M776 -127q209 -65 209 -212q0 -71 -69 -137t-205 -87l-6 10q79 10 125 46t58 68q11 32 11 66q0 125 -188 180l104 152q-307 15 -495 205t-189 456q0 266 214 486t525 219q123 0 251 -39t167 -69q25 -14 33 -275q0 -2 -4 -2t-4 2q-31 142 -155 246t-348 104t-374 -162
t-149 -440q0 -326 178 -513t416 -187q168 0 298 98t142 256h8l2 -2q-12 -260 -35 -276q-141 -109 -434 -109h-31z" />
    <glyph glyph-name="Egrave" unicode="&#xc8;" horiz-adv-x="1241" 
d="M731 1423l-330 355q-5 6 5 18t24 20t19 1l288 -392v-2q-4 -2 -6 0zM336 334v614q0 246 -26 282q-9 13 -36 28q-27 16 -81 24t-66 8t-12 4t2 4q203 -14 473 -14t454 14q-10 -47 -10 -98t4 -84l-12 2q-12 76 -74 103t-256 26h-202q-12 -88 -13 -289v-276h219q179 0 209 43
q12 16 21 53q4 2 8 2t4 -2q-16 -60 -16 -126t4 -99q-2 -4 -10 2q-8 41 -18 58q-26 42 -202 42h-219v-338q0 -180 29 -230t108 -50h105q121 0 187 6t103 29q38 24 50 50t24 85h13q-33 -198 -53 -213q-8 -6 -29 -6l-348 12q-319 0 -553 -16q-6 0 2 12q137 12 166 33
q43 29 49 151q2 47 2 154z" />
    <glyph glyph-name="Eacute" unicode="&#xc9;" horiz-adv-x="1241" 
d="M602 1432q-2 2 -4 2l289 391q4 6 17 -1q12 -8 22 -20t6 -18zM336 334v614q0 246 -26 282q-9 13 -36 28q-27 16 -81 24t-66 8t-12 4t2 4q203 -14 473 -14t454 14q-10 -47 -10 -98t4 -84l-12 2q-12 76 -74 103t-256 26h-202q-12 -88 -13 -289v-276h219q179 0 209 43
q12 16 21 53q4 2 8 2t4 -2q-16 -60 -16 -126t4 -99q-2 -4 -10 2q-8 41 -18 58q-26 42 -202 42h-219v-338q0 -180 29 -230t108 -50h105q121 0 187 6t103 29q38 24 50 50t24 85h13q-33 -198 -53 -213q-8 -6 -29 -6l-348 12q-319 0 -553 -16q-6 0 2 12q137 12 166 33
q43 29 49 151q2 47 2 154z" />
    <glyph glyph-name="Ecircumflex" unicode="&#xca;" horiz-adv-x="1241" 
d="M895 1423l-238 320l-227 -320l-6 -2l233 416h9l2 -2l233 -414zM336 334v614q0 246 -26 282q-9 13 -36 28q-27 16 -81 24t-66 8t-12 4t2 4q203 -14 473 -14t454 14q-10 -47 -10 -98t4 -84l-12 2q-12 76 -74 103t-256 26h-202q-12 -88 -13 -289v-276h219q179 0 209 43
q12 16 21 53q4 2 8 2t4 -2q-16 -60 -16 -126t4 -99q-2 -4 -10 2q-8 41 -18 58q-26 42 -202 42h-219v-338q0 -180 29 -230t108 -50h105q121 0 187 6t103 29q38 24 50 50t24 85h13q-33 -198 -53 -213q-8 -6 -29 -6l-348 12q-319 0 -553 -16q-6 0 2 12q137 12 166 33
q43 29 49 151q2 47 2 154z" />
    <glyph glyph-name="Edieresis" unicode="&#xcb;" horiz-adv-x="1241" 
d="M464 1665q34 0 58 -25q24 -24 23 -56q1 -32 -23 -56t-59 -25q-35 0 -59 24q-24 23 -24 55t26 58q24 26 58 25zM837 1665q33 0 57 -25q24 -24 24 -56t-24 -56t-59 -25q-34 0 -58 24q-23 23 -23 55t24 58t59 25zM336 334v614q0 246 -26 282q-9 13 -36 28q-27 16 -81 24
t-66 8t-12 4t2 4q203 -14 473 -14t454 14q-10 -47 -10 -98t4 -84l-12 2q-12 76 -74 103t-256 26h-202q-12 -88 -13 -289v-276h219q179 0 209 43q12 16 21 53q4 2 8 2t4 -2q-16 -60 -16 -126t4 -99q-2 -4 -10 2q-8 41 -18 58q-26 42 -202 42h-219v-338q0 -180 29 -230
t108 -50h105q121 0 187 6t103 29q38 24 50 50t24 85h13q-33 -198 -53 -213q-8 -6 -29 -6l-348 12q-319 0 -553 -16q-6 0 2 12q137 12 166 33q43 29 49 151q2 47 2 154z" />
    <glyph glyph-name="Igrave" unicode="&#xcc;" horiz-adv-x="876" 
d="M492 1423l-330 355q-4 6 5 18t23 20t19 1l289 -392v-2q-4 -2 -6 0zM444 0q-142 0 -278 -16q-2 0 -1 5t3 7q131 11 146 29q36 31 39 56t8 66t6 80v829q1 40 -5 80t-8 58t-17 38t-23 28q-26 20 -148 30q-2 0 -2 4t2 4q116 -14 276 -14t267 14q2 0 2 -4q-1 -4 -29 -6t-56 -5
t-55 -20t-35 -31t-16 -62t-8 -88v-882q0 -38 8 -87t16 -61t34 -29q26 -15 54 -19t83 -8q2 -2 3 -7t-1 -5q-123 16 -265 16z" />
    <glyph glyph-name="Iacute" unicode="&#xcd;" horiz-adv-x="876" 
d="M408 1432q-2 2 -5 2l289 391q4 6 18 -1q14 -8 22 -20q9 -12 5 -18zM444 0q-142 0 -278 -16q-2 0 -1 5t3 7q131 11 146 29q36 31 39 56t8 66t6 80v829q1 40 -5 80t-8 58t-17 38t-23 28q-26 20 -148 30q-2 0 -2 4t2 4q116 -14 276 -14t267 14q2 0 2 -4q-1 -4 -29 -6t-56 -5
t-55 -20t-35 -31t-16 -62t-8 -88v-882q0 -38 8 -87t16 -61t34 -29q26 -15 54 -19t83 -8q2 -2 3 -7t-1 -5q-123 16 -265 16z" />
    <glyph glyph-name="Icircumflex" unicode="&#xce;" horiz-adv-x="876" 
d="M674 1423l-238 320l-227 -320l-6 -2l233 416h8l2 -2l234 -414zM444 0q-142 0 -278 -16q-2 0 -1 5t3 7q131 11 146 29q36 31 39 56t8 66t6 80v829q1 40 -5 80t-8 58t-17 38t-23 28q-26 20 -148 30q-2 0 -2 4t2 4q116 -14 276 -14t267 14q2 0 2 -4q-1 -4 -29 -6t-56 -5
t-55 -20t-35 -31t-16 -62t-8 -88v-882q0 -38 8 -87t16 -61t34 -29q26 -15 54 -19t83 -8q2 -2 3 -7t-1 -5q-123 16 -265 16z" />
    <glyph glyph-name="Idieresis" unicode="&#xcf;" horiz-adv-x="876" 
d="M256 1503q-34 0 -58 24q-24 23 -24 55t25 58t59 25q34 0 56 -25q24 -24 24 -56t-24 -56t-58 -25zM630 1665q34 0 58 -25q24 -24 23 -56t-25 -56t-58 -25q-34 0 -58 24q-24 23 -24 55t26 58q24 26 58 25zM444 0q-142 0 -278 -16q-2 0 -1 5t3 7q131 11 146 29q36 31 39 56
t8 66t6 80v829q1 40 -5 80t-8 58t-17 38t-23 28q-26 20 -148 30q-2 0 -2 4t2 4q116 -14 276 -14t267 14q2 0 2 -4q-1 -4 -29 -6t-56 -5t-55 -20t-35 -31t-16 -62t-8 -88v-882q0 -38 8 -87t16 -61t34 -29q26 -15 54 -19t83 -8q2 -2 3 -7t-1 -5q-123 16 -265 16z" />
    <glyph glyph-name="Eth" unicode="&#xd0;" horiz-adv-x="1615" 
d="M723 1260q-117 0 -221 -13q-20 -117 -21 -297v-309l160 41q10 2 12 -8t-6 -15q-166 -41 -166 -43v-356q0 -86 7 -127q8 -41 46 -69t97 -33q59 -6 182 -6q227 0 376 153q148 154 148 418q0 324 -162 494q-163 170 -452 170zM1487 660q0 -280 -205 -474
q-205 -196 -524 -196l-299 10q-188 0 -324 -16q-2 0 -1 5t3 7q129 11 147 29q7 6 22 26q16 19 18 37q12 88 12 139v363l-193 -45q-14 0 -14 12q2 6 8 8l199 43v448q0 40 -5 80t-8 66t-40 58q-27 20 -88 25q-62 5 -62 9t2 4q117 -14 342 -14l307 8q338 0 520 -176t183 -456z
" />
    <glyph glyph-name="Ntilde" unicode="&#xd1;" horiz-adv-x="1685" 
d="M719 1634q43 0 145 -37t154 -37t84 28q33 26 47 100q10 0 10 -5q-8 -84 -51 -134q-44 -50 -104 -50t-163 40t-167 40q-109 0 -137 -145l-11 6q8 92 60 143t133 51zM1397 948v-614q0 -238 16 -375q0 -6 -12 6l-1006 1088v-719q0 -220 29 -274t172 -64q2 -2 2 -7t-2 -5
q-123 16 -214 16t-226 -16q-2 0 -1 5t3 7q103 10 139 32q37 23 45 65q16 84 16 241l2 702q0 72 -87 158t-164 96q-2 0 -3 4q0 4 3 4q115 -14 274 -14l977 -1048v712q0 171 -14 227t-41 73q-51 32 -156 42q-2 0 -2 4t2 4q117 -14 229 -14t221 14q4 -2 3 -8q-143 -12 -175 -67
q-30 -56 -30 -275z" />
    <glyph glyph-name="Ograve" unicode="&#xd2;" horiz-adv-x="1693" 
d="M860 1423l-330 355q-4 6 6 18t23 20q14 8 19 1l288 -392v-2q-4 -2 -6 0zM819 1292q-237 0 -387 -163t-149 -441q0 -326 177 -512q176 -186 414 -186t389 163t150 441q0 166 -51 302q-93 249 -327 350q-105 46 -216 46zM833 -43q-307 0 -505 198t-197 469q0 271 211 486
t518 215t506 -198q199 -199 199 -469t-212 -486q-213 -215 -520 -215z" />
    <glyph glyph-name="Oacute" unicode="&#xd3;" horiz-adv-x="1693" 
d="M807 1432q-2 2 -4 2l289 391q4 6 17 -1q13 -8 23 -20t5 -18zM819 1292q-237 0 -387 -163t-149 -441q0 -326 177 -512q176 -186 414 -186t389 163t150 441q0 166 -51 302q-93 249 -327 350q-105 46 -216 46zM833 -43q-307 0 -505 198t-197 469q0 271 211 486t518 215
t506 -198q199 -199 199 -469t-212 -486q-213 -215 -520 -215z" />
    <glyph glyph-name="Ocircumflex" unicode="&#xd4;" horiz-adv-x="1693" 
d="M1079 1423l-237 320l-228 -320l-6 -2l234 416h8l2 -2l233 -414zM819 1292q-237 0 -387 -163t-149 -441q0 -326 177 -512q176 -186 414 -186t389 163t150 441q0 166 -51 302q-93 249 -327 350q-105 46 -216 46zM833 -43q-307 0 -505 198t-197 469q0 271 211 486t518 215
t506 -198q199 -199 199 -469t-212 -486q-213 -215 -520 -215z" />
    <glyph glyph-name="Otilde" unicode="&#xd5;" horiz-adv-x="1693" 
d="M707 1634q43 0 145 -37t154 -37t84 28q33 26 47 100q10 0 10 -5q-8 -84 -51 -134q-44 -50 -104 -50t-164 40t-166 40q-109 0 -138 -145l-10 6q8 92 60 143t133 51zM819 1292q-237 0 -387 -163t-149 -441q0 -326 177 -512q176 -186 414 -186t389 163t150 441
q0 166 -51 302q-93 249 -327 350q-105 46 -216 46zM833 -43q-307 0 -505 198t-197 469q0 271 211 486t518 215t506 -198q199 -199 199 -469t-212 -486q-213 -215 -520 -215z" />
    <glyph glyph-name="Odieresis" unicode="&#xd6;" horiz-adv-x="1693" 
d="M661 1503q-35 0 -59 24q-24 23 -22 55q0 32 24 58t59 25q33 0 57 -25q24 -24 24 -56t-24 -56t-59 -25zM1033 1503q-33 0 -57 24q-24 23 -24 55t25 58t59 25q34 0 57 -25q23 -24 23 -56t-24 -56t-59 -25zM819 1292q-237 0 -387 -163t-149 -441q0 -326 177 -512
q176 -186 414 -186t389 163t150 441q0 166 -51 302q-93 249 -327 350q-105 46 -216 46zM833 -43q-307 0 -505 198t-197 469q0 271 211 486t518 215t506 -198q199 -199 199 -469t-212 -486q-213 -215 -520 -215z" />
    <glyph glyph-name="Oslash" unicode="&#xd8;" horiz-adv-x="1693" 
d="M874 -10q238 0 389 163t151 451t-163 481l-802 -895q83 -96 195 -148t230 -52zM282 678q0 -288 158 -479l803 895q-172 198 -417 198q-244 0 -394 -163t-150 -451zM864 1325q260 0 451 -151l166 184q4 2 10 -6l-168 -187q115 -94 178 -225t64 -276q0 -276 -212 -492
t-526 -215q-256 0 -450 154l-168 -187q-4 -2 -10 6q29 35 75 85q46 49 70 75l23 29q-111 94 -173 226t-63 276q0 274 211 489t522 215z" />
    <glyph glyph-name="Ugrave" unicode="&#xd9;" horiz-adv-x="1646" 
d="M922 1423l-330 355q-4 6 5 18t23 20t19 1l289 -392v-2q-4 -2 -6 0zM1356 967v-512q0 -215 -133 -357t-371 -141q-238 0 -393 138q-154 138 -154 374v616q0 91 -27 149q-7 16 -38 30t-53 17t-81 9q-4 2 -2 8q120 -14 278 -14t265 14q4 -2 2 -8q-41 -4 -79 -7t-59 -18
q-40 -27 -50 -80t-10 -109v-566q0 -236 132 -358q131 -122 325 -123t302 113t109 333v492q0 111 -5 163t-30 92q-26 38 -62 49t-112 19q-2 0 -2 4t2 4q116 -14 230 -14t221 14q4 -2 2 -8q-143 -12 -175 -66t-32 -257z" />
    <glyph glyph-name="Uacute" unicode="&#xda;" horiz-adv-x="1646" 
d="M838 1432q-2 2 -4 2l288 391q4 6 18 -1q14 -8 22 -20q9 -12 5 -18zM1356 967v-512q0 -215 -133 -357t-371 -141q-238 0 -393 138q-154 138 -154 374v616q0 91 -27 149q-7 16 -38 30t-53 17t-81 9q-4 2 -2 8q120 -14 278 -14t265 14q4 -2 2 -8q-41 -4 -79 -7t-59 -18
q-40 -27 -50 -80t-10 -109v-566q0 -236 132 -358q131 -122 325 -123t302 113t109 333v492q0 111 -5 163t-30 92q-26 38 -62 49t-112 19q-2 0 -2 4t2 4q116 -14 230 -14t221 14q4 -2 2 -8q-143 -12 -175 -66t-32 -257z" />
    <glyph glyph-name="Ucircumflex" unicode="&#xdb;" horiz-adv-x="1646" 
d="M1108 1423l-238 320l-227 -320l-6 -2l233 416h9l2 -2l233 -414zM1356 967v-512q0 -215 -133 -357t-371 -141q-238 0 -393 138q-154 138 -154 374v616q0 91 -27 149q-7 16 -38 30t-53 17t-81 9q-4 2 -2 8q120 -14 278 -14t265 14q4 -2 2 -8q-41 -4 -79 -7t-59 -18
q-40 -27 -50 -80t-10 -109v-566q0 -236 132 -358q131 -122 325 -123t302 113t109 333v492q0 111 -5 163t-30 92q-26 38 -62 49t-112 19q-2 0 -2 4t2 4q116 -14 230 -14t221 14q4 -2 2 -8q-143 -12 -175 -66t-32 -257z" />
    <glyph glyph-name="Udieresis" unicode="&#xdc;" horiz-adv-x="1646" 
d="M686 1503q-34 0 -58 24q-24 23 -24 55t25 58t59 25q34 0 56 -25q24 -24 24 -56t-24 -56t-58 -25zM1060 1665q34 0 58 -25q24 -24 23 -56t-25 -56t-58 -25q-34 0 -58 24q-24 23 -24 55t26 58q24 26 58 25zM1356 967v-512q0 -215 -133 -357t-371 -141q-238 0 -393 138
q-154 138 -154 374v616q0 91 -27 149q-7 16 -38 30t-53 17t-81 9q-4 2 -2 8q120 -14 278 -14t265 14q4 -2 2 -8q-41 -4 -79 -7t-59 -18q-40 -27 -50 -80t-10 -109v-566q0 -236 132 -358q131 -122 325 -123t302 113t109 333v492q0 111 -5 163t-30 92q-26 38 -62 49t-112 19
q-2 0 -2 4t2 4q116 -14 230 -14t221 14q4 -2 2 -8q-143 -12 -175 -66t-32 -257z" />
    <glyph glyph-name="Yacute" unicode="&#xdd;" horiz-adv-x="1497" 
d="M737 1432q-2 2 -4 2l289 391q4 6 17 -1q13 -8 23 -20t5 -18zM829 230q1 -123 19 -161q18 -39 30 -43t38 -14q27 -11 110 -16q2 -2 2 -7t-2 -5q-124 16 -266 16t-277 -16q-2 0 -1 5t3 7q49 6 65 7t47 9q32 8 37 14q36 40 38 61t8 61t5 79t-1 107l-2 289l-178 284
q-150 237 -222 303t-202 80q-4 2 -2 8q118 -14 276 -14t264 14q4 -2 3 -8q-72 -6 -102 -22q-29 -16 -19 -66t46 -111q36 -62 120 -192l145 -221l184 268q154 224 160 276t-125 68q-4 2 -2 8q116 -14 218 -14t212 14q2 0 2 -4t-2 -4q-130 -14 -196 -70t-213 -266l-220 -315
v-409z" />
    <glyph glyph-name="Thorn" unicode="&#xde;" horiz-adv-x="1208" 
d="M575 315h-32q-2 0 -2 4t2 7q207 -2 299 76t92 247q0 336 -336 336q-41 0 -115 -12q-2 -66 -2 -299v-342q-1 -170 11 -216t21 -64q24 -47 179 -58q2 0 2 -5t-2 -5q-122 16 -272 16t-285 -16q-2 0 -2 5t2 5q61 6 81 9t53 17q32 14 38 28q29 70 29 132v768q0 162 -12 222
q-12 61 -38 77q-51 31 -151 41q-2 0 -2 4t2 4q117 -14 267 -14t260 14q2 0 2 -4t-2 -4q-86 -8 -120 -26t-47 -68t-14 -174v-12q123 8 170 8q195 0 314 -88t119 -248t-140 -262q-138 -102 -369 -103z" />
    <glyph glyph-name="germandbls" unicode="&#xdf;" horiz-adv-x="1075" 
d="M49 758v6q90 8 178 31l2 88q7 254 135 422t310 168q116 0 194 -77t78 -210t-98 -224q-41 -38 -82 -72q-100 -83 -99 -176t131 -179q54 -37 108 -76t92 -97t38 -126q0 -106 -76 -186t-202 -81q-74 -1 -131 17t-81 38t-24 42t22 53t44 31t54 -39q34 -39 74 -78t79 -39
q141 0 141 178q0 97 -130 186q-54 37 -110 76q-132 92 -131 213q0 84 93 182q38 39 77 79q96 98 95 218q-1 119 -74 200q-74 81 -187 81t-166 -100t-53 -351v-770q0 -106 28 -145t101 -43q2 -10 0 -10q-87 12 -207 12t-206 -12q-4 2 2 10q114 12 138 40t23 148v555l-176 2
q-4 0 -4 15z" />
    <glyph glyph-name="agrave" unicode="&#xe0;" horiz-adv-x="827" 
d="M494 948l-314 355q-4 6 5 18t23 19t17 1l275 -391v-2q-4 -2 -6 0zM223 150q0 -117 137 -117q82 0 191 86q0 12 4 94l6 123q-199 -14 -269 -62t-69 -124zM512 825q76 0 125 -54t51 -148q0 -43 -6 -244t-4 -258q4 -145 188 -68q10 0 2 -6q-106 -84 -192 -84q-53 0 -85 36
t-34 105q-141 -135 -295 -135q-78 0 -124 45t-46 117q0 193 469 221q4 82 4 216t-59 165q-42 25 -108 25t-106 -24t-40 -48l10 -63q0 -27 -38 -49t-77 -22t-38 30q4 61 140 152t263 91z" />
    <glyph glyph-name="aacute" unicode="&#xe1;" horiz-adv-x="827" 
d="M356 956q-2 2 -4 2l275 392q4 6 17 -1q14 -7 22 -19t4 -19zM223 150q0 -117 137 -117q82 0 191 86q0 12 4 94l6 123q-199 -14 -269 -62t-69 -124zM512 825q76 0 125 -54t51 -148q0 -43 -6 -244t-4 -258q4 -145 188 -68q10 0 2 -6q-106 -84 -192 -84q-53 0 -85 36t-34 105
q-141 -135 -295 -135q-78 0 -124 45t-46 117q0 193 469 221q4 82 4 216t-59 165q-42 25 -108 25t-106 -24t-40 -48l10 -63q0 -27 -38 -49t-77 -22t-38 30q4 61 140 152t263 91z" />
    <glyph glyph-name="acircumflex" unicode="&#xe2;" horiz-adv-x="827" 
d="M645 948l-225 320l-217 -320l-6 -2l223 416h6l2 -2l223 -414zM223 150q0 -117 137 -117q82 0 191 86q0 12 4 94l6 123q-199 -14 -269 -62t-69 -124zM512 825q76 0 125 -54t51 -148q0 -43 -6 -244t-4 -258q4 -145 188 -68q10 0 2 -6q-106 -84 -192 -84q-53 0 -85 36
t-34 105q-141 -135 -295 -135q-78 0 -124 45t-46 117q0 193 469 221q4 82 4 216t-59 165q-42 25 -108 25t-106 -24t-40 -48l10 -63q0 -27 -38 -49t-77 -22t-38 30q4 61 140 152t263 91z" />
    <glyph glyph-name="atilde" unicode="&#xe3;" horiz-adv-x="827" 
d="M288 1159q60 0 156 -37t146 -37t80 27q31 27 45 100q10 0 10 -4q-8 -84 -49 -134q-40 -50 -98 -50t-157 40t-159 40q-104 0 -129 -146l-10 7q8 92 57 143q48 51 108 51zM223 150q0 -117 137 -117q82 0 191 86q0 12 4 94l6 123q-199 -14 -269 -62t-69 -124zM512 825
q76 0 125 -54t51 -148q0 -43 -6 -244t-4 -258q4 -145 188 -68q10 0 2 -6q-106 -84 -192 -84q-53 0 -85 36t-34 105q-141 -135 -295 -135q-78 0 -124 45t-46 117q0 193 469 221q4 82 4 216t-59 165q-42 25 -108 25t-106 -24t-40 -48l10 -63q0 -27 -38 -49t-77 -22t-38 30
q4 61 140 152t263 91z" />
    <glyph glyph-name="adieresis" unicode="&#xe4;" horiz-adv-x="827" 
d="M259 1028q-33 0 -55 24t-22 56t23 56q23 26 55 26t54 -25q24 -25 24 -57t-24 -56t-55 -24zM611 1028q-33 0 -55 24t-22 56t24 56q24 26 56 26t54 -25t22 -57t-24 -56t-55 -24zM223 150q0 -117 137 -117q82 0 191 86q0 12 4 94l6 123q-199 -14 -269 -62t-69 -124zM512 825
q76 0 125 -54t51 -148q0 -43 -6 -244t-4 -258q4 -145 188 -68q10 0 2 -6q-106 -84 -192 -84q-53 0 -85 36t-34 105q-141 -135 -295 -135q-78 0 -124 45t-46 117q0 193 469 221q4 82 4 216t-59 165q-42 25 -108 25t-106 -24t-40 -48l10 -63q0 -27 -38 -49t-77 -22t-38 30
q4 61 140 152t263 91z" />
    <glyph glyph-name="aring" unicode="&#xe5;" horiz-adv-x="827" 
d="M453 1264q-63 0 -109 -45t-45 -110q0 -65 45 -109q44 -44 108 -44t109 45t45 109t-45 108q-45 46 -108 46zM452 1276q70 0 118 -49t48 -118t-48 -117t-118 -48q-69 0 -117 48t-48 117t48 118t117 49zM215 150q0 -117 137 -117q82 0 191 86q0 12 4 94l6 123
q-199 -14 -269 -62t-69 -124zM504 825q76 0 125 -54t51 -148q0 -43 -6 -244t-4 -258q4 -145 188 -68q10 0 2 -6q-106 -84 -192 -84q-53 0 -85 36t-34 105q-141 -135 -295 -135q-78 0 -124 45t-46 117q0 193 469 221q4 82 4 216t-59 165q-42 25 -108 25t-106 -24t-40 -48
l10 -63q0 -27 -38 -49t-77 -22t-39 30q4 61 140 152t264 91z" />
    <glyph glyph-name="ae" unicode="&#xe6;" horiz-adv-x="1316" 
d="M197 163q1 -48 31 -89t85 -41q150 0 287 139q-55 98 -55 231q-225 -35 -293 -105q-32 -34 -44 -60q-11 -26 -11 -75zM912 799q-94 1 -162 -101t-70 -262l436 62q-4 137 -57 219t-147 82zM494 827q55 1 101 -37t69 -106q137 143 297 143q127 0 205 -85t79 -189
q0 -18 -6 -55l-559 -80q4 -197 99 -290t228 -93t244 90l2 -10q-55 -68 -142 -107t-175 -39q-215 0 -332 195q-70 -86 -163 -140t-179 -54t-139 45q-53 46 -53 116q0 223 475 289l6 180q0 62 -32 110q-31 48 -107 48t-126 -23t-50 -47l4 -55q0 -33 -55 -52q-37 -13 -65 -13
t-28 10q4 59 142 154t260 95z" />
    <glyph glyph-name="ccedilla" unicode="&#xe7;" horiz-adv-x="802" 
d="M401 -127q209 -65 209 -212q0 -71 -68 -137t-206 -87l-6 10q78 10 125 46t58 68t11 66q0 125 -188 180l110 162h-12q-154 0 -256 111q-102 110 -102 284t151 318q152 143 367 143q61 0 104 -18t43 -39q0 -28 -19 -64t-40 -36q-20 0 -98 40t-140 40q-123 0 -181 -76
t-58 -254t87 -278q87 -101 217 -101t247 90q2 -8 0 -10q-129 -135 -291 -148z" />
    <glyph glyph-name="egrave" unicode="&#xe8;" horiz-adv-x="854" 
d="M489 948l-313 355q-4 6 5 18t23 19t17 1l273 -391q2 -2 0 -3q-3 -1 -5 1zM457 791q-89 0 -151 -70t-83 -193l447 13q-4 94 -64 172t-149 78zM459 -31q-166 0 -271 112q-104 112 -104 289t131 316t279 139t226 -82q79 -82 79 -180q0 -23 -6 -43l-572 -12q-6 -43 -6 -78
q0 -197 92 -295t227 -98t257 90v-10q-53 -63 -147 -105t-185 -43z" />
    <glyph glyph-name="eacute" unicode="&#xe9;" horiz-adv-x="854" 
d="M424 956q-2 2 -4 2l274 392q4 6 18 -1t21 -19q8 -12 4 -19zM457 791q-89 0 -151 -70t-83 -193l447 13q-4 94 -64 172t-149 78zM459 -31q-166 0 -271 112q-104 112 -104 289t131 316t279 139t226 -82q79 -82 79 -180q0 -23 -6 -43l-572 -12q-6 -43 -6 -78q0 -197 92 -295
t227 -98t257 90v-10q-53 -63 -147 -105t-185 -43z" />
    <glyph glyph-name="ecircumflex" unicode="&#xea;" horiz-adv-x="854" 
d="M672 948l-226 320l-217 -320l-6 -2l223 416h7l2 -2l223 -414zM457 791q-89 0 -151 -70t-83 -193l447 13q-4 94 -64 172t-149 78zM459 -31q-166 0 -271 112q-104 112 -104 289t131 316t279 139t226 -82q79 -82 79 -180q0 -23 -6 -43l-572 -12q-6 -43 -6 -78
q0 -197 92 -295t227 -98t257 90v-10q-53 -63 -147 -105t-185 -43z" />
    <glyph glyph-name="edieresis" unicode="&#xeb;" horiz-adv-x="854" 
d="M287 1190q33 0 55 -25t23 -57q-1 -32 -23 -56t-55 -24t-56 24t-23 56t24 56q22 26 55 26zM640 1028q-32 0 -54 24t-23 56q0 32 23 56q24 26 56 26t54 -25t23 -57t-23 -56t-56 -24zM457 791q-89 0 -151 -70t-83 -193l447 13q-4 94 -64 172t-149 78zM459 -31
q-166 0 -271 112q-104 112 -104 289t131 316t279 139t226 -82q79 -82 79 -180q0 -23 -6 -43l-572 -12q-6 -43 -6 -78q0 -197 92 -295t227 -98t257 90v-10q-53 -63 -147 -105t-185 -43z" />
    <glyph glyph-name="igrave" unicode="&#xec;" horiz-adv-x="522" 
d="M291 948l-314 355q-5 6 5 18t23 19t18 1l274 -391v-2q-4 -2 -6 0zM267 0q-130 0 -210 -12q-4 2 2 10q106 12 130 40t24 148v346q0 106 -28 134t-107 -2q0 2 2 4q193 117 256 180l6 -6q-12 -63 -12 -301v-355q0 -124 22 -150t129 -38q2 0 2 -5t-2 -5q-84 12 -214 12z" />
    <glyph glyph-name="iacute" unicode="&#xed;" horiz-adv-x="522" 
d="M248 956q-2 2 -4 2l274 392q4 6 18 -1t21 -19q8 -12 4 -19zM267 0q-130 0 -210 -12q-4 2 2 10q106 12 130 40t24 148v346q0 106 -28 134t-107 -2q0 2 2 4q193 117 256 180l6 -6q-12 -63 -12 -301v-355q0 -124 22 -150t129 -38q2 0 2 -5t-2 -5q-84 12 -214 12z" />
    <glyph glyph-name="icircumflex" unicode="&#xee;" horiz-adv-x="522" 
d="M479 948l-225 320l-217 -320q-6 -6 -4 -2l221 416h8l2 -2l221 -414zM267 0q-130 0 -210 -12q-4 2 2 10q106 12 130 40t24 148v346q0 106 -28 134t-107 -2q0 2 2 4q193 117 256 180l6 -6q-12 -63 -12 -301v-355q0 -124 22 -150t129 -38q2 0 2 -5t-2 -5q-84 12 -214 12z
" />
    <glyph glyph-name="idieresis" unicode="&#xef;" horiz-adv-x="522" 
d="M88 1028q-34 0 -56 24t-22 56t23 56q23 26 55 26t56 -25q22 -25 22 -57t-22 -56t-56 -24zM441 1028q-33 0 -55 24t-22 56t24 56q22 26 54 26t56 -25q22 -25 22 -57t-24 -56t-55 -24zM267 0q-130 0 -210 -12q-4 2 2 10q106 12 130 40t24 148v346q0 106 -28 134t-107 -2
q0 2 2 4q193 117 256 180l6 -6q-12 -63 -12 -301v-355q0 -124 22 -150t129 -38q2 0 2 -5t-2 -5q-84 12 -214 12z" />
    <glyph glyph-name="eth" unicode="&#xf0;" horiz-adv-x="966" 
d="M506 43q114 0 184 117t70 362q0 45 -12 135q-129 98 -297 99q-117 0 -184 -85t-67 -258t96 -271t210 -99zM885 602q-1 -201 -55 -329t-170 -216t-248 -88q-133 0 -235 111q-101 110 -101 282t135 308t332 137q63 0 182 -16q-49 162 -117 247l-162 -98q-10 -2 -20 17
t-2 24l154 98q-119 123 -285 123q-31 0 -91 -20t-87 -45q-6 -2 0 6q37 59 113 98t145 39q170 0 309 -133l119 80q6 4 17 -10t5 -31l-112 -72q174 -211 174 -512z" />
    <glyph glyph-name="ntilde" unicode="&#xf1;" horiz-adv-x="1054" 
d="M402 1159q60 0 156 -37q97 -37 145 -37t79 27t45 100q10 0 11 -4q-8 -84 -49 -134t-99 -50t-155 40q-98 40 -158 40q-106 0 -131 -146l-10 7q8 92 57 143t109 51zM848 0q-125 0 -211 -12q-6 0 2 12q88 8 113 39t24 147v308q0 143 -34 203t-124 61q-51 0 -106 -23
t-168 -92v-457q0 -114 24 -146t111 -40l4 -12h-2q-87 12 -211 12t-211 -12v12q113 10 139 38t25 148v344q0 109 -28 136q-29 27 -113 -2q-2 0 -2 3t2 3q121 66 246 178q5 5 6 -10q2 -14 4 -44t4 -72t4 -63q233 166 363 166q188 0 188 -241v-398q0 -118 25 -148t135 -38
q4 0 2 -12q-86 12 -211 12z" />
    <glyph glyph-name="ograve" unicode="&#xf2;" horiz-adv-x="997" 
d="M496 948l-314 355q-4 6 6 18t22 19t17 1l275 -391v-2q-4 -2 -6 0zM485 795q-133 1 -201 -95t-67 -235q0 -215 88 -339q89 -124 223 -124t202 94t67 234q0 215 -89 340q-90 125 -223 125zM932 406q0 -172 -120 -304t-310 -133q-188 0 -303 123t-115 297t120 305t308 131
t304 -123q116 -124 116 -296z" />
    <glyph glyph-name="oacute" unicode="&#xf3;" horiz-adv-x="997" 
d="M430 956q-2 2 -4 2l274 392q4 6 18 -1t21 -19q8 -12 4 -19zM485 795q-133 1 -201 -95t-67 -235q0 -215 88 -339q89 -124 223 -124t202 94t67 234q0 215 -89 340q-90 125 -223 125zM932 406q0 -172 -120 -304t-310 -133q-188 0 -303 123t-115 297t120 305t308 131
t304 -123q116 -124 116 -296z" />
    <glyph glyph-name="ocircumflex" unicode="&#xf4;" horiz-adv-x="997" 
d="M725 948l-225 320l-217 -320l-7 -2l224 416h6l2 -2l223 -414zM485 795q-133 1 -201 -95t-67 -235q0 -215 88 -339q89 -124 223 -124t202 94t67 234q0 215 -89 340q-90 125 -223 125zM932 406q0 -172 -120 -304t-310 -133q-188 0 -303 123t-115 297t120 305t308 131
t304 -123q116 -124 116 -296z" />
    <glyph glyph-name="otilde" unicode="&#xf5;" horiz-adv-x="997" 
d="M636 1024q-58 0 -156 40t-158 40q-102 0 -132 -146q-2 -2 -8 7q8 92 56 143t127 51q43 0 140 -37t145 -37t79 27t43 100q10 0 10 -4q-8 -84 -48 -134t-98 -50zM485 795q-133 1 -201 -95t-67 -235q0 -215 88 -339q89 -124 223 -124t202 94t67 234q0 215 -89 340
q-90 125 -223 125zM932 406q0 -172 -120 -304t-310 -133q-188 0 -303 123t-115 297t120 305t308 131t304 -123q116 -124 116 -296z" />
    <glyph glyph-name="odieresis" unicode="&#xf6;" horiz-adv-x="997" 
d="M321 1028q-33 0 -55 24t-22 56t22 56q22 26 56 26t56 -25t22 -57t-24 -56q-22 -24 -55 -24zM675 1028q-33 0 -55 24t-22 56t23 56q23 26 55 26t56 -25q22 -25 22 -57t-24 -56t-55 -24zM485 795q-133 1 -201 -95t-67 -235q0 -215 88 -339q89 -124 223 -124t202 94t67 234
q0 215 -89 340q-90 125 -223 125zM932 406q0 -172 -120 -304t-310 -133q-188 0 -303 123t-115 297t120 305t308 131t304 -123q116 -124 116 -296z" />
    <glyph glyph-name="oslash" unicode="&#xf8;" horiz-adv-x="997" 
d="M532 2q121 0 189 94t67 234q0 211 -86 336l-407 -537q88 -127 237 -127zM478 795q-134 1 -202 -95t-67 -235q0 -205 80 -326l407 535q-84 121 -218 121zM510 825q139 0 244 -75l84 108q4 2 8 -6l-84 -109q76 -57 119 -145t43 -186q0 -178 -121 -310t-316 -133
q-143 0 -251 82l-89 -114q-4 -2 -8 6l88 114q-151 125 -151 315t120 322q120 131 314 131z" />
    <glyph glyph-name="ugrave" unicode="&#xf9;" horiz-adv-x="999" 
d="M528 948l-313 355q-4 6 5 18q8 12 22 19t18 1l275 -391v-2q-5 -2 -7 0zM762 -35q-47 0 -47 195q-186 -190 -334 -191q-97 -1 -155 61t-56 181l6 389q2 88 -19 111q-22 23 -118 24l-4 4q137 27 248 90q10 -6 10 -10q6 -55 6 -196l-4 -322q-2 -152 34 -206t134 -54t248 131
l8 438q1 88 -19 111t-116 29q-2 2 -6 4q139 25 249 84q15 0 15 -215l-4 -467q0 -80 35 -98q36 -17 137 12q2 -2 2 -5q0 -13 -110 -57q-110 -43 -140 -43z" />
    <glyph glyph-name="uacute" unicode="&#xfa;" horiz-adv-x="999" 
d="M420 956q-2 2 -4 2l274 392q4 6 18 -1t21 -19q8 -12 4 -19zM762 -35q-47 0 -47 195q-186 -190 -334 -191q-97 -1 -155 61t-56 181l6 389q2 88 -19 111q-22 23 -118 24l-4 4q137 27 248 90q10 -6 10 -10q6 -55 6 -196l-4 -322q-2 -152 34 -206t134 -54t248 131l8 438
q1 88 -19 111t-116 29q-2 2 -6 4q139 25 249 84q15 0 15 -215l-4 -467q0 -80 35 -98q36 -17 137 12q2 -2 2 -5q0 -13 -110 -57q-110 -43 -140 -43z" />
    <glyph glyph-name="ucircumflex" unicode="&#xfb;" horiz-adv-x="999" 
d="M719 948l-227 320l-216 -320l-6 -2l222 416h8l2 -2l221 -414q2 -4 -4 2zM762 -35q-47 0 -47 195q-186 -190 -334 -191q-97 -1 -155 61t-56 181l6 389q2 88 -19 111q-22 23 -118 24l-4 4q137 27 248 90q10 -6 10 -10q6 -55 6 -196l-4 -322q-2 -152 34 -206t134 -54
t248 131l8 438q1 88 -19 111t-116 29q-2 2 -6 4q139 25 249 84q15 0 15 -215l-4 -467q0 -80 35 -98q36 -17 137 12q2 -2 2 -5q0 -13 -110 -57q-110 -43 -140 -43z" />
    <glyph glyph-name="udieresis" unicode="&#xfc;" horiz-adv-x="999" 
d="M301 1028q-33 0 -55 24t-23 56q0 32 24 56q23 26 55 26t54 -25t23 -57q-1 -32 -23 -56t-55 -24zM654 1028q-32 0 -54 24t-22 56t22 56q22 26 56 26q32 0 55 -25t23 -57t-24 -56t-56 -24zM762 -35q-47 0 -47 195q-186 -190 -334 -191q-97 -1 -155 61t-56 181l6 389
q2 88 -19 111q-22 23 -118 24l-4 4q137 27 248 90q10 -6 10 -10q6 -55 6 -196l-4 -322q-2 -152 34 -206t134 -54t248 131l8 438q1 88 -19 111t-116 29q-2 2 -6 4q139 25 249 84q15 0 15 -215l-4 -467q0 -80 35 -98q36 -17 137 12q2 -2 2 -5q0 -13 -110 -57
q-110 -43 -140 -43z" />
    <glyph glyph-name="yacute" unicode="&#xfd;" horiz-adv-x="833" 
d="M412 956q-2 2 -4 2l274 392q4 6 17 -1t21 -19t5 -19zM240 -524h-66q-78 -2 -129 -13q-2 -1 -1 5t3 8q68 10 129 59q88 68 168 285l53 147l-223 649q-35 106 -79 144t-128 43q-2 0 -2 4t2 4q57 -8 195 -8t213 8v-8q-89 -10 -103 -43t23 -148l164 -495l196 495
q41 111 26 146t-106 45q-2 2 -2 8q76 -8 172 -8t154 8v-8q-86 -5 -128 -45t-81 -142q0 -2 -70 -169t-124 -302q-52 -135 -112 -331t-77 -336q-18 -2 -67 -2z" />
    <glyph glyph-name="thorn" unicode="&#xfe;" horiz-adv-x="991" 
d="M424 -31q-74 0 -143 21v-324q-1 -120 33 -148t182 -32q2 0 2 -6t-2 -6q-147 10 -269 2q-135 -4 -211 -17q-2 8 2 11q100 14 120 41q19 27 20 151l-2 381q-8 4 -30 17t-34 20l64 100l2 994q0 106 -30 133t-114 -2l4 6q205 113 269 172l8 -6q-14 -57 -14 -295v-510
q158 135 299 135t240 -111q100 -110 100 -272t-146 -308t-350 -147z" />
    <glyph glyph-name="ydieresis" unicode="&#xff;" horiz-adv-x="833" 
d="M287 1190q33 0 55 -25t23 -57q-1 -32 -23 -56t-55 -24t-56 24t-23 56t24 56q22 26 55 26zM640 1028q-32 0 -54 24t-23 56q0 32 23 56q24 26 56 26t54 -25t23 -57t-23 -56t-56 -24zM249 -524h-67q-78 -2 -129 -13q-2 -1 -1 5t3 8q68 10 129 59q88 68 168 285l54 147
l-224 649q-35 106 -79 144t-128 43q-2 0 -2 4t2 4q57 -8 195 -8t213 8v-8q-88 -10 -102 -43t22 -148l164 -495l197 495q42 111 26 146t-106 45q-2 2 -2 8q76 -8 172 -8t153 8v-8q-86 -5 -128 -45t-81 -142q0 -2 -70 -169t-124 -302q-52 -135 -112 -331t-77 -336
q-16 -2 -66 -2z" />
    <glyph glyph-name="dotlessi" unicode="&#x131;" horiz-adv-x="522" 
d="M275 0q-137 0 -224 -12q-4 2 2 10q113 12 137 40t25 148v346q0 109 -29 135t-112 -3q0 2 2 4q203 117 268 180l8 -6q-14 -59 -14 -301v-355q0 -124 24 -150t136 -38q2 0 2 -5t-2 -5q-86 12 -223 12z" />
    <glyph glyph-name="Lslash" unicode="&#x141;" horiz-adv-x="1144" 
d="M336 334v297l-154 -35q-14 0 -14 12q2 6 8 8l160 39v430q0 94 -28 149q-8 16 -38 30t-52 17t-81 9q-4 2 -2 8q121 -14 277 -14t266 14q4 -2 2 -8q-41 -4 -79 -7q-67 -6 -93 -55q-27 -50 -27 -175v-363l199 47q10 2 12 -8l-211 -63v-332q0 -236 47 -273q25 -18 84 -18h113
q280 0 321 51q19 25 35 94q10 2 11 0q-19 -176 -43 -194q-8 -6 -29 -6l-330 12q-338 0 -573 -16q-6 0 2 12q137 14 166 33q43 29 49 145q2 45 2 160z" />
    <glyph glyph-name="lslash" unicode="&#x142;" horiz-adv-x="495" 
d="M309 186q0 -124 25 -150t135 -38q2 0 2 -5t-2 -5q-86 12 -223 12t-223 -12q-4 2 2 10q113 12 137 40t24 148v531l-176 -41q-10 0 -10 10t6 10l180 43v435q0 106 -29 133q-30 27 -114 -2q2 6 4 6q205 113 268 172l9 -6q-14 -57 -15 -295v-412l199 47q14 0 11 -16l-210 -58
v-557z" />
    <glyph glyph-name="OE" unicode="&#x152;" horiz-adv-x="2045" 
d="M1161 1022q0 113 -21 161q-22 48 -90 68t-223 21q-229 0 -388 -161t-158 -425q1 -311 167 -492t451 -182q168 0 215 48t47 200v762zM1724 700q8 0 14 12t9 14q2 1 5 18t3 20q10 2 12 0q-14 -54 -14 -116t4 -95q0 -8 -12 4q-8 57 -44 77t-173 21h-221v-313q0 -253 58 -289
q26 -16 81 -16h104q121 0 187 6q65 6 103 30q38 25 49 51t26 87q10 0 10 -2q-33 -197 -54 -215q-7 -6 -26 -6l-348 12q-109 0 -341 -11t-300 -12q-340 -1 -532 183t-193 463q0 279 216 481t536 201q65 -1 281 -11t369 -10t339 14q-10 -47 -10 -106t2 -76q-2 -4 -11 2
q-12 76 -74 103t-257 26h-201q-14 -104 -14 -289v-276h221l132 4q24 0 40 7t24 7z" />
    <glyph glyph-name="oe" unicode="&#x153;" horiz-adv-x="1554" 
d="M477 795q-133 1 -201 -95t-67 -235q0 -215 88 -339t222 -124t199 94t64 234q0 217 -86 341t-219 124zM1153 799q-86 0 -148 -77t-81 -206l430 14q-4 102 -60 186t-141 83zM1171 -31q-217 0 -329 201q-129 -201 -355 -201q-179 0 -295 124t-116 296t122 304t312 132
q229 0 344 -209q62 98 154 154t204 55q112 0 192 -84q79 -84 79 -190q0 -23 -6 -43l-555 -10q-4 -27 -4 -70q0 -203 95 -298t227 -95t249 90v-12q-53 -66 -141 -105t-177 -39z" />
    <glyph glyph-name="Scaron" unicode="&#x160;" horiz-adv-x="1042" 
d="M592 1436q-4 0 -6 4l-232 411q0 2 2 2t4 -2l240 -317l225 317q2 2 4 2t2 -2l-233 -413q-2 -2 -6 -2zM911 358q-1 -166 -113 -284t-296 -117q-184 0 -338 135q-2 18 0 41l8 92q6 70 6 127q0 2 5 2t5 -2q10 -168 100 -265t247 -97q117 0 197 66t81 190q0 80 -44 146
t-111 108q-66 43 -144 91t-144 94t-111 117q-44 71 -44 159q0 141 109 253t262 111q153 0 260 -63q20 -12 20 -209q0 -2 -4 -2t-6 2q-18 117 -91 178t-182 61t-185 -62t-74 -150q1 -154 152 -253q66 -41 142 -89t141 -94t109 -120t43 -166z" />
    <glyph glyph-name="scaron" unicode="&#x161;" horiz-adv-x="694" 
d="M358 944q-4 0 -6 4l-231 412q0 2 2 2t4 -2l240 -318l225 318q2 2 4 2t2 -2l-233 -414q-3 -2 -7 -2zM327 -31q-128 0 -229 60q-6 4 -6 221q2 2 8 -2q35 -130 106 -192t159 -62q154 0 153 156q0 95 -140 177q-58 35 -116 69t-98 86q-41 52 -41 130t73 146t186 68t181 -35
q18 -10 19 -199h-11q-27 94 -90 153t-127 59t-95 -38q-32 -39 -32 -97q0 -102 138 -173q57 -31 114 -64t97 -86t40 -121q0 -104 -80 -180t-209 -76z" />
    <glyph glyph-name="Ydieresis" unicode="&#x178;" horiz-adv-x="1497" 
d="M637 1503q-35 0 -59 24q-24 23 -23 55q0 32 25 58q24 26 58 25q34 0 58 -25q24 -24 23 -56q1 -32 -23 -56t-59 -25zM1011 1665q33 0 57 -25q24 -24 24 -56t-24 -56t-59 -25q-34 0 -58 24q-23 23 -23 55t24 58t59 25zM829 230q1 -123 19 -161q18 -39 30 -43t38 -14
q27 -11 110 -16q2 -2 2 -7t-2 -5q-124 16 -266 16t-277 -16q-2 0 -1 5t3 7q49 6 65 7t47 9q32 8 37 14q36 40 38 61t8 61t5 79t-1 107l-2 289l-178 284q-150 237 -222 303t-202 80q-4 2 -2 8q118 -14 276 -14t264 14q4 -2 3 -8q-72 -6 -102 -22q-29 -16 -19 -66t46 -111
q36 -62 120 -192l145 -221l184 268q154 224 160 276t-125 68q-4 2 -2 8q116 -14 218 -14t212 14q2 0 2 -4t-2 -4q-130 -14 -196 -70t-213 -266l-220 -315v-409z" />
    <glyph glyph-name="Zcaron" unicode="&#x17d;" horiz-adv-x="1372" 
d="M696 1436q-4 0 -6 4l-231 411q0 2 2 2t4 -2l240 -317l225 317q2 2 4 2t2 -2l-234 -413q-2 -2 -6 -2zM127 -11q0 5 4 9l918 1249h-512q-152 0 -239 -23q-51 -14 -78 -84q-7 -22 -15 -69l-12 -2q8 33 8 103t-8 126q190 -14 497 -14t553 14q2 0 2 -4t-2 -8l-911 -1239h547
q144 0 187 8q42 8 72 15t55 36q25 30 32 72q8 43 14 86q10 0 10 -2q-1 -47 -13 -129q-12 -81 -21 -107t-16 -32t-25 -6l-418 12q-342 0 -625 -16q-4 0 -4 5z" />
    <glyph glyph-name="zcaron" unicode="&#x17e;" horiz-adv-x="839" 
d="M438 944q-4 0 -6 4l-231 412q0 2 2 2t4 -2l239 -318l226 318q2 2 4 2t2 -2l-234 -414q-2 -2 -6 -2zM447 803q181 0 321 8q2 0 2 -3t-2 -5l-537 -774h291q104 1 173 73t83 183q10 0 10 -2q0 -29 -20 -139t-25 -134q-6 -16 -22 -16l-275 6q-215 0 -303 -5t-88 -3t2 4
l543 782h-240q-114 0 -166 -54t-83 -165l-9 2q16 83 33 250q131 -8 312 -8z" />
    <glyph glyph-name="florin" unicode="&#x192;" horiz-adv-x="966" 
d="M180 -268q111 0 154 143q35 113 46 351t28 333h-238q-4 0 -4 10t4 11l240 -2q41 238 139 368q145 190 313 191q60 0 102 -37t45 -79t-15 -70t-38 -38q-18 -10 -22 -6q-121 129 -209 129q-53 0 -84 -30q-70 -67 -96 -433l272 5q2 0 4 -11t-6 -10l-272 2l-2 -16
q-25 -333 -68 -481t-124 -248t-144 -136q-63 -34 -137 -34t-133 38q-58 38 -61 85t16 75t41 34q22 7 28 -1q49 -67 109 -105t112 -38z" />
    <glyph glyph-name="circumflex" unicode="&#x2c6;" horiz-adv-x="571" 
d="M518 948l-237 320l-228 -320l-6 -2l234 416h8l2 -2l233 -414z" />
    <glyph glyph-name="caron" unicode="&#x2c7;" horiz-adv-x="571" 
d="M285 944q-4 0 -6 4l-232 412q0 2 2 2t4 -2l240 -318l225 318q2 2 4 2t2 -2l-233 -414q-2 -2 -6 -2z" />
    <glyph glyph-name="breve" unicode="&#x2d8;" horiz-adv-x="686" 
d="M618 1264q0 -117 -76 -200t-199 -83q-122 0 -198 83t-75 200q2 2 6 0q12 -98 90 -156t178 -57q100 0 177 57t89 156q0 2 4 2t4 -2z" />
    <glyph glyph-name="dotaccent" unicode="&#x2d9;" horiz-adv-x="485" 
d="M245 1190q33 0 57 -25t24 -57t-24 -56t-58 -24q-35 0 -59 24q-23 24 -23 56t24 56q24 26 59 26z" />
    <glyph glyph-name="ring" unicode="&#x2da;" horiz-adv-x="448" 
d="M225 1294q-63 0 -108 -45t-45 -108t44 -109t108 -45q64 0 110 45q45 44 45 108t-45 109q-46 45 -109 45zM224 975q-68 0 -116 48t-48 117q0 70 48 118t116 48t118 -48q49 -50 49 -118t-49 -117q-49 -48 -118 -48z" />
    <glyph glyph-name="ogonek" unicode="&#x2db;" horiz-adv-x="454" 
d="M224 -526q-72 0 -125 52q-52 52 -52 136q0 162 332 387q2 2 5 -1t1 -5q-143 -115 -195 -194t-51 -155q0 -76 44 -120q44 -45 114 -45t139 65q4 0 8 -8q-89 -112 -220 -112z" />
    <glyph glyph-name="tilde" unicode="&#x2dc;" horiz-adv-x="735" 
d="M244 1159q43 0 145 -37q101 -37 153 -37t85 27t47 100q10 0 10 -4q-8 -84 -51 -134t-103 -50t-164 40q-103 40 -167 40q-109 0 -138 -146l-10 7q9 92 61 143t132 51z" />
    <glyph glyph-name="hungarumlaut" unicode="&#x2dd;" horiz-adv-x="616" 
d="M266 948q-2 -2 -6 2l279 404q4 6 18 0q13 -6 23 -18t6 -19zM53 948q-2 -2 -6 0l260 416q5 6 19 1t25 -17t5 -19z" />
    <glyph glyph-name="Omega" unicode="&#x3a9;" horiz-adv-x="1132" 
d="M594 1370q-242 0 -242 -496v-86h389v95q0 213 95 372q-103 115 -242 115zM49 758v6q106 8 178 31l2 41q15 254 151 434t316 180q106 0 213 -98q125 121 277 121q53 0 103 -26q50 -27 50 -51q-1 -24 -25 -64t-44 -40t-94 43t-123 43q-111 0 -151 -95t-40 -361v-134h117
q137 0 170 9q10 -1 6 -31t-8 -31q-68 6 -141 6h-144v-555q0 -114 37 -148t176 -40q2 0 2 -5t-2 -5q-86 12 -231 12t-232 -12v10q88 10 109 39q20 29 20 149v555h-389v-555q0 -118 27 -150t151 -38q2 0 2 -5t-2 -5q-86 12 -232 12t-232 -12q-4 2 2 10q114 12 138 40t23 148
v555l-174 2q-6 0 -6 15z" />
    <glyph glyph-name="pi" unicode="&#x3c0;" horiz-adv-x="1382" 
d="M707 530v5q137 6 137 142t-125 136q-10 0 -41 -6q-10 -45 -10 -123v-250q0 -86 15 -112t79 -29v-4q-43 6 -128 6t-136 -6l-2 4q63 6 79 30t17 111v246q0 88 -16 113t-80 30q-2 4 0 4q53 -6 129 -6l106 4q82 0 138 -37q57 -38 57 -102t-56 -109t-147 -47h-16zM690 1122
q-236 0 -402 -167t-165 -403q0 -236 166 -404q165 -166 401 -166t404 166t168 403q0 235 -168 403t-404 168zM691 -31q-241 0 -411 171t-169 412q0 241 170 412q171 171 411 171t411 -171t171 -412t-171 -412t-412 -171z" />
    <glyph glyph-name="endash" unicode="&#x2013;" horiz-adv-x="1290" 
d="M1159 536q0 -16 -4 -16l-510 6l-510 -6q-8 0 -6 16t4 17l512 -6l512 6q2 -1 2 -17z" />
    <glyph glyph-name="emdash" unicode="&#x2014;" horiz-adv-x="1802" 
d="M129 538q0 16 4 15l768 -6l768 6q8 0 0 -31l-768 6l-768 -6q-4 0 -4 16z" />
    <glyph glyph-name="quoteleft" unicode="&#x2018;" 
d="M133 1164q0 -54 80 -99q4 -2 14 -8q9 -6 13 -8q4 -1 11 -7q21 -16 21 -42t-20 -42t-59 -16t-78 42t-39 124t66 141q67 59 177 68q6 -2 3 -10q-94 -4 -142 -46q-47 -43 -47 -97z" />
    <glyph glyph-name="quoteright" unicode="&#x2019;" 
d="M248 1104q0 53 -82 100q-8 4 -16 10t-12 8q-5 3 -8 5t-7 5t-5 6t-5 9t-4 27t19 38t58 17t79 -43t40 -125q1 -83 -67 -141t-179 -66q-6 2 -2 11q94 4 143 45q48 41 48 94z" />
    <glyph glyph-name="quotesinglbase" unicode="&#x201a;" 
d="M248 -103q0 53 -82 101q-4 2 -10 6t-10 6t-14 9q-11 7 -13 11q-2 5 -4 8t-4 11q-2 7 -2 23t19 33t58 17t79 -42q40 -43 40 -125q1 -83 -67 -141t-179 -66q-6 2 -2 10q94 4 143 45q48 41 48 94z" />
    <glyph glyph-name="quotedblleft" unicode="&#x201c;" horiz-adv-x="700" 
d="M135 1164q0 -54 80 -99q4 -2 14 -8q9 -6 13 -8q4 -1 11 -7q21 -17 21 -43q0 -25 -20 -41t-59 -16t-78 42t-39 124t66 141q67 59 178 68q6 -2 2 -10q-94 -4 -142 -46q-47 -43 -47 -97zM436 1164q0 -54 80 -99q4 -2 14 -8t14 -8q4 -1 10 -7q21 -16 21 -42t-20 -42t-59 -16
t-78 42t-39 124t66 141q67 59 178 68q6 -2 2 -10q-94 -4 -142 -46q-47 -43 -47 -97z" />
    <glyph glyph-name="quotedblright" unicode="&#x201d;" horiz-adv-x="700" 
d="M248 1104q0 53 -82 100q-8 4 -16 10t-12 8q-5 3 -8 5t-7 5t-5 6t-5 9t-4 27t19 38t58 17t79 -43t40 -125q1 -83 -67 -141t-179 -66q-6 2 -2 11q94 4 143 45q48 41 48 94zM549 1104q0 53 -82 100q-7 4 -15 10t-13 8q-5 3 -8 5t-7 5t-5 6t-5 9t-4 27t19 38t58 17t79 -43
t40 -125q0 -83 -68 -141t-178 -66q-6 2 -2 11q94 4 143 45q48 41 48 94z" />
    <glyph glyph-name="quotedblbase" unicode="&#x201e;" horiz-adv-x="741" 
d="M248 -103q0 53 -82 101q-4 2 -10 6t-10 6t-14 9q-11 7 -13 11q-2 5 -4 8t-4 11q-2 7 -2 23t19 33t58 17t79 -42q40 -43 40 -125q1 -83 -67 -141t-179 -66q-6 2 -2 10q94 4 143 45q48 41 48 94zM549 -103q0 53 -82 101q-4 2 -10 6q-5 4 -9 6t-15 9t-13 11q-2 5 -4 8t-4 11
q-2 7 -2 23t19 33t58 17t79 -42q40 -43 40 -125q0 -83 -68 -141t-178 -66q-6 2 -2 10q94 4 143 45q48 41 48 94z" />
    <glyph glyph-name="dagger" unicode="&#x2020;" horiz-adv-x="860" 
d="M430 -43q-12 0 -12 4l8 950l-375 -4q-2 1 -2 13t2 12l373 -4l-8 393q0 4 13 4t13 -4l-4 -393l371 4q4 0 4 -12t-4 -13l-371 4l4 -950q0 -4 -12 -4z" />
    <glyph glyph-name="daggerdbl" unicode="&#x2021;" horiz-adv-x="860" 
d="M429 -43q-13 0 -13 4l6 395l-371 -4q-4 0 -4 12t4 13l371 -4v536l-371 -2q-4 1 -4 13t4 12l371 -4l-6 393q0 4 13 4t13 -4l-4 -393l369 4q4 0 4 -12t-4 -13l-369 2v-536l369 4q4 0 4 -12t-4 -13l-369 4l4 -395q0 -4 -13 -4z" />
    <glyph glyph-name="bullet" unicode="&#x2022;" 
d="M200 582q-30 0 -49 20t-19 48t20 50t50 23q30 0 50 -22q20 -21 20 -49t-21 -49t-51 -21z" />
    <glyph glyph-name="ellipsis" unicode="&#x2026;" horiz-adv-x="1122" 
d="M272 40q0 -28 -21 -50t-51 -23q-30 0 -49 22q-19 21 -19 49t20 50t50 23q30 0 50 -22q20 -21 20 -49zM560 -33q-30 0 -49 22q-19 21 -19 49t20 50t50 23q30 0 50 -22q20 -21 20 -49t-20 -50q-22 -22 -52 -23zM993 40q0 -28 -21 -50t-51 -23q-30 0 -50 22q-19 21 -19 49
t20 50t50 23q30 0 51 -22q20 -21 20 -49z" />
    <glyph glyph-name="perthousand" unicode="&#x2030;" horiz-adv-x="1605" 
d="M881 308q0 120 -31 178t-80 59q-49 0 -89 -76t-40 -197t30 -178t79 -57t90 76q41 75 41 195zM1403 308q0 120 -31 178t-80 59q-49 0 -89 -76t-40 -197t30 -178t79 -57t90 76q41 75 41 195zM331 1081q-50 -1 -90 -77t-40 -196q-1 -120 29 -177t80 -57t91 75q41 76 41 196
t-30 178q-31 58 -81 58zM983 376q0 -102 -46 -192t-128 -152t-132 -63q-50 0 -94 67t-44 170t46 192t124 149q80 65 132 65t97 -66t45 -170zM1505 376q0 -102 -46 -192t-128 -152t-132 -63q-50 0 -94 67t-44 170t46 192t124 149q80 65 132 65t97 -66t45 -170zM165 -68
q-9 0 -9 7l376 618l373 625q4 6 19 -2q4 -2 2 -4l-379 -619l-371 -623q-2 -2 -11 -2zM404 1147q50 0 94 -66t45 -169q0 -104 -46 -194t-127 -150t-132 -60t-95 64q-43 66 -43 170t45 193t127 151t132 61z" />
    <glyph glyph-name="guilsinglleft" unicode="&#x2039;" horiz-adv-x="616" 
d="M504 174l-414 236l4 10l412 233q0 -2 -2 -6l-316 -237l316 -228l2 -8h-2z" />
    <glyph glyph-name="guilsinglright" unicode="&#x203a;" horiz-adv-x="616" 
d="M111 174l-2 2q2 4 4 6l317 228l-317 237q-2 4 -2 6l411 -233q4 -4 2 -10z" />
    <glyph glyph-name="fraction" unicode="&#x2044;" horiz-adv-x="1079" 
d="M66 -76q-4 -2 -11 6l959 1428q4 2 10 -6z" />
    <glyph glyph-name="trademark" unicode="&#x2122;" horiz-adv-x="1128" 
d="M596 895l-78 -2q0 2 2 4q46 5 60 25t16 79l4 209q0 27 -20 50t-60 26v6q35 -6 142 -6l143 -315l88 205q35 86 41 112q70 -6 143 4v-6q-53 -4 -65 -22t-11 -84l5 -179q2 -65 14 -83t61 -21q6 -6 2 -6q-36 4 -105 4t-97 -4q-2 4 0 6q39 3 54 23t13 81l-4 240l-6 2
l-156 -358q-2 0 -2 2l-159 352l-7 -2l-4 -236q-2 -59 12 -81t58 -23q2 -2 2 -4t-20 0t-66 2zM240 895l-99 -2q0 2 2 4q47 5 61 23t15 81v271h-69q-52 0 -70 -18t-27 -56h-6q6 43 6 70t-6 49h8q3 -17 21 -25t74 -8h190q55 0 74 6q18 6 22 25q4 4 8 0q-6 -21 -6 -64t2 -53h-6
q-4 25 -10 38q-17 36 -84 36h-64v-271q0 -63 14 -82t58 -22v-6q-40 4 -108 4z" />
    <glyph glyph-name="product" unicode="&#x220f;" horiz-adv-x="1411" 
d="M1279 1210q-13 0 -167 12t-227 11h-84v-1031q0 -40 8 -87t16 -61t35 -30q26 -16 54 -20t83 -8q2 0 2 -6t-2 -6q-123 16 -275 16t-267 -16q-2 0 -2 6t2 6q107 10 119 16q48 24 51 36q2 11 13 33t10 41t3 54t4 70v987h-237q-137 -1 -219 -19t-112 -40t-71 -70q-4 -2 -10 4
q33 41 116 116q83 74 96 74t167 -11t227 -11h467q221 0 290 33q44 20 59 33t55 55q4 0 6 -8q-33 -39 -115 -109t-95 -70z" />
    <glyph glyph-name="summation" unicode="&#x2211;" horiz-adv-x="1720" 
d="M307 408q1 -144 101 -244t232 -100t214 46q82 48 164 148q-199 231 -455 467q-113 -39 -185 -126t-71 -191zM842 1081q0 95 -54 155t-138 60q-85 0 -129 -50t-44 -138q0 -127 199 -289q166 98 166 262zM1507 18q68 0 131 35q-2 -2 4 -8q-109 -92 -233 -92
q-168 0 -377 291q-115 -137 -221 -212t-233 -75t-261 87q-63 42 -104 117t-41 165q0 134 97 242t278 177q-187 156 -187 287t81 212t213 81t214 -69q84 -69 84 -171q0 -166 -264 -282q170 -154 412 -434q174 236 174 362q0 72 -182 86v8l2 2q113 -16 274 -16t285 16
q2 0 2 -5t-2 -5q-133 -7 -219 -63t-209 -236l-111 -164q248 -336 393 -336z" />
    <glyph glyph-name="radical" unicode="&#x221a;" horiz-adv-x="1609" 
d="M594 1370q-117 0 -179 -114t-63 -382v-86h389v70q0 213 111 385q-64 67 -122 97t-136 30zM862 788h443l-2 496q-29 43 -85 72t-120 28q-117 0 -176 -108t-60 -377v-111zM49 758v6q121 10 178 31l2 41q15 254 151 434t316 180q125 0 230 -111q135 133 280 134
q92 0 156 -50q49 35 70 60q8 0 8 -4q-14 -55 -15 -297v-996q0 -124 25 -150t135 -38q2 0 2 -5t-2 -5q-86 12 -211 12t-211 -12v10q100 12 121 40q20 28 21 148v555h-443v-555q0 -114 32 -148t159 -40q2 0 2 -5t-2 -5q-87 12 -221 12t-220 -12v10q88 10 109 39q20 29 20 149
v555h-389v-555q0 -118 27 -150t151 -38q2 0 2 -5t-2 -5q-86 12 -232 12t-232 -12q-4 2 2 10q114 12 138 40t23 148v555l-176 2q-4 0 -4 15z" />
    <glyph glyph-name="approxequal" unicode="&#x2248;" horiz-adv-x="1611" 
d="M606 1370q-129 0 -191 -114t-63 -382v-86h389v70q0 207 115 375q-121 137 -250 137zM49 758v6q106 10 178 31l2 41q15 254 151 434t316 180q127 0 236 -125q152 147 321 148q55 0 105 -26t51 -46q0 -35 -26 -75t-47 -40t-96 43t-124 43q-254 0 -254 -473v-111h393
q119 0 177 54q2 2 8 -6q-14 -57 -15 -295v-355q0 -124 22 -150t132 -38q2 0 2 -5t-2 -5q-86 12 -208 12t-208 -12q-2 0 -2 5t2 5q98 12 119 39q20 27 21 149v408q1 80 -15 114t-55 33h-371v-555q0 -114 37 -148t176 -40q2 0 2 -5t-2 -5q-87 12 -233 12t-232 -12q-4 2 2 10
q88 10 109 39q20 29 20 149v555h-389v-555q0 -118 27 -150t151 -38q2 0 2 -5t-2 -5q-86 12 -232 12t-232 -12q-4 2 2 10q114 12 138 40t23 148v555l-176 2q-4 0 -4 15z" />
    <glyph glyph-name="lessequal" unicode="&#x2264;" horiz-adv-x="1693" 
d="M819 1292q-237 0 -387 -163t-149 -441q0 -326 177 -512q176 -186 414 -186t389 163t150 441q0 166 -51 302q-93 249 -327 350q-105 46 -216 46zM1533 -313q118 0 214 43l-2 -11l-2 -2q-141 -88 -297 -88t-298 78q-144 78 -333 250q-297 4 -491 202t-193 467
q0 269 211 484t518 215t506 -198q199 -199 199 -449t-160 -449t-412 -254q137 -131 279 -209t261 -79z" />
    <glyph glyph-name="lozenge" unicode="&#x25ca;" horiz-adv-x="1333" 
d="M1139 774q147 0 180 8q4 -2 4 -15t-4 -29t-8 -17q-90 8 -146 8h-143l-4 -524q0 -72 32 -117t102 -45t171 33q2 0 -2 -8q-61 -47 -135 -73t-123 -26q-92 0 -134 46t-40 143l6 571q-131 0 -152 -2q-4 2 -2 10q162 59 217 129t56 150q0 119 -91 201q-91 81 -233 81t-228 -91
q-85 -91 -85 -224q0 -82 57 -158q68 -6 129 -34q16 -12 17 -199q-2 -4 -11 2q-27 92 -90 151t-127 59t-95 -38q-32 -39 -32 -97q0 -102 139 -173q58 -31 115 -64t97 -86t40 -121q0 -104 -80 -180t-210 -76q-129 0 -228 60q-4 4 -10 221l10 2q72 -258 267 -258q152 0 151 156
q0 66 -61 120t-135 90t-136 98q-61 62 -61 148t75 153t210 66q-62 84 -62 213t101 250t254 121t245 -121t92 -303l-14 -211h115z" />
    <glyph glyph-name="apple" unicode="&#xf8ff;" horiz-adv-x="1980" 
d="M827 98q-25 0 -25 34t26 34q24 0 24 -34t-25 -34zM719 133h-6q-16 0 -17 17q0 12 15 12q8 0 8 -8v-21zM1130 162q6 0 5 -3q0 -3 -7 -14l-4 11q0 6 6 6zM784 360q-23 0 -38 20t-15 50q0 31 29 31l12 -2q8 0 12 -13l19 -73q0 -12 -8 -13h-11zM1460 385q0 -31 -20 -31
t-35 25q-14 25 -14 55t20 31q21 -1 35 -25t14 -55zM563 412q-31 0 -31 28q0 20 17 21q14 0 14 -15l10 -34h-10zM797 786h-23q-27 0 -26 23q0 23 26 22h23v-45zM1350 1178q18 0 34 -24t15 -56q0 -31 -25 -31q-18 0 -34 25q-15 26 -15 56t25 30zM553 1133q-6 -9 -13 -9t-8 4
q0 6 8 6t13 -1zM1135 1129q0 5 9 5t13 -1q-6 -9 -14 -9t-8 5zM350 1122q-31 0 -31 31q-1 18 15 18t20 -12l6 -37h-10zM878 -205q20 0 21 26q0 26 -20 25q-21 0 -21 -26t20 -25zM1614 -205q20 0 20 26t-20 25q-20 0 -20 -26t20 -25zM1151 -188l-10 22l-11 -22h21zM782 -156
v-24h6q17 0 17 12t-14 12h-9zM1217 -156v-24h4q18 0 18 12t-14 12h-8zM1051 -154v-24h8q12 0 12 12t-14 12h-6zM631 100q-12 0 -13 11v41q0 10 13 10v6l-19 -2l-18 2v-6q12 0 12 -10v-21q-4 0 -8 6l-16 17q-4 4 -4 6t6 2v6l-15 -2l-12 2v-6q8 0 16 -8l19 -19l-27 -26
q-8 -8 -14 -9l-2 -2q0 -4 2 -4l16 2l21 -2v6q-6 0 -6 3t2 6l14 16q4 4 8 4v-18q0 -10 -12 -11v-6l18 2l19 -2v6zM745 97q0 3 -2 3q-10 0 -10 11v41q0 10 10 10q2 0 2 3t-2 3l-18 -2l-18 2q-25 0 -25 -18q0 -12 16 -19l-16 -22q-4 -8 -14 -9v-4h24l13 23q8 10 14 10v-18
q0 -10 -10 -11l-2 -2q0 -4 2 -4l16 2l18 -2q2 0 2 3zM868 131q0 37 -40 37t-40 -37t40 -37t40 37zM963 97q0 3 -2 3q-10 0 -11 11v16l17 25q4 10 14 10v4h-16l-17 2l-2 -2q0 -4 3 -4t3 -4t-2 -6l-12 -19l-12 19l-2 4q0 6 8 6v6l-17 -2l-12 2v-6q8 0 17 -10l16 -25v-16
q0 -10 -10 -11v-6l18 2l17 -2q2 0 2 3zM1189 162q3 0 3 4h-14l-17 2v-6q4 0 4 -6v-4l-18 -39l-12 18l10 19q2 12 12 12q2 2 2 4l-2 2l-14 -2l-15 2l-10 -2l-14 2v-2q0 -4 5 -4t17 -23l-14 -26l-16 37v6q0 6 3 6t3 3t-2 3l-13 -2l-10 2v-6q6 0 13 -12l24 -56h4l15 31l18 -31
h2l25 56q8 12 11 12zM1294 100q-12 0 -12 11v41q0 10 12 10v6l-32 -2l-25 2q-4 -16 -4 -21v-2q2 0 4 8t18 9h5q8 0 8 -8v-19h-8q-10 0 -12 6t-3 6v-28h2q2 12 13 12h8v-22q0 -8 -8 -9h-5q-18 0 -24 19h-2q-2 0 1 -5t5 -20q7 2 29 2t30 -2v6zM1393 96h28v4q-12 0 -12 11
l-2 41q0 10 12 10v6l-10 -2l-10 2l-49 -51v35q0 10 12 10v6l-16 -2l-15 2v-6q12 0 12 -10v-58h7l51 56l2 -39q0 -10 -10 -11l-2 -2q0 -2 2 -2zM1692 262v8h-1403v-8h1403zM588 451q0 8 14 10l2 2q0 4 -4 4h-53q-39 0 -39 -25q0 -12 11 -22t26 -12l-19 -33q-6 -13 -16 -17
t-10 -6l2 -4q20 4 37 4l24 45q4 6 12 6l7 -26v-8q0 -7 -8 -9t-9 -6l2 -4l31 2l27 -2q2 2 2 4l-2 4q-18 2 -21 19l-16 65v9zM1032 452q0 8 19 9l2 2q0 4 -4 4h-29l-62 -82l-8 57q-4 16 15 19l2 2q0 4 -4 4l-23 -2l-20 2v-6q16 -2 20 -19l16 -92q0 -2 2 -2h5l63 90l10 -61
q4 -16 -12 -19q-2 0 -2 -4l2 -4l25 2l18 -2q2 0 2 4l-2 4q-18 2 -18 19l-15 65q-2 2 -2 10zM1184 467h-47v-2q0 -4 2 -4q20 -2 22 -19l10 -41q13 -53 55 -53t42 33q0 4 -4 16l-11 45v4l-2 5q1 8 19 10q0 6 -2 6h-60v-2q0 -4 2 -4q18 -2 21 -19l10 -43q4 -16 4 -20
q0 -20 -26 -21q-31 0 -41 45l-9 39q0 2 -2 4v5q0 8 17 10v6zM1645 451q0 8 16 10l2 2q0 4 -4 4h-90v-35l2 -2l2 2q6 27 29 27h8q10 0 12 -13l8 -30h-10q-18 0 -25 18h-6q6 -18 6 -26t7 -23h4q-2 23 16 23h10l6 -31v-4l2 -4q0 -8 -16 -11v-4q0 -4 2 -4l31 2l26 -2q3 2 3 4
q-2 4 -5 4q-16 2 -18 19l-18 65v9zM367 436q0 19 18 19q10 0 25 -15h4q4 4 0 4q-14 27 -37 27q-29 0 -29 -37v-10q-14 47 -49 47q-18 0 -18 -25v-2h6q0 12 16 13q38 0 51 -80v-8q0 -8 -14 -11v-4q0 -4 2 -4l31 2l24 -2q2 2 2 4l-2 4q-18 2 -24 30t-6 48zM709 418
q-1 -27 21 -46t50 -20h31q27 0 35 -2v4q0 4 -2 4q-18 2 -21 19l-16 65v9q0 8 14 10v6h-30l-31 2q-20 0 -36 -12t-15 -39zM1435 348q50 0 50 49q0 27 -23 51t-45 23q-49 0 -49 -49q0 -26 23 -50t44 -24zM1692 557v8h-1403v-8h1403zM567 631v67h-28v133h28v70h-288v-127h83v57
h68v-40h-49v-50h49v-43h-68v58h-83v-125h288zM932 631v67h-29v133h29v70h-197q-43 1 -69 -23t-27 -60q0 -36 27 -58t69 -23h62v-39h-31v-67h166zM1319 831v70h-166v-70h23l-31 -47l-31 47h21v70h-127v-70h24l76 -94v-39h-29v-67h166v67h-31v41l76 92h29zM1690 774v127h-301
v-127h73v57h23v-133h-29v-67h166v67h-29v133h23v-57h74zM1692 975v8h-1403v-8h1403zM713 1085q-10 0 -11 -12q0 -23 24 -23t36 13q12 12 22 12q10 -14 22 -14t11 6q0 16 -26 18q-6 8 -11 35q-9 62 -49 64q-10 0 -18 -7t-8 -15t9 -9q9 0 9 12t10 13q11 0 15 -16t8 -39
q4 -24 16 -38q-16 0 -26 -13t-18 -13q-9 0 -9 8l4 10q0 8 -10 8zM375 1164q0 7 16 10v6l-26 -2l-29 2q-41 0 -41 -27t39 -35l-17 -33q-10 -16 -20 -17t-10 -4t4 -3l37 2l24 47q2 6 10 6l9 -29v-8q0 -8 -17 -10v-2q0 -4 2 -4l31 2l27 -2q2 0 2 2l-2 4q-16 4 -23 18l-14 68
q-2 2 -2 9zM1018 1065q0 4 -8 6t-15 16l-14 68q-2 2 -2 9q0 6 8 8t8 4l-2 4l-51 -2q-6 0 -20 1t-21 1q2 -4 2 -15l-2 -20q0 -2 3 -2t3 2q2 27 29 26h8q10 0 12 -12l7 -33h-9q-18 0 -24 19q0 2 -3 2t0 -7t3 -18q4 -8 4 -24h6q-2 23 16 22h11l6 -33q2 -2 2 -9q1 -7 -9 -8
t-10 -3q2 -4 5 -4l28 2l29 -2v2zM1679 1066q0 3 -10 5t-12 16l-17 68q-2 2 -2 9q0 6 10 8t9 5q0 3 -4 3l-29 -2l-27 2v-2q0 -4 7 -5t14 -18l6 -29h-51l-8 29v8q0 8 14 11v2q0 4 -2 4l-29 -2l-26 2v-6q16 -2 22 -19l15 -68q2 -2 2 -9t-17 -9v-2q0 -4 2 -4l31 2l25 -2v6
q-18 4 -19 18l-8 31h51l6 -31q2 -2 2 -9t-14 -9v-2q0 -4 2 -4l29 2l26 -2q2 0 2 3zM551 1098q0 10 -17 10t-18 -21q0 -27 41 -27t41 38q0 25 -27 37q8 8 9 18q0 11 -12 21t-29 10q-27 0 -27 -25q0 -12 10 -12t10 6l-6 12q0 13 16 13t17 -25q0 -4 -2 -8v-4h-18q-14 0 -15 -13
q0 -12 14 -12t25 10q12 -12 12 -30q-1 -29 -25 -29t-24 18q0 6 4 7q3 -4 11 -5q10 1 10 11zM1153 1098q0 10 -16 10t-17 -21q0 -27 41 -27t41 38q0 23 -26 37q8 8 8 18q0 11 -12 21t-29 10q-27 0 -27 -25q0 -12 9 -12t10 6l-7 12q0 12 15 13q20 0 20 -25q0 -8 -4 -12h-16
q-16 0 -17 -13q0 -12 14 -12t25 10q13 -8 13 -34t-25 -25q-25 0 -25 18q0 6 7 7l10 -5q8 1 8 11zM1421 1110q-1 26 -23 50t-44 24q-51 0 -51 -45q1 -31 23 -55q40 -43 81 -12q14 11 14 38zM1692 1268v8h-1403v-8h1403zM897 1356q2 0 2 2l-2 2q-10 2 -10 12v39q0 12 10 12
q2 0 2 2l-2 2h-57q0 -12 -4 -20q2 -2 4 -2v2q6 16 18 16h6q8 0 8 -8v-20h-8q-12 0 -12 10q0 2 -2 2t-2 -2v-25q0 -2 2 -2l2 2q0 12 12 13h8v-25q0 -6 -8 -6h-6q-14 0 -24 18l-3 -2q0 -4 9 -22h57zM993 1356h37v4q-12 2 -12 12v39q0 12 12 12v4h-37v-4q10 0 11 -12v-16h-35
v16q0 12 10 12v4h-35q-2 0 -2 -2t2 -2q10 0 10 -12v-39q0 -10 -6 -11t-6 -3t2 -2h35v4q-10 2 -10 12v19h35v-19q0 -10 -11 -12v-4zM1092 1423q6 0 6 -6v-45q0 -10 -6 -11t-7 -3q0 -2 2 -2h35q2 0 2 2t-6 3t-6 11v45q0 6 6 6q16 0 23 -18h4l-8 25q-4 -2 -31 -2t-33 2
q0 -4 -4 -25h4q6 18 19 18zM573 -207q0 -8 -7 -8t-7 8t7 8t7 -8zM1464 -207q0 -8 -8 -8t-8 8t8 8t8 -8zM268 -143h2l19 -45l14 43h14l-20 -50q-2 -14 -8 -20l-21 45l-10 -25l-10 -20h-2l-19 51l-6 19l12 2l17 -45l10 26q8 16 8 19zM381 -143h4l18 -45l9 24l6 19h12l-18 -50
q-6 -12 -6 -18l-5 -2l-18 45l-12 -25q-4 -8 -9 -20h-2l-18 51q-4 12 -8 19l14 2l14 -45l13 26zM496 -143h2l18 -45l10 24l6 19h13l-19 -50q-8 -16 -8 -18l-2 -2l-18 45l-13 -25q-4 -8 -8 -20h-2l-18 51q-2 2 -4 8t-4 11l14 2l14 -45l12 26zM623 -190v34h-25v13q10 -2 30 -2
t31 2q-2 -4 -2 -13h-22v-57h-14q2 4 2 23zM717 -213h-15v29q-19 30 -26 39l14 2l21 -31l18 29h14l-26 -39v-29zM791 -143q28 0 28 -24t-31 -23h-6v-9q0 -12 2 -14h-14v68l8 2h13zM913 -178q0 -37 -34 -37q-14 0 -25 10q-10 10 -10 25q0 37 37 37q14 -1 23 -11t9 -24z
M973 -176h31v-31q-12 -8 -27 -8q-37 0 -37 35t39 37q10 0 22 -9l-4 -10q-8 8 -20 8q-23 0 -23 -26t25 -25q4 0 12 4v15h-18v10zM1051 -186v-27h-15v68h21q29 0 28 -19q0 -12 -14 -20l10 -15q0 -3 11 -14h-15l-16 27h-10zM1126 -197v-2q-4 -8 -6 -14h-14l24 49q4 8 9 21h4
l22 -50q7 -10 11 -20h-13l-8 16h-29zM1253 -167q0 -24 -30 -23h-6v-23h-15q2 4 2 23v22q0 18 -2 23l23 2q28 0 28 -24zM1296 -145v-27h33v4q0 18 -2 23h14v-68h-14q2 4 2 23v8h-33v-31h-14q2 4 2 23v22q0 18 -2 23h14zM1409 -213h-14v29q-19 27 -27 39l14 2l21 -31
q4 8 18 29h15l-27 -39v-29zM1491 -180q0 35 37 37q12 0 22 -7l-4 -10q-6 6 -18 6q-23 0 -23 -26t25 -25q8 0 20 8l-2 -12q-6 -6 -20 -6q-37 0 -37 35zM1649 -178q0 -37 -35 -37q-14 0 -25 10q-10 10 -10 25q0 37 37 37q14 -1 24 -11t9 -24zM1745 -213v4q-2 6 -2 8l-4 27
q-18 -35 -21 -41h-4l-20 41l-4 -27q0 -10 -2 -12h-13q4 12 4 23l9 47h2q6 -12 6 -15l20 -37l21 37q6 12 6 15h2q4 -12 4 -25l8 -45h-12zM1776 0h-1571v1536h1571v-1536z" />
    <glyph glyph-name="fi" unicode="&#xfb01;" horiz-adv-x="1097" 
d="M49 758v6q133 12 178 31l2 63q8 250 167 432t345 183q55 0 105 -26t51 -46q0 -35 -26 -75t-47 -40t-95 43t-125 43q-254 0 -254 -473v-111h393q119 0 177 54q2 2 5 0t3 -4q-14 -55 -15 -297v-355q0 -124 25 -150t135 -38q2 0 2 -5t-2 -5q-86 12 -211 12t-211 -12v10
q100 12 121 40q20 28 21 148v408q0 147 -72 147h-371v-555q0 -114 32 -148t159 -40q2 0 2 -5t-2 -5q-85 12 -237 12t-238 -12q-4 2 2 10q114 12 138 40t23 148v555l-176 2q-4 0 -4 15z" />
    <glyph glyph-name="fl" unicode="&#xfb02;" horiz-adv-x="1097" 
d="M350 788h443l-2 496q-29 43 -85 72t-120 28q-117 0 -176 -108t-60 -377v-111zM49 758v6q106 10 178 31l2 63q9 254 147 434t318 181q92 0 156 -50q49 35 70 60q8 0 8 -4q-14 -55 -15 -297v-996q0 -124 25 -150t135 -38q2 0 2 -5t-2 -5q-86 12 -211 12t-211 -12v10
q100 12 121 40q20 28 21 148v555h-443v-555q0 -114 32 -148t159 -40q2 0 2 -5t-2 -5q-85 12 -237 12t-238 -12q-4 2 2 10q114 12 138 40t23 148v555l-176 2q-4 0 -4 15z" />
  </font>
</defs>
</svg>
