<?xml version="1.0" encoding="UTF-8" standalone="no"?>
<!DOCTYPE svg  PUBLIC '-//W3C//DTD SVG 1.1//EN'  'http://www.w3.org/Graphics/SVG/1.1/DTD/svg11.dtd'>
<svg id="Layer_1" xmlns="http://www.w3.org/2000/svg" xml:space="preserve" height="184px" viewBox="0 0 366 184" width="366px" version="1.1" y="0px" x="0px" xmlns:xlink="http://www.w3.org/1999/xlink" enable-background="new 0 0 366 184">
	<g fill="#231F20">
		<path d="m59.52 111.24c-5.91 0-8.86-4.11-9.99-8.24-0.63 0.13-1.49 0.18-2.04 0.18-0.57 0-0.68 0-1.1-0.05v3.16c0 3.87 0.03 4.05 2.46 4.23 0.05 0.03 0.13 0.34-0.03 0.32-0.78-0.11-2.06-0.19-3.16-0.19-1.49 0-2.67 0.05-3.74 0.19-0.13 0.02-0.08-0.29-0.03-0.32 2.35-0.23 2.46-0.21 2.46-4.23v-7.87c0-3.03-0.08-3.94-1.57-3.94-0.29 0-0.6 0.05-0.97 0.1-0.08 0-0.16-0.26-0.03-0.31 1.05-0.34 3.56-0.42 6.35-0.42 3.66 0 6.64 1.13 6.64 3.97 0 1.46-0.89 3.58-3.55 4.68 1.36 3.82 5.41 8.42 8.31 8.42 0.07 0.01 0.15 0.32-0.01 0.32zm-11.71-16.83c-0.42 0-0.73 0.03-1.18 0.05-0.16 0.52-0.24 1.75-0.24 3.74v4.42c0.42 0.03 0.6 0.03 1.07 0.03 3.87 0 5.23-1.47 5.23-3.69 0.01-3.63-2.32-4.55-4.88-4.55z"/>
		<path d="m76.12 111.19c-5.33 0-8.99-4.08-8.99-8.54 0-4.29 3.92-9.07 9.46-9.07 5.36 0 9.02 4.07 9.02 8.52 0 4.31-3.92 9.09-9.49 9.09zm-0.1-17.02c-3.89 0-6.77 2.83-6.77 7.61 0 5.8 3.79 8.81 7.48 8.81 3.9 0 6.77-2.82 6.77-7.61-0.01-5.8-3.82-8.81-7.48-8.81z"/>
		<path d="m101.61 111.19c-1.78 0-3.21-0.57-4.55-1.72-0.13-0.13 0.1-1.57 0.16-3.37 0-0.08 0.31-0.08 0.31-0.02 0.18 2.72 1.62 4.52 4.31 4.52 1.78 0 3.45-1.02 3.45-3.16 0-4.34-7.63-4.37-7.63-9.12 0-2.35 2.04-4.73 4.91-4.73 1.46 0 2.43 0.31 3.29 0.81 0.18 0.1 0.31 1.07 0.31 2.77 0 0.08-0.29 0.08-0.31 0.03-0.32-1.96-1.6-3.01-3.48-3.01-1.67 0-3.16 1.07-3.16 2.75 0 4.15 7.5 4.08 7.5 9.07 0.01 2.8-2.11 5.18-5.11 5.18z"/>
		<path d="m122.05 110.67c-1.49 0-2.67 0.05-3.74 0.19-0.16 0.02-0.08-0.29-0.03-0.32 2.33-0.23 2.46-0.21 2.46-4.23v-7.84c0-4.02-0.13-4-2.46-4.26-0.05 0-0.13-0.32 0.03-0.29 1.07 0.13 2.25 0.19 3.74 0.19 1.07 0 2.38-0.08 3.16-0.19 0.13-0.03 0.08 0.29 0 0.29-2.4 0.21-2.43 0.39-2.43 4.26v7.84c0 3.87 0.03 4.05 2.43 4.23 0.08 0.03 0.13 0.34 0 0.32-0.78-0.11-2.09-0.19-3.16-0.19z"/>
		<path d="m148.82 110.33c-0.13 0.42-0.23 0.47-0.62 0.47-0.94 0-2.56-0.13-4.45-0.13-2.56 0-5.17 0.05-7.03 0.19-0.16 0.02-0.08-0.29-0.03-0.32 2.64-0.29 2.69-0.18 2.69-4.23v-7.84c0-4.08-0.05-3.95-2.69-4.26-0.05 0-0.13-0.32 0.03-0.29 1.85 0.13 4.34 0.19 6.93 0.19 1.88 0 3.6-0.08 4.99-0.19-0.11 0.37-0.16 0.86-0.16 1.41 0 0.26 0.02 0.78 0.05 0.99 0 0.08-0.31 0.05-0.31 0-0.21-1.18-0.73-1.57-4.13-1.57h-2.51c-0.1 0.65-0.16 1.88-0.16 3.58v3.45h2.72c2.87 0 2.67-0.26 2.82-0.97 0.03-0.02 0.34-0.05 0.31 0-0.1 0.39-0.18 1.05-0.18 1.65 0 0.29 0.03 0.84 0.05 1.04 0.03 0.08-0.29 0.05-0.29 0-0.16-0.83-0.29-1.2-2.72-1.2h-2.72v3.89c0 3.5 0.47 3.82 1.67 3.82h1.33c3.97 0 4.21-0.39 4.57-2.15 0.02-0.03 0.31-0.03 0.31 0.05-0.08 0.67-0.31 1.87-0.47 2.42z"/>
		<path d="m180.89 110.77c-0.86 0-2.59-0.1-3.19-0.1-1.49 0-2.67 0.05-3.74 0.19-0.16 0.02-0.08-0.29-0.03-0.32 2.33-0.23 2.46-0.21 2.46-4.23v-7.84c0-4.02-0.13-4-2.46-4.26-0.05 0-0.13-0.32 0.03-0.29 1.07 0.13 1.8 0.19 3.29 0.19 0.6 0 2.27-0.11 3.11-0.11 2.82 0 5.18 1.31 5.18 3.84 0 1.62-1.65 3.34-3.82 3.74 3.08-0.1 5.36 1.65 5.36 4.08 0.01 2.86-2.37 5.11-6.19 5.11zm-1.75-8.88c-0.08 0-0.08-0.31 0-0.31 3.14 0 4.42-0.92 4.42-3.42 0-2.69-1.57-3.63-3.82-3.63-0.39 0-0.63 0.03-1.07 0.11-0.18 0.81-0.23 1.83-0.23 3.81v8c0 3.5 0.23 3.81 2.2 3.81 2.87 0 4.36-1.02 4.36-4.18 0-2.63-2.2-4.61-5.86-4.19z"/>
		<path d="m207.11 111.19c-5.33 0-8.99-4.08-8.99-8.54 0-4.29 3.92-9.07 9.46-9.07 5.36 0 9.02 4.07 9.02 8.52 0 4.31-3.92 9.09-9.49 9.09zm-0.1-17.02c-3.9 0-6.77 2.83-6.77 7.61 0 5.8 3.79 8.81 7.47 8.81 3.9 0 6.77-2.82 6.77-7.61 0-5.8-3.81-8.81-7.47-8.81z"/>
		<path d="m244.6 94.46c-0.42-0.08-0.76-0.1-1.21-0.1-4.18 0-7.5 5.36-7.5 11.29v0.65c0 3.87 0.03 4.05 2.43 4.23 0.08 0.03 0.13 0.34 0 0.32-0.81-0.11-2.09-0.19-3.17-0.19-1.49 0-2.66 0.05-3.74 0.19-0.16 0.02-0.08-0.29-0.03-0.32 2.33-0.23 2.46-0.21 2.46-4.23v-0.65c0-6.45-3.69-11.24-7.66-11.24-0.36 0-0.63 0.03-0.94 0.05-0.05 0.03-0.16-0.24-0.03-0.29 0.86-0.31 1.72-0.44 2.54-0.44 3.79 0 6.59 3.45 7.52 7.48 1.28-4.1 4.26-7.32 7.61-7.32 0.58 0 1.15 0.08 1.72 0.29 0.15 0.05 0.05 0.31 0 0.28z"/>
		<path d="m265.83 110.33c-0.13 0.42-0.26 0.47-0.63 0.47-0.95 0-2.33-0.13-4.21-0.13-2.59 0-5.41 0.05-7.3 0.19-0.13 0.02-0.08-0.29 0-0.32 2.64-0.29 2.67-0.18 2.67-4.23v-7.84c0-4.02-0.11-4-2.43-4.26-0.08 0-0.13-0.32 0-0.29 1.1 0.13 2.27 0.19 3.74 0.19 1.1 0 2.38-0.08 3.16-0.19 0.16-0.03 0.08 0.29 0.03 0.29-2.43 0.21-2.46 0.39-2.46 4.26v7.84c0 3.29 0.26 3.63 1.59 3.63h1.44c4.02 0 4.13-0.26 4.47-1.78 0-0.02 0.31-0.05 0.29 0.03-0.08 0.7-0.21 1.59-0.36 2.14z"/>
		<path d="m292.54 110.85c-0.79-0.11-1.86-0.19-2.93-0.19-1.49 0-2.82 0.05-3.9 0.19-0.13 0.02-0.08-0.29-0.02-0.32 1.25-0.13 1.86-0.18 1.86-0.92 0-0.78-0.5-2.01-0.97-3.32l-0.78-2.14h-5.88l-0.92 2.15c-0.66 1.57-1.12 2.59-1.12 3.32 0 0.63 0.52 0.81 1.72 0.92 0.08 0.03 0.13 0.34 0 0.32-0.78-0.11-1.39-0.19-2.46-0.19-1.49 0-1.52 0.05-2.59 0.19-0.13 0.02-0.08-0.29-0.02-0.32 1.75-0.13 2.43-1.23 3.71-4.23l5.52-12.63c0.05-0.1 0.26-0.1 0.31 0l4.71 12.63c1.17 3.21 1.64 4.08 3.79 4.23 0.05 0.02 0.13 0.34-0.03 0.31zm-9.41-14.22l-2.98 7.01h5.46l-2.48-7.01z"/>
		<path d="m318.42 98.46v7.84c0 1.31 0.08 3.68 0.21 4.78 0 0.08-0.21 0.1-0.31-0.03l-12.7-13.67v8.91c0 3.55 0.03 4.05 2.46 4.23 0.05 0.03 0.13 0.34-0.03 0.32-0.78-0.11-1.49-0.19-2.56-0.19-1.49 0-2.09 0.05-3.16 0.19-0.16 0.02-0.08-0.29-0.02-0.32 2.32-0.23 2.46-0.52 2.46-4.23v-9.17c0-1.2-1.68-2.77-2.93-2.93-0.05 0-0.11-0.32 0.03-0.29 1.07 0.13 2.04 0.19 3.53 0.19l12.18 13.2v-8.83c0-3.71-0.1-4-2.46-4.26-0.05 0-0.1-0.32 0.03-0.29 1.07 0.13 1.67 0.19 3.16 0.19 1.07 0 1.78-0.08 2.56-0.19 0.15-0.03 0.1 0.29 0.02 0.29-2.44 0.21-2.47 0.71-2.47 4.26z"/>
	</g>
			<path fill="#E3AE4C" clip-rule="evenodd" d="m128.87 66.5s6.39-5.45 6.82-9.17c0.29-2.46 3.92-6.81 6.35-9.49 1.25-1.37 2.19-2.3 2.19-2.31l10.01-3.83 8.42-3.9 1.11 3.52 6.63-5.93 5.61-0.79 4.57-0.87 12.17 0.2-12.75 15.36 23.7-15.18 6.86-1.01 9.99 2.99 6.55 3.47 7.5 2.58-10.26 8.51-14.21-2.78-5.11 2.95-13.07 6.85-23.24 1.63 2.04 3.41-23.78 0.23 14.98 7.34-5.59 1.72-7.81-4 1.32 2.79s-6.71-1.85-5.68-0.96c1.34 1.17 3.86 3.5 3.86 3.5l-7.11-2.94s-8.74-3.27-10.95-1.95c-2.21 1.33-1.12-1.94-1.12-1.94z" fill-rule="evenodd"/>
		<polygon points="129.48 67.9 120.08 73.4 121.86 75.4 131.75 67.56"/>
			<path fill="#EF4136" clip-rule="evenodd" d="m144.2 53.65c-0.02-0.11-0.02-0.23-0.04-0.34 0.04 0 0.09 0.01 0.13 0.02-0.03 0.11-0.07 0.21-0.09 0.32z" fill-rule="evenodd"/>
			<path fill="#EF4136" clip-rule="evenodd" d="m144.36 53.8c-0.07 0.06-0.14 0.12-0.2 0.18 0.01-0.11 0.03-0.22 0.04-0.33h-0.01c0.06 0.05 0.11 0.1 0.17 0.15z" fill-rule="evenodd"/>
		<path fill="#fff" clip-rule="evenodd" d="m142.9 57.79c1.45-1.46 7.28-3.81 7.28-3.81l73.85-10.44-68.43 15.76-12.12 0.73-12.16 9.07" fill-rule="evenodd"/>
			<polyline stroke-linejoin="round" points="124.36 76.55 130.37 70.87 146.98 57.16 161.99 55.13 224.04 43.54" stroke="#000" stroke-linecap="round" stroke-miterlimit="10" stroke-dasharray="1.1941,1.1941" stroke-width=".6579" fill="none"/>
			<line y2="134.64" x1="83.21" x2="43.53" stroke="#E3AE4C" stroke-miterlimit="10" y1="134.64" stroke-width=".6573" fill="none"/>
			<line y2="134.64" x1="319.15" x2="279.47" stroke="#E3AE4C" stroke-miterlimit="10" y1="134.64" stroke-width=".6573" fill="none"/>
			<path d="m96.29 131.24h0.68v3.64h3.46v-3.64h0.68v6.46h-0.68v-2.19h-3.46v2.19h-0.68v-6.46z"/>
			<path d="m108.37 131.17h0.11l2.74 6.53h-0.72l-0.44-1.08h-3.27l-0.43 1.08h-0.67l2.68-6.53zm1.44 4.87l-1.14-2.88c-0.03-0.08-0.06-0.16-0.09-0.25s-0.06-0.17-0.08-0.25c-0.03-0.09-0.05-0.18-0.08-0.28-0.03 0.1-0.06 0.19-0.09 0.28-0.03 0.08-0.05 0.16-0.08 0.25s-0.06 0.17-0.09 0.25l-1.14 2.88h2.79z"/>
			<path d="m116.53 131.85h-1.99v-0.61h4.65v0.61h-1.99v5.85h-0.68v-5.85z"/>
			<path d="m125.4 137.78c-0.31 0-0.59-0.04-0.83-0.11s-0.45-0.17-0.64-0.29c-0.18-0.12-0.34-0.26-0.47-0.42s-0.24-0.32-0.32-0.49l0.57-0.3c0.08 0.13 0.16 0.26 0.26 0.38s0.21 0.23 0.34 0.32 0.28 0.17 0.46 0.22 0.38 0.08 0.6 0.08c0.19 0 0.37-0.03 0.53-0.08s0.3-0.12 0.42-0.22 0.22-0.21 0.29-0.35 0.1-0.29 0.1-0.46-0.03-0.31-0.08-0.44-0.13-0.24-0.23-0.35c-0.1-0.1-0.23-0.2-0.38-0.29s-0.33-0.18-0.53-0.27l-0.51-0.24c-0.23-0.1-0.43-0.21-0.61-0.32s-0.33-0.24-0.45-0.38-0.21-0.29-0.28-0.46c-0.06-0.17-0.1-0.37-0.1-0.6s0.04-0.45 0.13-0.64c0.08-0.19 0.2-0.35 0.35-0.49s0.33-0.24 0.54-0.31 0.43-0.11 0.67-0.11c0.44 0 0.79 0.09 1.07 0.27s0.5 0.41 0.67 0.7l-0.55 0.34c-0.13-0.2-0.28-0.37-0.47-0.5-0.18-0.13-0.43-0.2-0.73-0.2-0.32 0-0.57 0.08-0.75 0.25s-0.27 0.39-0.27 0.67c0 0.29 0.08 0.51 0.24 0.67s0.42 0.33 0.79 0.49l0.51 0.24c0.27 0.12 0.5 0.25 0.71 0.38 0.2 0.13 0.37 0.27 0.51 0.43s0.24 0.33 0.31 0.52 0.1 0.41 0.1 0.65c0 0.27-0.05 0.5-0.15 0.72-0.1 0.21-0.24 0.39-0.42 0.54s-0.39 0.26-0.63 0.34-0.48 0.11-0.77 0.11z"/>
			<path d="m137.71 131.24h2.19c0.3 0 0.57 0.04 0.79 0.12s0.41 0.2 0.55 0.34c0.15 0.15 0.25 0.32 0.33 0.51s0.11 0.4 0.11 0.61c0 0.32-0.07 0.6-0.21 0.82s-0.35 0.38-0.63 0.47c0.42 0.1 0.74 0.3 0.98 0.6 0.23 0.3 0.35 0.66 0.35 1.09 0 0.27-0.04 0.51-0.12 0.74s-0.21 0.43-0.38 0.6-0.38 0.3-0.64 0.4-0.56 0.15-0.9 0.15h-2.42v-6.45zm2.24 2.65c0.37 0 0.64-0.1 0.8-0.29s0.24-0.44 0.24-0.74c0-0.15-0.02-0.28-0.06-0.41-0.04-0.12-0.11-0.23-0.2-0.32s-0.21-0.16-0.35-0.21-0.32-0.08-0.53-0.08h-1.46v2.04h1.56zm0.13 3.2c0.25 0 0.46-0.03 0.64-0.1s0.32-0.16 0.43-0.28 0.19-0.25 0.25-0.41 0.08-0.33 0.08-0.52c0-0.38-0.12-0.69-0.35-0.94s-0.59-0.37-1.09-0.37h-1.65v2.62h1.69z"/>
			<path d="m148.47 135.68l-2.44-4.44h0.77l1.76 3.21c0.03 0.06 0.06 0.13 0.1 0.2s0.06 0.14 0.09 0.21c0.03 0.08 0.05 0.16 0.09 0.24 0.03-0.08 0.05-0.15 0.09-0.23 0.03-0.07 0.06-0.14 0.09-0.21s0.07-0.14 0.1-0.21l1.75-3.21h0.71l-2.39 4.41v2.05h-0.7v-2.02z"/>
			<path d="m165.88 137.7h-0.81l-1.24-1.76c-0.22 0.04-0.45 0.06-0.68 0.06h-0.77v1.7h-0.68v-6.46h1.45c0.44 0 0.83 0.06 1.16 0.18s0.61 0.28 0.84 0.49c0.22 0.21 0.39 0.46 0.51 0.75 0.11 0.29 0.17 0.61 0.17 0.96 0 0.49-0.11 0.91-0.34 1.27-0.22 0.36-0.56 0.63-1.01 0.82l1.4 1.99zm-2.77-2.31c0.37 0 0.68-0.04 0.93-0.13s0.46-0.21 0.62-0.37c0.16-0.16 0.27-0.35 0.35-0.56 0.07-0.22 0.11-0.45 0.11-0.7s-0.04-0.49-0.11-0.71-0.19-0.41-0.35-0.57c-0.16-0.16-0.37-0.28-0.62-0.37-0.26-0.09-0.56-0.13-0.93-0.13h-0.73v3.54h0.73z"/>
			<path d="m173.66 137.78c-0.46 0-0.89-0.08-1.29-0.24-0.41-0.16-0.76-0.39-1.05-0.68-0.3-0.29-0.53-0.64-0.71-1.04-0.17-0.41-0.26-0.85-0.26-1.34s0.09-0.93 0.26-1.34 0.41-0.75 0.71-1.04 0.65-0.52 1.05-0.68c0.41-0.16 0.84-0.24 1.29-0.24 0.46 0 0.89 0.08 1.3 0.24 0.4 0.16 0.75 0.39 1.05 0.68s0.54 0.64 0.71 1.04 0.26 0.85 0.26 1.34c0 0.49-0.09 0.93-0.26 1.34s-0.41 0.75-0.71 1.04c-0.3 0.29-0.65 0.52-1.05 0.68s-0.84 0.24-1.3 0.24zm0-0.61c0.38 0 0.73-0.07 1.04-0.21 0.32-0.14 0.59-0.33 0.83-0.57 0.23-0.24 0.42-0.53 0.55-0.85s0.19-0.68 0.19-1.07c0-0.39-0.06-0.75-0.19-1.07s-0.31-0.61-0.55-0.85c-0.23-0.24-0.51-0.43-0.83-0.57s-0.67-0.21-1.04-0.21-0.72 0.07-1.04 0.21-0.6 0.33-0.83 0.57c-0.23 0.24-0.41 0.53-0.54 0.85-0.13 0.33-0.19 0.68-0.19 1.07s0.06 0.75 0.19 1.07c0.13 0.33 0.31 0.61 0.54 0.85s0.51 0.43 0.83 0.57 0.67 0.21 1.04 0.21z"/>
			<path d="m183.37 137.78c-0.31 0-0.59-0.04-0.83-0.11s-0.45-0.17-0.64-0.29c-0.18-0.12-0.34-0.26-0.47-0.42s-0.24-0.32-0.32-0.49l0.57-0.3c0.08 0.13 0.16 0.26 0.26 0.38s0.21 0.23 0.34 0.32 0.28 0.17 0.46 0.22 0.38 0.08 0.6 0.08c0.19 0 0.37-0.03 0.53-0.08s0.3-0.12 0.42-0.22 0.22-0.21 0.29-0.35 0.1-0.29 0.1-0.46-0.03-0.31-0.08-0.44-0.13-0.24-0.23-0.35c-0.1-0.1-0.23-0.2-0.38-0.29s-0.33-0.18-0.53-0.27l-0.51-0.24c-0.23-0.1-0.43-0.21-0.61-0.32s-0.33-0.24-0.45-0.38-0.21-0.29-0.28-0.46c-0.06-0.17-0.1-0.37-0.1-0.6s0.04-0.45 0.13-0.64c0.08-0.19 0.2-0.35 0.35-0.49s0.33-0.24 0.54-0.31 0.43-0.11 0.67-0.11c0.44 0 0.79 0.09 1.07 0.27s0.5 0.41 0.67 0.7l-0.55 0.34c-0.13-0.2-0.28-0.37-0.47-0.5-0.18-0.13-0.43-0.2-0.73-0.2-0.32 0-0.57 0.08-0.75 0.25s-0.27 0.39-0.27 0.67c0 0.29 0.08 0.51 0.24 0.67s0.42 0.33 0.79 0.49l0.51 0.24c0.27 0.12 0.5 0.25 0.71 0.38 0.2 0.13 0.37 0.27 0.51 0.43s0.24 0.33 0.31 0.52 0.1 0.41 0.1 0.65c0 0.27-0.05 0.5-0.15 0.72-0.1 0.21-0.24 0.39-0.42 0.54s-0.39 0.26-0.63 0.34-0.47 0.11-0.77 0.11z"/>
			<path d="m190.18 131.24h0.69v6.46h-0.69v-6.46z"/>
			<path d="m196.1 131.24h3.93v0.61h-3.25v3.02h2.9v0.61h-2.9v1.61h3.38v0.61h-4.07v-6.46z"/>
			<path d="m210.51 131.24h2.19c0.3 0 0.57 0.04 0.79 0.12s0.41 0.2 0.55 0.34c0.15 0.15 0.25 0.32 0.33 0.51 0.07 0.19 0.11 0.4 0.11 0.61 0 0.32-0.07 0.6-0.21 0.82s-0.35 0.38-0.63 0.47c0.42 0.1 0.74 0.3 0.98 0.6 0.23 0.3 0.35 0.66 0.35 1.09 0 0.27-0.04 0.51-0.12 0.74s-0.21 0.43-0.38 0.6-0.38 0.3-0.64 0.4-0.56 0.15-0.9 0.15h-2.42v-6.45zm2.24 2.65c0.37 0 0.64-0.1 0.8-0.29s0.24-0.44 0.24-0.74c0-0.15-0.02-0.28-0.06-0.41s-0.11-0.23-0.2-0.32c-0.09-0.09-0.21-0.16-0.35-0.21s-0.32-0.08-0.53-0.08h-1.46v2.04h1.56zm0.14 3.2c0.25 0 0.46-0.03 0.64-0.1s0.32-0.16 0.43-0.28 0.19-0.25 0.25-0.41 0.08-0.33 0.08-0.52c0-0.38-0.12-0.69-0.35-0.94s-0.59-0.37-1.09-0.37h-1.65v2.62h1.69z"/>
			<path d="m222.66 137.78c-0.46 0-0.89-0.08-1.29-0.24-0.41-0.16-0.76-0.39-1.05-0.68-0.3-0.29-0.53-0.64-0.71-1.04-0.17-0.41-0.26-0.85-0.26-1.34s0.09-0.93 0.26-1.34 0.41-0.75 0.71-1.04 0.65-0.52 1.05-0.68c0.41-0.16 0.84-0.24 1.29-0.24 0.46 0 0.89 0.08 1.3 0.24 0.4 0.16 0.75 0.39 1.05 0.68s0.54 0.64 0.71 1.04c0.17 0.41 0.26 0.85 0.26 1.34s-0.09 0.93-0.26 1.34-0.41 0.75-0.71 1.04-0.65 0.52-1.05 0.68-0.84 0.24-1.3 0.24zm0-0.61c0.38 0 0.73-0.07 1.04-0.21 0.32-0.14 0.59-0.33 0.83-0.57 0.23-0.24 0.42-0.53 0.55-0.85s0.2-0.68 0.2-1.07c0-0.39-0.07-0.75-0.2-1.07s-0.31-0.61-0.55-0.85c-0.23-0.24-0.51-0.43-0.83-0.57s-0.66-0.21-1.04-0.21c-0.37 0-0.72 0.07-1.04 0.21s-0.6 0.33-0.83 0.57-0.41 0.53-0.54 0.85-0.19 0.68-0.19 1.07c0 0.39 0.06 0.75 0.19 1.07s0.31 0.61 0.54 0.85c0.23 0.24 0.51 0.43 0.83 0.57s0.67 0.21 1.04 0.21z"/>
			<path d="m232.25 135.68l-2.44-4.44h0.77l1.76 3.21c0.03 0.06 0.06 0.13 0.1 0.2 0.03 0.07 0.06 0.14 0.09 0.21 0.03 0.08 0.05 0.16 0.09 0.24 0.03-0.08 0.05-0.15 0.08-0.23 0.03-0.07 0.06-0.14 0.09-0.21s0.07-0.14 0.1-0.21l1.75-3.21h0.71l-2.39 4.41v2.05h-0.7v-2.02z"/>
			<path d="m239.91 131.24h0.68v5.85h3.05v0.61h-3.73v-6.46z"/>
			<path d="m250.64 131.17h0.11l2.74 6.53h-0.72l-0.44-1.08h-3.27l-0.43 1.08h-0.67l2.68-6.53zm1.44 4.87l-1.14-2.88c-0.03-0.08-0.06-0.16-0.09-0.25s-0.06-0.17-0.08-0.25c-0.03-0.09-0.05-0.18-0.08-0.28-0.03 0.1-0.06 0.19-0.09 0.28-0.03 0.08-0.05 0.16-0.08 0.25s-0.06 0.17-0.09 0.25l-1.14 2.88h2.79z"/>
			<path d="m259.09 133.21c-0.05-0.05-0.1-0.11-0.15-0.18s-0.1-0.14-0.14-0.2c-0.05-0.07-0.1-0.14-0.15-0.22l0.03 0.27c0.01 0.08 0.01 0.16 0.02 0.24s0.01 0.16 0.01 0.23v4.36h-0.65v-6.53h0.11l3.86 4.56c0.04 0.06 0.09 0.12 0.15 0.19s0.1 0.13 0.15 0.19c0.05 0.07 0.1 0.14 0.15 0.22l-0.03-0.27c-0.01-0.08-0.01-0.16-0.01-0.24v-0.23-4.36h0.64v6.53h-0.11l-3.88-4.56z"/>
</svg>
